<svg width="297mm" height="210mm" version="1.1" viewBox="0 0 297 210" xmlns="http://www.w3.org/2000/svg">
  <defs>
    <clipPath id="clipPath10645">
      <g stroke-width="3.065" aria-label="Save Our Date">
        <path d="m23.758 123.93q-4.9784 0-9.144-1.4732-4.1148-1.4732-6.6548-4.318-2.54-2.8956-2.794-7.112-0.1016-1.7272 0.5588-3.81 0.6604-2.0828 1.8288-4.1148 1.2192-2.0828 2.8448-3.7084 1.6764-1.6764 3.556-2.54 0.1524-0.1016 0.4572-0.1524 0.3556-0.0508 0.508-0.0508 0.3048 0 0.3048 0.1524 0 0.254-0.762 0.8128-2.1336 1.6764-3.5052 3.8608-1.4224 2.1844-2.1336 4.6736t-0.7112 5.0292q0 2.9972 1.27 5.1816 1.3208 2.1336 3.5052 3.5052 2.1844 1.4224 4.9784 2.0828t5.842 0.6604q3.4036 0 6.7056-0.762 3.3528-0.762 6.096-2.1844 4.2164-2.2352 6.6548-5.5372 2.4892-3.302 2.4892-6.5532 0-1.7272-0.762-3.302-0.7112-1.5748-2.3368-2.8448-1.2192-0.9652-2.9972-1.8288-1.7272-0.8636-3.7084-1.6764-1.9304-0.8128-3.81-1.6256-1.8796-0.8636-3.302-1.8288-2.032-1.3716-2.9972-2.9464-0.9144-1.5748-0.9144-3.1496 0-1.8796 1.0668-3.6576 1.1176-1.778 2.9972-3.2004 1.9304-1.4732 4.318-2.286 2.0828-0.7112 4.5212-1.1176 2.4892-0.4064 4.8768-0.4064 1.9812 0 3.7592 0.3048 1.8288 0.254 3.2004 0.9652 1.7272 0.8128 2.6416 2.1844 0.9144 1.3208 0.9144 2.794 0 2.032-1.8288 3.556-0.6604 0.508-1.4732 0.9652-0.8128 0.4064-1.9304 0.7112-0.2032 0.0508-0.4572 0.0508-0.6096 0-0.6096-0.3556 0-0.2032 0.3048-0.4064 0.3556-0.254 1.016-0.3048 1.524-0.2032 2.286-1.1684 0.8128-0.9652 0.8128-2.2352 0-1.3208-0.9144-2.5908-0.8636-1.3208-2.6924-2.1844-1.8288-0.9144-4.6736-0.9144-1.6256 0-3.6068 0.3556-1.9304 0.3556-4.2164 1.1684-2.794 0.9652-4.6736 2.8448-1.8288 1.8796-1.8288 4.0132 0 1.3208 0.8636 2.6924 0.9144 1.3208 2.8956 2.54 1.6764 1.016 3.81 2.032 2.1336 0.9652 4.318 1.9812 2.1844 0.9652 3.9624 2.0828 2.794 1.7272 4.0132 3.7084t1.2192 4.064q0 2.4384-1.4732 4.9276-1.4224 2.4384-3.7592 4.6228-2.3368 2.1336-5.1308 3.81-3.2512 1.9304-7.366 2.9464-4.064 1.0668-8.2296 1.0668z"/>
        <path d="m65.16 119.41q-0.5588 0.0508-1.27-0.254t-1.27-1.1176q-0.508-0.8128-0.508-2.286 0-1.2192 0.4572-2.9464-0.6096 0.9652-1.5748 2.3876-0.9652 1.3716-2.0828 2.4384-0.9652 0.9144-1.8288 1.3208t-1.5748 0.4064q-1.3208 0-2.1336-1.1684-0.8128-1.2192-0.8128-3.1496 0-2.032 1.016-4.6228t3.302-5.3848q1.4732-1.778 3.556-2.8448 2.1336-1.1176 4.1656-1.1176 1.1684 0 2.2352 0.4064 1.0668 0.3556 1.8796 1.2192 0.3556 0.3556 0.3556 0.8128 0 0.3048-0.254 0.508t-0.6604 0.1016q-0.5588-1.778-2.3876-1.778-0.8636 0-1.9812 0.5588-1.7272 0.9144-3.6068 2.9972-1.8288 2.0828-3.2004 4.318-0.2032 0.3048-0.6604 1.1684-0.4064 0.8636-0.8128 1.9304t-0.5588 2.0828q-0.0508 0.3048-0.0508 0.4572 0 0.1016 0 0.3556 0 1.6764 1.27 1.6764 1.524 0 3.4544-2.2352 1.3208-1.6256 2.3876-3.4036t2.1844-3.81q0.762-1.3716 1.4224-2.286t1.8796-0.9144q0.5588 0 1.1176 0.1524t1.1684 0.0508q-0.4064 0.4064-1.1176 1.524-0.6604 1.1176-1.4224 2.54t-1.3716 2.8956-0.8636 2.54q-0.0508 0.3048-0.1524 0.8636-0.0508 0.5588-0.0508 0.8128 0 1.4224 0.8128 1.4224t1.7272-0.9652q0.9652-0.9652 1.8796-2.3876t1.6764-2.8448q0.762-1.4732 1.2192-2.3876 0.2032-0.508 0.6096-0.508 0.254 0 0.254 0.3556 0 0.1524-0.1524 0.5588-0.6096 1.27-1.4732 2.8956-0.8636 1.5748-1.8796 3.0988-1.016 1.4732-2.1336 2.4892-1.0668 0.9652-2.1844 1.0668z"/>
        <path d="m73.897 119.61q-1.5748 0-2.1844-0.8128t-0.6096-2.0828q0-1.3208 0.4572-2.9972 0.508-1.6764 1.0668-3.302-0.3556 0.508-0.7112 0.508-0.2032 0-0.3048-0.2032t0.0508-0.4572q0.254-0.4572 0.508-0.8636 0.254-0.4572 0.4572-0.9144 0.4064-0.8636 0.6604-2.032 0.3048-1.2192 0.3048-2.2352 0-0.8128-0.2032-1.3716t-0.6096-0.6604q0 0 0.508-0.1016 0.5588-0.1016 1.1684-0.2032t0.8128-0.1016q0.3048-0.0508 0.5588-0.0508 0.254-0.0508 0.4572-0.0508 0.508 0 0.6604 0.4064 0.2032 0.4064 0.1524 1.778-0.0508 1.27-0.508 3.0988-0.4572 1.778-0.9652 3.0988-0.6604 1.7272-1.2192 3.5052t-0.5588 2.9464q0 1.016 0.5588 1.3208 0.4064 0.1524 0.7112 0.1524 1.1684 0 2.286-1.1684 1.1684-1.1684 2.2352-3.0988 1.0668-1.9812 1.9812-4.2164-0.3556-0.7112-0.508-1.5748t-0.1524-1.6764q0-0.9652 0.254-1.8288 0.6096-2.032 1.6764-2.8956 1.1176-0.9144 1.8796-0.9144 0.9652 0 0.9652 0.8636 0 0.2032-0.1524 0.6096-0.1016 0.1016-0.1016 0.3048-0.3556 1.0668-1.0668 3.0988-0.6604 2.032-1.6764 4.4704-0.9652 2.3876-2.3368 4.6228-1.3208 2.1844-2.9464 3.6068t-3.556 1.4224z"/>
        <path d="m89.086 119.46q-1.8796 0-3.4036-1.2192-1.4732-1.2192-1.4732-3.7084 0-2.286 1.1176-4.8768 1.1176-2.6416 2.8448-4.6228 1.4732-1.7272 3.302-2.8448t3.4544-1.1176q1.1176 0 1.9304 0.6096 0.8636 0.6604 0.8636 1.8796 0 1.27-0.9652 2.794t-2.7432 2.8448q-0.762 0.5588-1.9304 1.0668t-2.3368 0.8636q-1.1684 0.3048-1.9304 0.3048-0.254 0.6096-0.508 1.6256-0.2032 1.016-0.2032 2.0828 0 1.27 0.508 2.286t1.8796 1.016q1.6764 0 3.048-0.9652t2.4384-2.3876q1.0668-1.4732 1.778-2.9464 0.762-1.4732 1.2192-2.4892 0.3048-0.7112 0.8128-0.7112 0.254 0 0.254 0.254 0 0.2032-0.1524 0.508-0.7112 1.524-1.524 3.2512-0.8128 1.6764-1.9304 3.2004-1.1176 1.4732-2.6924 2.3876-1.524 0.9144-3.6576 0.9144zm-0.9144-8.9408q0.7112 0 2.3876-0.508 1.6764-0.5588 3.048-1.7272 1.3208-1.1684 2.032-2.54 0.7112-1.4224 0.7112-2.3876 0-1.1176-0.8128-1.1176-0.6096 0-1.6764 0.8128t-2.6416 2.7432q-0.9652 1.2192-1.8288 2.6416t-1.2192 2.0828z"/>
        <path d="m124.49 122.35q-2.2352 0-4.2672-0.6604-3.048-0.9652-4.9276-4.1656-1.8288-3.2004-1.8288-7.4676 0-3.7084 1.524-7.6708-1.6256-1.1684-2.6924-2.7432-1.0668-1.5748-1.27-3.6576-0.0508-0.4064-0.0508-0.7112 0-0.3556 0-0.7112 0-3.5052 1.5748-6.2484 1.6256-2.7432 4.318-4.6228 2.6924-1.9304 6.0452-2.8956 3.3528-1.016 6.8072-1.016 3.4036 0 6.604 1.016t5.6896 3.1496q2.54 2.1336 3.9116 5.4356 1.4224 3.2512 1.2192 7.8232 2.0828-1.3716 3.9116-2.9464t2.794-3.4544q0.254-0.508 0.6604-0.508 0.3048 0 0.3048 0.3556 0 0.0508-0.0508 0.3048-0.0508 0.2032-0.1524 0.3556-1.4224 2.2352-3.302 4.2164t-4.3688 3.5052q-0.0508 1.1176-0.3556 2.54-0.254 1.3716-0.762 2.8956-0.9652 3.0988-3.0988 6.2484-2.0828 3.1496-4.9784 5.7912t-6.2992 4.2164q-3.4036 1.6256-6.9596 1.6256zm1.6764-18.847q4.2672 0 8.9916-1.2192 4.7752-1.27 8.9408-3.4544 0.1016-0.6604 0.1016-1.27 0-0.6604 0-1.27 0-4.1656-1.2192-7.112-1.1684-2.9972-3.2004-4.8768t-4.572-2.7432q-2.54-0.9144-5.2832-0.9144-2.9464 0-5.842 0.9652t-5.2324 2.794q-2.3368 1.778-3.7592 4.318-1.3716 2.54-1.3716 5.6896 0 0.9652 0.1524 1.9812 0.3048 2.3368 2.032 3.8608 0.7112-1.524 1.9304-3.4036 1.2192-1.9304 2.794-3.8608 1.6256-1.9812 3.4544-3.6068 1.8796-1.6256 3.8608-2.5908 2.032-1.016 4.064-1.016 0.8636 0 1.7272 0.2032 0.9144 0.2032 1.7272 0.7112 0.4064 0.254 0.4064 0.4572 0 0.1524-0.254 0.254-0.2032 0.1016-0.5588 0-0.6604-0.2032-1.4732-0.2032-1.8288 0-3.7084 1.1176-1.8796 1.0668-3.6576 2.8448-1.778 1.7272-3.302 3.7592-1.524 1.9812-2.6924 3.9116-1.1176 1.8796-1.7272 3.2004 3.0988 1.4732 7.6708 1.4732zm-1.27 17.628q2.8448 0 5.5372-1.4224 2.7432-1.4224 5.1308-3.8608 2.4384-2.4384 4.318-5.4356t2.9972-6.1468q0.3048-0.8636 0.5588-1.778 0.254-0.9652 0.3048-1.8288-4.1148 2.1844-8.7884 3.3528t-8.9408 1.1684q-4.7244 0-8.2296-1.3716-1.5748 4.0132-1.5748 7.874 0 2.794 1.016 5.0292t3.2004 3.3528q2.2352 1.0668 4.4704 1.0668z"/>
        <path d="m150 119.26q-0.5588 0-1.3716-0.254-0.762-0.254-1.3716-0.9144-0.5588-0.7112-0.5588-2.0828 0-1.3208 0.6096-2.54 0.6604-1.27 1.2192-2.4384-0.1524 0-0.3556-0.1016-0.1524-0.1016-0.1524-0.3048t0.1016-0.4064q0.2032-0.4064 0.4572-0.8636t0.4572-0.9652q0.762-1.5748 1.524-2.9972 0.762-1.4732 1.3208-2.5908t1.9304-1.1176h3.1496q-0.8636 0.6604-1.5748 1.4732-0.6604 0.762-1.6764 2.8448 0 0-0.3556 0.7112t-0.9144 1.8288q-0.508 1.0668-1.0668 2.1844-0.508 1.1176-0.8636 1.8796-0.6604 1.4224-0.8636 2.286-0.2032 0.8128-0.2032 1.524 0 1.6764 1.1176 1.6764 1.2192 0 2.9464-1.9812 1.4224-1.6764 2.794-4.0132t2.5908-4.826q1.27-2.4892 2.2352-4.4704 0.5588-1.1176 1.9812-1.1176h2.794q-0.762 0.6096-1.27 1.1684-0.508 0.508-1.016 1.4224-0.4572 0.8636-1.27 2.4892-0.6604 1.3716-1.4224 2.9464-0.7112 1.524-1.27 2.8956t-0.7112 2.2352q-0.0508 0.508-0.1016 0.762t-0.0508 0.5588q0 0.9652 0.3048 1.3716 0.3556 0.4064 0.8128 0.4064 1.2192 0 2.4384-1.3716 1.27-1.3716 2.3876-3.3528 1.1684-1.9812 1.9812-3.7592 0.3048-0.5588 0.5588-0.5588 0.3048 0 0.3048 0.3556 0 0.254-0.2032 0.6096-0.5588 1.2192-1.3716 2.794t-1.8288 3.0988-2.2352 2.54q-1.2192 0.9652-2.6416 0.9652-1.27 0-2.0828-0.9144-0.8128-0.9652-0.8128-2.6924 0-1.3716 0.508-2.9464-0.8636 1.524-1.9812 3.048t-2.3876 2.54q-1.27 0.9652-2.54 0.9652z"/>
        <path d="m172.65 119.31q-0.9652 0-1.9304-0.762-0.9652-0.8128-0.9652-2.5908 0-1.3716 0.6604-3.1496 0.6096-1.7272 1.6256-3.3528 1.0668-1.6256 1.524-2.6416 0.1524-0.4064 0.1524-0.7112 0-0.9144-1.1684-1.3208-1.1176-0.4064-2.9464-0.4572l-0.6096 1.6764q-0.5588 1.6256-1.5748 3.81-0.9652 2.1844-2.1844 4.2164-1.1684 2.032-2.4384 3.2512-0.1016 0.1016-0.254 0.1016-0.2032 0-0.254-0.254-0.1016-0.254 0.2032-0.6096 1.9812-2.6416 3.556-5.842 1.5748-3.2512 2.6416-6.604 1.1176-3.3528 1.6256-6.1976 0.1524-0.8128 0.5588-1.1684 0.4064-0.4064 0.8636-0.4064 0.6604 0 1.2192 0.6604 0.5588 0.6096 0.5588 1.778 0 0.2032-0.0508 0.4572 0 0.254-0.0508 0.508-0.2032 1.0668-1.2192 2.032-0.9652 0.9144-1.5748 1.3716 0.508 0.0508 1.0668 0.1016 0.5588 0 1.2192 0 2.3876 0 4.7244-0.3048 0.1016 0.3048 0.1016 0.4572 0 0.6604-0.4064 1.6764-0.3556 1.016-0.762 1.8288-0.2032 0.4572-0.8128 1.6764-0.6096 1.1684-1.3208 2.6924-0.7112 1.4732-1.2192 2.9464-0.4572 1.4224-0.4572 2.4384 0 1.3208 1.016 1.3208 0.762 0 1.6764-0.9652 0.9144-1.016 1.778-2.4384 0.9144-1.4732 1.6256-2.8448 0.762-1.4224 1.1684-2.2352 0.2032-0.508 0.5588-0.508 0.2032 0 0.2032 0.3556 0 0.2032-0.1524 0.6096-0.5588 1.1684-1.3208 2.6416t-1.7272 2.8956q-0.9144 1.4224-2.032 2.4892-1.0668 1.016-2.3368 1.3208-0.1524 0.0508-0.5588 0.0508z"/>
        <path d="m199.02 121.24q-1.1684 0-2.3876-0.1524-3.2004-0.4064-4.7244-1.8796-1.4732-1.524-1.4732-3.2512 0-1.8796 1.6256-3.4036 1.6764-1.524 4.7244-1.524 2.032 0 4.4196 0.8128 1.016 0.3048 2.4892 1.0668 1.524 0.7112 2.9972 1.4732t2.286 1.2192q2.2352-2.1844 4.1148-5.0292 1.9304-2.8956 3.6576-6.1468 1.7272-3.302 3.5052-6.6548 1.778-3.3528 3.7084-6.5024 1.9812-3.2004 4.3688-5.842-2.6416-1.6256-5.842-2.4892-3.1496-0.9144-6.5024-0.9144-1.27 0-2.5908 0.1524-1.27 0.1524-2.5908 0.4064-4.7244 1.016-7.9756 3.2512-3.2512 2.1844-4.9276 4.826-1.6256 2.5908-1.6256 4.9276 0 1.7272 0.9144 3.048t2.794 1.8796q1.3716 0.4064 2.3876 0.4064 1.6764 0 2.8956-0.6604 1.27-0.7112 2.1336-1.7272t1.27-1.9812q0.4572-0.9652 0.508-1.5748 0-0.3556 0.4572-0.3556 0.7112 0 0.5588 0.8636-0.254 2.032-1.524 3.556-1.27 1.4732-3.048 2.3368-1.778 0.8128-3.6576 0.8128-1.2192 0-2.54-0.4064-2.3368-0.8128-3.9624-2.794-1.5748-2.032-1.5748-4.7752 0-2.6924 1.778-5.3848 1.8288-2.7432 5.7912-4.9276t10.363-3.0988q2.1336-0.3048 4.318-0.3048 3.6068 0 7.0612 0.8636 3.5052 0.8636 6.604 2.4892l1.27-1.4732q0.4572-0.4064 1.27-1.016 0.8636-0.6096 1.7272-1.1684t1.27-0.7112q0.6604-0.254 1.0668-0.254 0.3048 0 0.3048 0.1524 0 0.3556-0.8128 0.8636-0.508 0.3556-0.9144 0.8128-0.4064 0.4064-0.6096 0.6604-0.762 1.0668-1.2192 1.7272-0.4064 0.6604-1.1176 1.7272 4.6736 3.0988 7.62 8.0264 2.9464 4.8768 2.9464 11.176 0 1.3208-0.1524 2.6924-0.3048 3.2512-1.778 5.8928t-3.8608 4.4704q-2.3368 1.8288-5.2324 2.794-2.8448 1.016-5.9944 1.016-1.1684 0-2.3368-0.1524-4.9784-0.6096-8.2296-1.6256-3.2004-0.9652-5.6388-2.032-4.6228 3.81-10.363 3.81zm25.705-1.524q4.064 0 7.1628-1.7272 3.1496-1.778 5.08-4.6228t2.286-6.1468q0.1524-1.2192 0.1524-2.4384 0-5.5372-2.3876-10.058-2.3368-4.572-6.1976-7.6708-2.2352 3.5052-4.6228 7.4168-2.3368 3.9116-4.7244 7.7724-2.3876 3.81-4.6736 7.0612-2.2352 3.2512-4.2164 5.3848-0.3556 0.3048-0.9144 0.9144-0.508 0.5588-1.0668 0.9144 2.3876 1.0668 5.4356 1.9304t7.1628 1.2192q0.4572 0.0508 0.762 0.0508 0.3556 0 0.762 0zm-26.822-0.0508q2.794 0.1524 5.2324-0.6604 2.4384-0.8636 4.5212-2.3876-1.8288-0.8636-3.7084-1.778-1.8796-0.9652-3.9624-1.7272-1.3716-0.4572-2.4384-0.4572-1.8796 0-2.8448 1.0668-0.9652 1.016-0.9652 2.286 0 1.3716 1.0668 2.4892 1.0668 1.0668 3.0988 1.1684z"/>
        <path d="m255.86 119.41q-0.5588 0.0508-1.27-0.254t-1.27-1.1176q-0.508-0.8128-0.508-2.286 0-1.2192 0.4572-2.9464-0.6096 0.9652-1.5748 2.3876-0.9652 1.3716-2.0828 2.4384-0.9652 0.9144-1.8288 1.3208t-1.5748 0.4064q-1.3208 0-2.1336-1.1684-0.8128-1.2192-0.8128-3.1496 0-2.032 1.016-4.6228t3.302-5.3848q1.4732-1.778 3.556-2.8448 2.1336-1.1176 4.1656-1.1176 1.1684 0 2.2352 0.4064 1.0668 0.3556 1.8796 1.2192 0.3556 0.3556 0.3556 0.8128 0 0.3048-0.254 0.508t-0.6604 0.1016q-0.5588-1.778-2.3876-1.778-0.8636 0-1.9812 0.5588-1.7272 0.9144-3.6068 2.9972-1.8288 2.0828-3.2004 4.318-0.2032 0.3048-0.6604 1.1684-0.4064 0.8636-0.8128 1.9304t-0.5588 2.0828q-0.0508 0.3048-0.0508 0.4572 0 0.1016 0 0.3556 0 1.6764 1.27 1.6764 1.524 0 3.4544-2.2352 1.3208-1.6256 2.3876-3.4036t2.1844-3.81q0.762-1.3716 1.4224-2.286t1.8796-0.9144q0.5588 0 1.1176 0.1524t1.1684 0.0508q-0.4064 0.4064-1.1176 1.524-0.6604 1.1176-1.4224 2.54t-1.3716 2.8956-0.8636 2.54q-0.0508 0.3048-0.1524 0.8636-0.0508 0.5588-0.0508 0.8128 0 1.4224 0.8128 1.4224t1.7272-0.9652q0.9652-0.9652 1.8796-2.3876t1.6764-2.8448q0.762-1.4732 1.2192-2.3876 0.2032-0.508 0.6096-0.508 0.254 0 0.254 0.3556 0 0.1524-0.1524 0.5588-0.6096 1.27-1.4732 2.8956-0.8636 1.5748-1.8796 3.0988-1.016 1.4732-2.1336 2.4892-1.0668 0.9652-2.1844 1.0668z"/>
        <path d="m265.26 119.26q-1.4224 0-2.54-0.9652-1.1176-1.016-1.1176-3.1496 0-1.6764 0.6096-4.1148 0.6604-2.4892 1.5748-5.1308 0.9652-2.6924 1.8796-4.8768h-2.6924q-0.3556 0-0.3556-0.508 0-0.254 0.1016-0.4572 0.1524-0.2032 0.4064-0.2032h3.048q0.8636-1.9304 1.8288-3.7592t1.8796-3.4544q1.1684-2.032 2.4892-3.048t2.286-1.016q0.762 0 1.27 0.6096 0.508 0.5588 0.508 1.7272 0 0.7112-0.3048 1.9812-0.3048 1.2192-0.9652 2.5908-0.3556 0.7112-1.016 2.032-0.6096 1.3208-1.2192 2.3368h2.4384q0.3556 0 0.3556 0.508 0 0.2032-0.1016 0.4572-0.1016 0.2032-0.3048 0.2032h-2.9972q-1.27 2.1844-2.8956 4.2672t-3.8608 4.1656q-0.1524 0.4572-0.4064 1.3208-0.2032 0.8636-0.4064 1.778-0.1524 0.8636-0.3048 1.4732-0.1016 0.6096-0.1016 0.6096-0.1524 0.6604-0.1524 1.2192 0 1.0668 0.508 1.5748 0.508 0.4572 1.1684 0.4572 0.4064 0 0.8128-0.1016 0.4064-0.1524 0.9144-0.508 1.778-1.27 3.0988-3.4544 1.3716-2.1844 2.3876-4.2164 0.3048-0.6096 0.6096-0.6096 0.2032 0 0.2032 0.3048 0 0.1524-0.1524 0.5588-1.1176 2.3368-1.8796 3.7592t-1.4732 2.3876q-0.7112 0.9144-1.6764 1.8288-0.7112 0.7112-1.6256 1.0668t-1.8288 0.3556zm4.0132-19.406h2.5908q0.7112-1.3208 1.3208-2.5908 0.6604-1.27 1.1684-2.54 0.3556-0.8128 0.6096-1.8288t0.254-1.5748q0-0.762-0.3556-0.762-0.254 0-0.762 0.4572-0.4572 0.4064-1.1684 1.4224-0.9144 1.27-1.8288 3.302-0.8636 1.9812-1.8288 4.1148zm-3.302 7.9756q1.4732-1.524 2.7432-3.2512 1.3208-1.7272 2.4384-3.556h-2.3876q-0.8128 1.8796-1.524 3.6576t-1.27 3.1496z"/>
        <path d="m276.59 119.46q-1.8796 0-3.4036-1.2192-1.4732-1.2192-1.4732-3.7084 0-2.286 1.1176-4.8768 1.1176-2.6416 2.8448-4.6228 1.4732-1.7272 3.302-2.8448t3.4544-1.1176q1.1176 0 1.9304 0.6096 0.8636 0.6604 0.8636 1.8796 0 1.27-0.9652 2.794t-2.7432 2.8448q-0.762 0.5588-1.9304 1.0668t-2.3368 0.8636q-1.1684 0.3048-1.9304 0.3048-0.254 0.6096-0.508 1.6256-0.2032 1.016-0.2032 2.0828 0 1.27 0.508 2.286t1.8796 1.016q1.6764 0 3.048-0.9652t2.4384-2.3876q1.0668-1.4732 1.778-2.9464 0.762-1.4732 1.2192-2.4892 0.3048-0.7112 0.8128-0.7112 0.254 0 0.254 0.254 0 0.2032-0.1524 0.508-0.7112 1.524-1.524 3.2512-0.8128 1.6764-1.9304 3.2004-1.1176 1.4732-2.6924 2.3876-1.524 0.9144-3.6576 0.9144zm-0.9144-8.9408q0.7112 0 2.3876-0.508 1.6764-0.5588 3.048-1.7272 1.3208-1.1684 2.032-2.54 0.7112-1.4224 0.7112-2.3876 0-1.1176-0.8128-1.1176-0.6096 0-1.6764 0.8128t-2.6416 2.7432q-0.9652 1.2192-1.8288 2.6416t-1.2192 2.0828z"/>
      </g>
    </clipPath>
    <clipPath id="clipPath10671">
      <g stroke-width="3.065" aria-label="Save Our Date">
        <path d="m23.758 123.93q-4.9784 0-9.144-1.4732-4.1148-1.4732-6.6548-4.318-2.54-2.8956-2.794-7.112-0.1016-1.7272 0.5588-3.81 0.6604-2.0828 1.8288-4.1148 1.2192-2.0828 2.8448-3.7084 1.6764-1.6764 3.556-2.54 0.1524-0.1016 0.4572-0.1524 0.3556-0.0508 0.508-0.0508 0.3048 0 0.3048 0.1524 0 0.254-0.762 0.8128-2.1336 1.6764-3.5052 3.8608-1.4224 2.1844-2.1336 4.6736t-0.7112 5.0292q0 2.9972 1.27 5.1816 1.3208 2.1336 3.5052 3.5052 2.1844 1.4224 4.9784 2.0828t5.842 0.6604q3.4036 0 6.7056-0.762 3.3528-0.762 6.096-2.1844 4.2164-2.2352 6.6548-5.5372 2.4892-3.302 2.4892-6.5532 0-1.7272-0.762-3.302-0.7112-1.5748-2.3368-2.8448-1.2192-0.9652-2.9972-1.8288-1.7272-0.8636-3.7084-1.6764-1.9304-0.8128-3.81-1.6256-1.8796-0.8636-3.302-1.8288-2.032-1.3716-2.9972-2.9464-0.9144-1.5748-0.9144-3.1496 0-1.8796 1.0668-3.6576 1.1176-1.778 2.9972-3.2004 1.9304-1.4732 4.318-2.286 2.0828-0.7112 4.5212-1.1176 2.4892-0.4064 4.8768-0.4064 1.9812 0 3.7592 0.3048 1.8288 0.254 3.2004 0.9652 1.7272 0.8128 2.6416 2.1844 0.9144 1.3208 0.9144 2.794 0 2.032-1.8288 3.556-0.6604 0.508-1.4732 0.9652-0.8128 0.4064-1.9304 0.7112-0.2032 0.0508-0.4572 0.0508-0.6096 0-0.6096-0.3556 0-0.2032 0.3048-0.4064 0.3556-0.254 1.016-0.3048 1.524-0.2032 2.286-1.1684 0.8128-0.9652 0.8128-2.2352 0-1.3208-0.9144-2.5908-0.8636-1.3208-2.6924-2.1844-1.8288-0.9144-4.6736-0.9144-1.6256 0-3.6068 0.3556-1.9304 0.3556-4.2164 1.1684-2.794 0.9652-4.6736 2.8448-1.8288 1.8796-1.8288 4.0132 0 1.3208 0.8636 2.6924 0.9144 1.3208 2.8956 2.54 1.6764 1.016 3.81 2.032 2.1336 0.9652 4.318 1.9812 2.1844 0.9652 3.9624 2.0828 2.794 1.7272 4.0132 3.7084t1.2192 4.064q0 2.4384-1.4732 4.9276-1.4224 2.4384-3.7592 4.6228-2.3368 2.1336-5.1308 3.81-3.2512 1.9304-7.366 2.9464-4.064 1.0668-8.2296 1.0668z"/>
        <path d="m65.16 119.41q-0.5588 0.0508-1.27-0.254t-1.27-1.1176q-0.508-0.8128-0.508-2.286 0-1.2192 0.4572-2.9464-0.6096 0.9652-1.5748 2.3876-0.9652 1.3716-2.0828 2.4384-0.9652 0.9144-1.8288 1.3208t-1.5748 0.4064q-1.3208 0-2.1336-1.1684-0.8128-1.2192-0.8128-3.1496 0-2.032 1.016-4.6228t3.302-5.3848q1.4732-1.778 3.556-2.8448 2.1336-1.1176 4.1656-1.1176 1.1684 0 2.2352 0.4064 1.0668 0.3556 1.8796 1.2192 0.3556 0.3556 0.3556 0.8128 0 0.3048-0.254 0.508t-0.6604 0.1016q-0.5588-1.778-2.3876-1.778-0.8636 0-1.9812 0.5588-1.7272 0.9144-3.6068 2.9972-1.8288 2.0828-3.2004 4.318-0.2032 0.3048-0.6604 1.1684-0.4064 0.8636-0.8128 1.9304t-0.5588 2.0828q-0.0508 0.3048-0.0508 0.4572 0 0.1016 0 0.3556 0 1.6764 1.27 1.6764 1.524 0 3.4544-2.2352 1.3208-1.6256 2.3876-3.4036t2.1844-3.81q0.762-1.3716 1.4224-2.286t1.8796-0.9144q0.5588 0 1.1176 0.1524t1.1684 0.0508q-0.4064 0.4064-1.1176 1.524-0.6604 1.1176-1.4224 2.54t-1.3716 2.8956-0.8636 2.54q-0.0508 0.3048-0.1524 0.8636-0.0508 0.5588-0.0508 0.8128 0 1.4224 0.8128 1.4224t1.7272-0.9652q0.9652-0.9652 1.8796-2.3876t1.6764-2.8448q0.762-1.4732 1.2192-2.3876 0.2032-0.508 0.6096-0.508 0.254 0 0.254 0.3556 0 0.1524-0.1524 0.5588-0.6096 1.27-1.4732 2.8956-0.8636 1.5748-1.8796 3.0988-1.016 1.4732-2.1336 2.4892-1.0668 0.9652-2.1844 1.0668z"/>
        <path d="m73.897 119.61q-1.5748 0-2.1844-0.8128t-0.6096-2.0828q0-1.3208 0.4572-2.9972 0.508-1.6764 1.0668-3.302-0.3556 0.508-0.7112 0.508-0.2032 0-0.3048-0.2032t0.0508-0.4572q0.254-0.4572 0.508-0.8636 0.254-0.4572 0.4572-0.9144 0.4064-0.8636 0.6604-2.032 0.3048-1.2192 0.3048-2.2352 0-0.8128-0.2032-1.3716t-0.6096-0.6604q0 0 0.508-0.1016 0.5588-0.1016 1.1684-0.2032t0.8128-0.1016q0.3048-0.0508 0.5588-0.0508 0.254-0.0508 0.4572-0.0508 0.508 0 0.6604 0.4064 0.2032 0.4064 0.1524 1.778-0.0508 1.27-0.508 3.0988-0.4572 1.778-0.9652 3.0988-0.6604 1.7272-1.2192 3.5052t-0.5588 2.9464q0 1.016 0.5588 1.3208 0.4064 0.1524 0.7112 0.1524 1.1684 0 2.286-1.1684 1.1684-1.1684 2.2352-3.0988 1.0668-1.9812 1.9812-4.2164-0.3556-0.7112-0.508-1.5748t-0.1524-1.6764q0-0.9652 0.254-1.8288 0.6096-2.032 1.6764-2.8956 1.1176-0.9144 1.8796-0.9144 0.9652 0 0.9652 0.8636 0 0.2032-0.1524 0.6096-0.1016 0.1016-0.1016 0.3048-0.3556 1.0668-1.0668 3.0988-0.6604 2.032-1.6764 4.4704-0.9652 2.3876-2.3368 4.6228-1.3208 2.1844-2.9464 3.6068t-3.556 1.4224z"/>
        <path d="m89.086 119.46q-1.8796 0-3.4036-1.2192-1.4732-1.2192-1.4732-3.7084 0-2.286 1.1176-4.8768 1.1176-2.6416 2.8448-4.6228 1.4732-1.7272 3.302-2.8448t3.4544-1.1176q1.1176 0 1.9304 0.6096 0.8636 0.6604 0.8636 1.8796 0 1.27-0.9652 2.794t-2.7432 2.8448q-0.762 0.5588-1.9304 1.0668t-2.3368 0.8636q-1.1684 0.3048-1.9304 0.3048-0.254 0.6096-0.508 1.6256-0.2032 1.016-0.2032 2.0828 0 1.27 0.508 2.286t1.8796 1.016q1.6764 0 3.048-0.9652t2.4384-2.3876q1.0668-1.4732 1.778-2.9464 0.762-1.4732 1.2192-2.4892 0.3048-0.7112 0.8128-0.7112 0.254 0 0.254 0.254 0 0.2032-0.1524 0.508-0.7112 1.524-1.524 3.2512-0.8128 1.6764-1.9304 3.2004-1.1176 1.4732-2.6924 2.3876-1.524 0.9144-3.6576 0.9144zm-0.9144-8.9408q0.7112 0 2.3876-0.508 1.6764-0.5588 3.048-1.7272 1.3208-1.1684 2.032-2.54 0.7112-1.4224 0.7112-2.3876 0-1.1176-0.8128-1.1176-0.6096 0-1.6764 0.8128t-2.6416 2.7432q-0.9652 1.2192-1.8288 2.6416t-1.2192 2.0828z"/>
        <path d="m124.49 122.35q-2.2352 0-4.2672-0.6604-3.048-0.9652-4.9276-4.1656-1.8288-3.2004-1.8288-7.4676 0-3.7084 1.524-7.6708-1.6256-1.1684-2.6924-2.7432-1.0668-1.5748-1.27-3.6576-0.0508-0.4064-0.0508-0.7112 0-0.3556 0-0.7112 0-3.5052 1.5748-6.2484 1.6256-2.7432 4.318-4.6228 2.6924-1.9304 6.0452-2.8956 3.3528-1.016 6.8072-1.016 3.4036 0 6.604 1.016t5.6896 3.1496q2.54 2.1336 3.9116 5.4356 1.4224 3.2512 1.2192 7.8232 2.0828-1.3716 3.9116-2.9464t2.794-3.4544q0.254-0.508 0.6604-0.508 0.3048 0 0.3048 0.3556 0 0.0508-0.0508 0.3048-0.0508 0.2032-0.1524 0.3556-1.4224 2.2352-3.302 4.2164t-4.3688 3.5052q-0.0508 1.1176-0.3556 2.54-0.254 1.3716-0.762 2.8956-0.9652 3.0988-3.0988 6.2484-2.0828 3.1496-4.9784 5.7912t-6.2992 4.2164q-3.4036 1.6256-6.9596 1.6256zm1.6764-18.847q4.2672 0 8.9916-1.2192 4.7752-1.27 8.9408-3.4544 0.1016-0.6604 0.1016-1.27 0-0.6604 0-1.27 0-4.1656-1.2192-7.112-1.1684-2.9972-3.2004-4.8768t-4.572-2.7432q-2.54-0.9144-5.2832-0.9144-2.9464 0-5.842 0.9652t-5.2324 2.794q-2.3368 1.778-3.7592 4.318-1.3716 2.54-1.3716 5.6896 0 0.9652 0.1524 1.9812 0.3048 2.3368 2.032 3.8608 0.7112-1.524 1.9304-3.4036 1.2192-1.9304 2.794-3.8608 1.6256-1.9812 3.4544-3.6068 1.8796-1.6256 3.8608-2.5908 2.032-1.016 4.064-1.016 0.8636 0 1.7272 0.2032 0.9144 0.2032 1.7272 0.7112 0.4064 0.254 0.4064 0.4572 0 0.1524-0.254 0.254-0.2032 0.1016-0.5588 0-0.6604-0.2032-1.4732-0.2032-1.8288 0-3.7084 1.1176-1.8796 1.0668-3.6576 2.8448-1.778 1.7272-3.302 3.7592-1.524 1.9812-2.6924 3.9116-1.1176 1.8796-1.7272 3.2004 3.0988 1.4732 7.6708 1.4732zm-1.27 17.628q2.8448 0 5.5372-1.4224 2.7432-1.4224 5.1308-3.8608 2.4384-2.4384 4.318-5.4356t2.9972-6.1468q0.3048-0.8636 0.5588-1.778 0.254-0.9652 0.3048-1.8288-4.1148 2.1844-8.7884 3.3528t-8.9408 1.1684q-4.7244 0-8.2296-1.3716-1.5748 4.0132-1.5748 7.874 0 2.794 1.016 5.0292t3.2004 3.3528q2.2352 1.0668 4.4704 1.0668z"/>
        <path d="m150 119.26q-0.5588 0-1.3716-0.254-0.762-0.254-1.3716-0.9144-0.5588-0.7112-0.5588-2.0828 0-1.3208 0.6096-2.54 0.6604-1.27 1.2192-2.4384-0.1524 0-0.3556-0.1016-0.1524-0.1016-0.1524-0.3048t0.1016-0.4064q0.2032-0.4064 0.4572-0.8636t0.4572-0.9652q0.762-1.5748 1.524-2.9972 0.762-1.4732 1.3208-2.5908t1.9304-1.1176h3.1496q-0.8636 0.6604-1.5748 1.4732-0.6604 0.762-1.6764 2.8448 0 0-0.3556 0.7112t-0.9144 1.8288q-0.508 1.0668-1.0668 2.1844-0.508 1.1176-0.8636 1.8796-0.6604 1.4224-0.8636 2.286-0.2032 0.8128-0.2032 1.524 0 1.6764 1.1176 1.6764 1.2192 0 2.9464-1.9812 1.4224-1.6764 2.794-4.0132t2.5908-4.826q1.27-2.4892 2.2352-4.4704 0.5588-1.1176 1.9812-1.1176h2.794q-0.762 0.6096-1.27 1.1684-0.508 0.508-1.016 1.4224-0.4572 0.8636-1.27 2.4892-0.6604 1.3716-1.4224 2.9464-0.7112 1.524-1.27 2.8956t-0.7112 2.2352q-0.0508 0.508-0.1016 0.762t-0.0508 0.5588q0 0.9652 0.3048 1.3716 0.3556 0.4064 0.8128 0.4064 1.2192 0 2.4384-1.3716 1.27-1.3716 2.3876-3.3528 1.1684-1.9812 1.9812-3.7592 0.3048-0.5588 0.5588-0.5588 0.3048 0 0.3048 0.3556 0 0.254-0.2032 0.6096-0.5588 1.2192-1.3716 2.794t-1.8288 3.0988-2.2352 2.54q-1.2192 0.9652-2.6416 0.9652-1.27 0-2.0828-0.9144-0.8128-0.9652-0.8128-2.6924 0-1.3716 0.508-2.9464-0.8636 1.524-1.9812 3.048t-2.3876 2.54q-1.27 0.9652-2.54 0.9652z"/>
        <path d="m172.65 119.31q-0.9652 0-1.9304-0.762-0.9652-0.8128-0.9652-2.5908 0-1.3716 0.6604-3.1496 0.6096-1.7272 1.6256-3.3528 1.0668-1.6256 1.524-2.6416 0.1524-0.4064 0.1524-0.7112 0-0.9144-1.1684-1.3208-1.1176-0.4064-2.9464-0.4572l-0.6096 1.6764q-0.5588 1.6256-1.5748 3.81-0.9652 2.1844-2.1844 4.2164-1.1684 2.032-2.4384 3.2512-0.1016 0.1016-0.254 0.1016-0.2032 0-0.254-0.254-0.1016-0.254 0.2032-0.6096 1.9812-2.6416 3.556-5.842 1.5748-3.2512 2.6416-6.604 1.1176-3.3528 1.6256-6.1976 0.1524-0.8128 0.5588-1.1684 0.4064-0.4064 0.8636-0.4064 0.6604 0 1.2192 0.6604 0.5588 0.6096 0.5588 1.778 0 0.2032-0.0508 0.4572 0 0.254-0.0508 0.508-0.2032 1.0668-1.2192 2.032-0.9652 0.9144-1.5748 1.3716 0.508 0.0508 1.0668 0.1016 0.5588 0 1.2192 0 2.3876 0 4.7244-0.3048 0.1016 0.3048 0.1016 0.4572 0 0.6604-0.4064 1.6764-0.3556 1.016-0.762 1.8288-0.2032 0.4572-0.8128 1.6764-0.6096 1.1684-1.3208 2.6924-0.7112 1.4732-1.2192 2.9464-0.4572 1.4224-0.4572 2.4384 0 1.3208 1.016 1.3208 0.762 0 1.6764-0.9652 0.9144-1.016 1.778-2.4384 0.9144-1.4732 1.6256-2.8448 0.762-1.4224 1.1684-2.2352 0.2032-0.508 0.5588-0.508 0.2032 0 0.2032 0.3556 0 0.2032-0.1524 0.6096-0.5588 1.1684-1.3208 2.6416t-1.7272 2.8956q-0.9144 1.4224-2.032 2.4892-1.0668 1.016-2.3368 1.3208-0.1524 0.0508-0.5588 0.0508z"/>
        <path d="m199.02 121.24q-1.1684 0-2.3876-0.1524-3.2004-0.4064-4.7244-1.8796-1.4732-1.524-1.4732-3.2512 0-1.8796 1.6256-3.4036 1.6764-1.524 4.7244-1.524 2.032 0 4.4196 0.8128 1.016 0.3048 2.4892 1.0668 1.524 0.7112 2.9972 1.4732t2.286 1.2192q2.2352-2.1844 4.1148-5.0292 1.9304-2.8956 3.6576-6.1468 1.7272-3.302 3.5052-6.6548 1.778-3.3528 3.7084-6.5024 1.9812-3.2004 4.3688-5.842-2.6416-1.6256-5.842-2.4892-3.1496-0.9144-6.5024-0.9144-1.27 0-2.5908 0.1524-1.27 0.1524-2.5908 0.4064-4.7244 1.016-7.9756 3.2512-3.2512 2.1844-4.9276 4.826-1.6256 2.5908-1.6256 4.9276 0 1.7272 0.9144 3.048t2.794 1.8796q1.3716 0.4064 2.3876 0.4064 1.6764 0 2.8956-0.6604 1.27-0.7112 2.1336-1.7272t1.27-1.9812q0.4572-0.9652 0.508-1.5748 0-0.3556 0.4572-0.3556 0.7112 0 0.5588 0.8636-0.254 2.032-1.524 3.556-1.27 1.4732-3.048 2.3368-1.778 0.8128-3.6576 0.8128-1.2192 0-2.54-0.4064-2.3368-0.8128-3.9624-2.794-1.5748-2.032-1.5748-4.7752 0-2.6924 1.778-5.3848 1.8288-2.7432 5.7912-4.9276t10.363-3.0988q2.1336-0.3048 4.318-0.3048 3.6068 0 7.0612 0.8636 3.5052 0.8636 6.604 2.4892l1.27-1.4732q0.4572-0.4064 1.27-1.016 0.8636-0.6096 1.7272-1.1684t1.27-0.7112q0.6604-0.254 1.0668-0.254 0.3048 0 0.3048 0.1524 0 0.3556-0.8128 0.8636-0.508 0.3556-0.9144 0.8128-0.4064 0.4064-0.6096 0.6604-0.762 1.0668-1.2192 1.7272-0.4064 0.6604-1.1176 1.7272 4.6736 3.0988 7.62 8.0264 2.9464 4.8768 2.9464 11.176 0 1.3208-0.1524 2.6924-0.3048 3.2512-1.778 5.8928t-3.8608 4.4704q-2.3368 1.8288-5.2324 2.794-2.8448 1.016-5.9944 1.016-1.1684 0-2.3368-0.1524-4.9784-0.6096-8.2296-1.6256-3.2004-0.9652-5.6388-2.032-4.6228 3.81-10.363 3.81zm25.705-1.524q4.064 0 7.1628-1.7272 3.1496-1.778 5.08-4.6228t2.286-6.1468q0.1524-1.2192 0.1524-2.4384 0-5.5372-2.3876-10.058-2.3368-4.572-6.1976-7.6708-2.2352 3.5052-4.6228 7.4168-2.3368 3.9116-4.7244 7.7724-2.3876 3.81-4.6736 7.0612-2.2352 3.2512-4.2164 5.3848-0.3556 0.3048-0.9144 0.9144-0.508 0.5588-1.0668 0.9144 2.3876 1.0668 5.4356 1.9304t7.1628 1.2192q0.4572 0.0508 0.762 0.0508 0.3556 0 0.762 0zm-26.822-0.0508q2.794 0.1524 5.2324-0.6604 2.4384-0.8636 4.5212-2.3876-1.8288-0.8636-3.7084-1.778-1.8796-0.9652-3.9624-1.7272-1.3716-0.4572-2.4384-0.4572-1.8796 0-2.8448 1.0668-0.9652 1.016-0.9652 2.286 0 1.3716 1.0668 2.4892 1.0668 1.0668 3.0988 1.1684z"/>
        <path d="m255.86 119.41q-0.5588 0.0508-1.27-0.254t-1.27-1.1176q-0.508-0.8128-0.508-2.286 0-1.2192 0.4572-2.9464-0.6096 0.9652-1.5748 2.3876-0.9652 1.3716-2.0828 2.4384-0.9652 0.9144-1.8288 1.3208t-1.5748 0.4064q-1.3208 0-2.1336-1.1684-0.8128-1.2192-0.8128-3.1496 0-2.032 1.016-4.6228t3.302-5.3848q1.4732-1.778 3.556-2.8448 2.1336-1.1176 4.1656-1.1176 1.1684 0 2.2352 0.4064 1.0668 0.3556 1.8796 1.2192 0.3556 0.3556 0.3556 0.8128 0 0.3048-0.254 0.508t-0.6604 0.1016q-0.5588-1.778-2.3876-1.778-0.8636 0-1.9812 0.5588-1.7272 0.9144-3.6068 2.9972-1.8288 2.0828-3.2004 4.318-0.2032 0.3048-0.6604 1.1684-0.4064 0.8636-0.8128 1.9304t-0.5588 2.0828q-0.0508 0.3048-0.0508 0.4572 0 0.1016 0 0.3556 0 1.6764 1.27 1.6764 1.524 0 3.4544-2.2352 1.3208-1.6256 2.3876-3.4036t2.1844-3.81q0.762-1.3716 1.4224-2.286t1.8796-0.9144q0.5588 0 1.1176 0.1524t1.1684 0.0508q-0.4064 0.4064-1.1176 1.524-0.6604 1.1176-1.4224 2.54t-1.3716 2.8956-0.8636 2.54q-0.0508 0.3048-0.1524 0.8636-0.0508 0.5588-0.0508 0.8128 0 1.4224 0.8128 1.4224t1.7272-0.9652q0.9652-0.9652 1.8796-2.3876t1.6764-2.8448q0.762-1.4732 1.2192-2.3876 0.2032-0.508 0.6096-0.508 0.254 0 0.254 0.3556 0 0.1524-0.1524 0.5588-0.6096 1.27-1.4732 2.8956-0.8636 1.5748-1.8796 3.0988-1.016 1.4732-2.1336 2.4892-1.0668 0.9652-2.1844 1.0668z"/>
        <path d="m265.26 119.26q-1.4224 0-2.54-0.9652-1.1176-1.016-1.1176-3.1496 0-1.6764 0.6096-4.1148 0.6604-2.4892 1.5748-5.1308 0.9652-2.6924 1.8796-4.8768h-2.6924q-0.3556 0-0.3556-0.508 0-0.254 0.1016-0.4572 0.1524-0.2032 0.4064-0.2032h3.048q0.8636-1.9304 1.8288-3.7592t1.8796-3.4544q1.1684-2.032 2.4892-3.048t2.286-1.016q0.762 0 1.27 0.6096 0.508 0.5588 0.508 1.7272 0 0.7112-0.3048 1.9812-0.3048 1.2192-0.9652 2.5908-0.3556 0.7112-1.016 2.032-0.6096 1.3208-1.2192 2.3368h2.4384q0.3556 0 0.3556 0.508 0 0.2032-0.1016 0.4572-0.1016 0.2032-0.3048 0.2032h-2.9972q-1.27 2.1844-2.8956 4.2672t-3.8608 4.1656q-0.1524 0.4572-0.4064 1.3208-0.2032 0.8636-0.4064 1.778-0.1524 0.8636-0.3048 1.4732-0.1016 0.6096-0.1016 0.6096-0.1524 0.6604-0.1524 1.2192 0 1.0668 0.508 1.5748 0.508 0.4572 1.1684 0.4572 0.4064 0 0.8128-0.1016 0.4064-0.1524 0.9144-0.508 1.778-1.27 3.0988-3.4544 1.3716-2.1844 2.3876-4.2164 0.3048-0.6096 0.6096-0.6096 0.2032 0 0.2032 0.3048 0 0.1524-0.1524 0.5588-1.1176 2.3368-1.8796 3.7592t-1.4732 2.3876q-0.7112 0.9144-1.6764 1.8288-0.7112 0.7112-1.6256 1.0668t-1.8288 0.3556zm4.0132-19.406h2.5908q0.7112-1.3208 1.3208-2.5908 0.6604-1.27 1.1684-2.54 0.3556-0.8128 0.6096-1.8288t0.254-1.5748q0-0.762-0.3556-0.762-0.254 0-0.762 0.4572-0.4572 0.4064-1.1684 1.4224-0.9144 1.27-1.8288 3.302-0.8636 1.9812-1.8288 4.1148zm-3.302 7.9756q1.4732-1.524 2.7432-3.2512 1.3208-1.7272 2.4384-3.556h-2.3876q-0.8128 1.8796-1.524 3.6576t-1.27 3.1496z"/>
        <path d="m276.59 119.46q-1.8796 0-3.4036-1.2192-1.4732-1.2192-1.4732-3.7084 0-2.286 1.1176-4.8768 1.1176-2.6416 2.8448-4.6228 1.4732-1.7272 3.302-2.8448t3.4544-1.1176q1.1176 0 1.9304 0.6096 0.8636 0.6604 0.8636 1.8796 0 1.27-0.9652 2.794t-2.7432 2.8448q-0.762 0.5588-1.9304 1.0668t-2.3368 0.8636q-1.1684 0.3048-1.9304 0.3048-0.254 0.6096-0.508 1.6256-0.2032 1.016-0.2032 2.0828 0 1.27 0.508 2.286t1.8796 1.016q1.6764 0 3.048-0.9652t2.4384-2.3876q1.0668-1.4732 1.778-2.9464 0.762-1.4732 1.2192-2.4892 0.3048-0.7112 0.8128-0.7112 0.254 0 0.254 0.254 0 0.2032-0.1524 0.508-0.7112 1.524-1.524 3.2512-0.8128 1.6764-1.9304 3.2004-1.1176 1.4732-2.6924 2.3876-1.524 0.9144-3.6576 0.9144zm-0.9144-8.9408q0.7112 0 2.3876-0.508 1.6764-0.5588 3.048-1.7272 1.3208-1.1684 2.032-2.54 0.7112-1.4224 0.7112-2.3876 0-1.1176-0.8128-1.1176-0.6096 0-1.6764 0.8128t-2.6416 2.7432q-0.9652 1.2192-1.8288 2.6416t-1.2192 2.0828z"/>
      </g>
    </clipPath>
    <clipPath id="clipPath10697">
      <g stroke-width="3.065" aria-label="Save Our Date">
        <path d="m23.758 123.93q-4.9784 0-9.144-1.4732-4.1148-1.4732-6.6548-4.318-2.54-2.8956-2.794-7.112-0.1016-1.7272 0.5588-3.81 0.6604-2.0828 1.8288-4.1148 1.2192-2.0828 2.8448-3.7084 1.6764-1.6764 3.556-2.54 0.1524-0.1016 0.4572-0.1524 0.3556-0.0508 0.508-0.0508 0.3048 0 0.3048 0.1524 0 0.254-0.762 0.8128-2.1336 1.6764-3.5052 3.8608-1.4224 2.1844-2.1336 4.6736t-0.7112 5.0292q0 2.9972 1.27 5.1816 1.3208 2.1336 3.5052 3.5052 2.1844 1.4224 4.9784 2.0828t5.842 0.6604q3.4036 0 6.7056-0.762 3.3528-0.762 6.096-2.1844 4.2164-2.2352 6.6548-5.5372 2.4892-3.302 2.4892-6.5532 0-1.7272-0.762-3.302-0.7112-1.5748-2.3368-2.8448-1.2192-0.9652-2.9972-1.8288-1.7272-0.8636-3.7084-1.6764-1.9304-0.8128-3.81-1.6256-1.8796-0.8636-3.302-1.8288-2.032-1.3716-2.9972-2.9464-0.9144-1.5748-0.9144-3.1496 0-1.8796 1.0668-3.6576 1.1176-1.778 2.9972-3.2004 1.9304-1.4732 4.318-2.286 2.0828-0.7112 4.5212-1.1176 2.4892-0.4064 4.8768-0.4064 1.9812 0 3.7592 0.3048 1.8288 0.254 3.2004 0.9652 1.7272 0.8128 2.6416 2.1844 0.9144 1.3208 0.9144 2.794 0 2.032-1.8288 3.556-0.6604 0.508-1.4732 0.9652-0.8128 0.4064-1.9304 0.7112-0.2032 0.0508-0.4572 0.0508-0.6096 0-0.6096-0.3556 0-0.2032 0.3048-0.4064 0.3556-0.254 1.016-0.3048 1.524-0.2032 2.286-1.1684 0.8128-0.9652 0.8128-2.2352 0-1.3208-0.9144-2.5908-0.8636-1.3208-2.6924-2.1844-1.8288-0.9144-4.6736-0.9144-1.6256 0-3.6068 0.3556-1.9304 0.3556-4.2164 1.1684-2.794 0.9652-4.6736 2.8448-1.8288 1.8796-1.8288 4.0132 0 1.3208 0.8636 2.6924 0.9144 1.3208 2.8956 2.54 1.6764 1.016 3.81 2.032 2.1336 0.9652 4.318 1.9812 2.1844 0.9652 3.9624 2.0828 2.794 1.7272 4.0132 3.7084t1.2192 4.064q0 2.4384-1.4732 4.9276-1.4224 2.4384-3.7592 4.6228-2.3368 2.1336-5.1308 3.81-3.2512 1.9304-7.366 2.9464-4.064 1.0668-8.2296 1.0668z"/>
        <path d="m65.16 119.41q-0.5588 0.0508-1.27-0.254t-1.27-1.1176q-0.508-0.8128-0.508-2.286 0-1.2192 0.4572-2.9464-0.6096 0.9652-1.5748 2.3876-0.9652 1.3716-2.0828 2.4384-0.9652 0.9144-1.8288 1.3208t-1.5748 0.4064q-1.3208 0-2.1336-1.1684-0.8128-1.2192-0.8128-3.1496 0-2.032 1.016-4.6228t3.302-5.3848q1.4732-1.778 3.556-2.8448 2.1336-1.1176 4.1656-1.1176 1.1684 0 2.2352 0.4064 1.0668 0.3556 1.8796 1.2192 0.3556 0.3556 0.3556 0.8128 0 0.3048-0.254 0.508t-0.6604 0.1016q-0.5588-1.778-2.3876-1.778-0.8636 0-1.9812 0.5588-1.7272 0.9144-3.6068 2.9972-1.8288 2.0828-3.2004 4.318-0.2032 0.3048-0.6604 1.1684-0.4064 0.8636-0.8128 1.9304t-0.5588 2.0828q-0.0508 0.3048-0.0508 0.4572 0 0.1016 0 0.3556 0 1.6764 1.27 1.6764 1.524 0 3.4544-2.2352 1.3208-1.6256 2.3876-3.4036t2.1844-3.81q0.762-1.3716 1.4224-2.286t1.8796-0.9144q0.5588 0 1.1176 0.1524t1.1684 0.0508q-0.4064 0.4064-1.1176 1.524-0.6604 1.1176-1.4224 2.54t-1.3716 2.8956-0.8636 2.54q-0.0508 0.3048-0.1524 0.8636-0.0508 0.5588-0.0508 0.8128 0 1.4224 0.8128 1.4224t1.7272-0.9652q0.9652-0.9652 1.8796-2.3876t1.6764-2.8448q0.762-1.4732 1.2192-2.3876 0.2032-0.508 0.6096-0.508 0.254 0 0.254 0.3556 0 0.1524-0.1524 0.5588-0.6096 1.27-1.4732 2.8956-0.8636 1.5748-1.8796 3.0988-1.016 1.4732-2.1336 2.4892-1.0668 0.9652-2.1844 1.0668z"/>
        <path d="m73.897 119.61q-1.5748 0-2.1844-0.8128t-0.6096-2.0828q0-1.3208 0.4572-2.9972 0.508-1.6764 1.0668-3.302-0.3556 0.508-0.7112 0.508-0.2032 0-0.3048-0.2032t0.0508-0.4572q0.254-0.4572 0.508-0.8636 0.254-0.4572 0.4572-0.9144 0.4064-0.8636 0.6604-2.032 0.3048-1.2192 0.3048-2.2352 0-0.8128-0.2032-1.3716t-0.6096-0.6604q0 0 0.508-0.1016 0.5588-0.1016 1.1684-0.2032t0.8128-0.1016q0.3048-0.0508 0.5588-0.0508 0.254-0.0508 0.4572-0.0508 0.508 0 0.6604 0.4064 0.2032 0.4064 0.1524 1.778-0.0508 1.27-0.508 3.0988-0.4572 1.778-0.9652 3.0988-0.6604 1.7272-1.2192 3.5052t-0.5588 2.9464q0 1.016 0.5588 1.3208 0.4064 0.1524 0.7112 0.1524 1.1684 0 2.286-1.1684 1.1684-1.1684 2.2352-3.0988 1.0668-1.9812 1.9812-4.2164-0.3556-0.7112-0.508-1.5748t-0.1524-1.6764q0-0.9652 0.254-1.8288 0.6096-2.032 1.6764-2.8956 1.1176-0.9144 1.8796-0.9144 0.9652 0 0.9652 0.8636 0 0.2032-0.1524 0.6096-0.1016 0.1016-0.1016 0.3048-0.3556 1.0668-1.0668 3.0988-0.6604 2.032-1.6764 4.4704-0.9652 2.3876-2.3368 4.6228-1.3208 2.1844-2.9464 3.6068t-3.556 1.4224z"/>
        <path d="m89.086 119.46q-1.8796 0-3.4036-1.2192-1.4732-1.2192-1.4732-3.7084 0-2.286 1.1176-4.8768 1.1176-2.6416 2.8448-4.6228 1.4732-1.7272 3.302-2.8448t3.4544-1.1176q1.1176 0 1.9304 0.6096 0.8636 0.6604 0.8636 1.8796 0 1.27-0.9652 2.794t-2.7432 2.8448q-0.762 0.5588-1.9304 1.0668t-2.3368 0.8636q-1.1684 0.3048-1.9304 0.3048-0.254 0.6096-0.508 1.6256-0.2032 1.016-0.2032 2.0828 0 1.27 0.508 2.286t1.8796 1.016q1.6764 0 3.048-0.9652t2.4384-2.3876q1.0668-1.4732 1.778-2.9464 0.762-1.4732 1.2192-2.4892 0.3048-0.7112 0.8128-0.7112 0.254 0 0.254 0.254 0 0.2032-0.1524 0.508-0.7112 1.524-1.524 3.2512-0.8128 1.6764-1.9304 3.2004-1.1176 1.4732-2.6924 2.3876-1.524 0.9144-3.6576 0.9144zm-0.9144-8.9408q0.7112 0 2.3876-0.508 1.6764-0.5588 3.048-1.7272 1.3208-1.1684 2.032-2.54 0.7112-1.4224 0.7112-2.3876 0-1.1176-0.8128-1.1176-0.6096 0-1.6764 0.8128t-2.6416 2.7432q-0.9652 1.2192-1.8288 2.6416t-1.2192 2.0828z"/>
        <path d="m124.49 122.35q-2.2352 0-4.2672-0.6604-3.048-0.9652-4.9276-4.1656-1.8288-3.2004-1.8288-7.4676 0-3.7084 1.524-7.6708-1.6256-1.1684-2.6924-2.7432-1.0668-1.5748-1.27-3.6576-0.0508-0.4064-0.0508-0.7112 0-0.3556 0-0.7112 0-3.5052 1.5748-6.2484 1.6256-2.7432 4.318-4.6228 2.6924-1.9304 6.0452-2.8956 3.3528-1.016 6.8072-1.016 3.4036 0 6.604 1.016t5.6896 3.1496q2.54 2.1336 3.9116 5.4356 1.4224 3.2512 1.2192 7.8232 2.0828-1.3716 3.9116-2.9464t2.794-3.4544q0.254-0.508 0.6604-0.508 0.3048 0 0.3048 0.3556 0 0.0508-0.0508 0.3048-0.0508 0.2032-0.1524 0.3556-1.4224 2.2352-3.302 4.2164t-4.3688 3.5052q-0.0508 1.1176-0.3556 2.54-0.254 1.3716-0.762 2.8956-0.9652 3.0988-3.0988 6.2484-2.0828 3.1496-4.9784 5.7912t-6.2992 4.2164q-3.4036 1.6256-6.9596 1.6256zm1.6764-18.847q4.2672 0 8.9916-1.2192 4.7752-1.27 8.9408-3.4544 0.1016-0.6604 0.1016-1.27 0-0.6604 0-1.27 0-4.1656-1.2192-7.112-1.1684-2.9972-3.2004-4.8768t-4.572-2.7432q-2.54-0.9144-5.2832-0.9144-2.9464 0-5.842 0.9652t-5.2324 2.794q-2.3368 1.778-3.7592 4.318-1.3716 2.54-1.3716 5.6896 0 0.9652 0.1524 1.9812 0.3048 2.3368 2.032 3.8608 0.7112-1.524 1.9304-3.4036 1.2192-1.9304 2.794-3.8608 1.6256-1.9812 3.4544-3.6068 1.8796-1.6256 3.8608-2.5908 2.032-1.016 4.064-1.016 0.8636 0 1.7272 0.2032 0.9144 0.2032 1.7272 0.7112 0.4064 0.254 0.4064 0.4572 0 0.1524-0.254 0.254-0.2032 0.1016-0.5588 0-0.6604-0.2032-1.4732-0.2032-1.8288 0-3.7084 1.1176-1.8796 1.0668-3.6576 2.8448-1.778 1.7272-3.302 3.7592-1.524 1.9812-2.6924 3.9116-1.1176 1.8796-1.7272 3.2004 3.0988 1.4732 7.6708 1.4732zm-1.27 17.628q2.8448 0 5.5372-1.4224 2.7432-1.4224 5.1308-3.8608 2.4384-2.4384 4.318-5.4356t2.9972-6.1468q0.3048-0.8636 0.5588-1.778 0.254-0.9652 0.3048-1.8288-4.1148 2.1844-8.7884 3.3528t-8.9408 1.1684q-4.7244 0-8.2296-1.3716-1.5748 4.0132-1.5748 7.874 0 2.794 1.016 5.0292t3.2004 3.3528q2.2352 1.0668 4.4704 1.0668z"/>
        <path d="m150 119.26q-0.5588 0-1.3716-0.254-0.762-0.254-1.3716-0.9144-0.5588-0.7112-0.5588-2.0828 0-1.3208 0.6096-2.54 0.6604-1.27 1.2192-2.4384-0.1524 0-0.3556-0.1016-0.1524-0.1016-0.1524-0.3048t0.1016-0.4064q0.2032-0.4064 0.4572-0.8636t0.4572-0.9652q0.762-1.5748 1.524-2.9972 0.762-1.4732 1.3208-2.5908t1.9304-1.1176h3.1496q-0.8636 0.6604-1.5748 1.4732-0.6604 0.762-1.6764 2.8448 0 0-0.3556 0.7112t-0.9144 1.8288q-0.508 1.0668-1.0668 2.1844-0.508 1.1176-0.8636 1.8796-0.6604 1.4224-0.8636 2.286-0.2032 0.8128-0.2032 1.524 0 1.6764 1.1176 1.6764 1.2192 0 2.9464-1.9812 1.4224-1.6764 2.794-4.0132t2.5908-4.826q1.27-2.4892 2.2352-4.4704 0.5588-1.1176 1.9812-1.1176h2.794q-0.762 0.6096-1.27 1.1684-0.508 0.508-1.016 1.4224-0.4572 0.8636-1.27 2.4892-0.6604 1.3716-1.4224 2.9464-0.7112 1.524-1.27 2.8956t-0.7112 2.2352q-0.0508 0.508-0.1016 0.762t-0.0508 0.5588q0 0.9652 0.3048 1.3716 0.3556 0.4064 0.8128 0.4064 1.2192 0 2.4384-1.3716 1.27-1.3716 2.3876-3.3528 1.1684-1.9812 1.9812-3.7592 0.3048-0.5588 0.5588-0.5588 0.3048 0 0.3048 0.3556 0 0.254-0.2032 0.6096-0.5588 1.2192-1.3716 2.794t-1.8288 3.0988-2.2352 2.54q-1.2192 0.9652-2.6416 0.9652-1.27 0-2.0828-0.9144-0.8128-0.9652-0.8128-2.6924 0-1.3716 0.508-2.9464-0.8636 1.524-1.9812 3.048t-2.3876 2.54q-1.27 0.9652-2.54 0.9652z"/>
        <path d="m172.65 119.31q-0.9652 0-1.9304-0.762-0.9652-0.8128-0.9652-2.5908 0-1.3716 0.6604-3.1496 0.6096-1.7272 1.6256-3.3528 1.0668-1.6256 1.524-2.6416 0.1524-0.4064 0.1524-0.7112 0-0.9144-1.1684-1.3208-1.1176-0.4064-2.9464-0.4572l-0.6096 1.6764q-0.5588 1.6256-1.5748 3.81-0.9652 2.1844-2.1844 4.2164-1.1684 2.032-2.4384 3.2512-0.1016 0.1016-0.254 0.1016-0.2032 0-0.254-0.254-0.1016-0.254 0.2032-0.6096 1.9812-2.6416 3.556-5.842 1.5748-3.2512 2.6416-6.604 1.1176-3.3528 1.6256-6.1976 0.1524-0.8128 0.5588-1.1684 0.4064-0.4064 0.8636-0.4064 0.6604 0 1.2192 0.6604 0.5588 0.6096 0.5588 1.778 0 0.2032-0.0508 0.4572 0 0.254-0.0508 0.508-0.2032 1.0668-1.2192 2.032-0.9652 0.9144-1.5748 1.3716 0.508 0.0508 1.0668 0.1016 0.5588 0 1.2192 0 2.3876 0 4.7244-0.3048 0.1016 0.3048 0.1016 0.4572 0 0.6604-0.4064 1.6764-0.3556 1.016-0.762 1.8288-0.2032 0.4572-0.8128 1.6764-0.6096 1.1684-1.3208 2.6924-0.7112 1.4732-1.2192 2.9464-0.4572 1.4224-0.4572 2.4384 0 1.3208 1.016 1.3208 0.762 0 1.6764-0.9652 0.9144-1.016 1.778-2.4384 0.9144-1.4732 1.6256-2.8448 0.762-1.4224 1.1684-2.2352 0.2032-0.508 0.5588-0.508 0.2032 0 0.2032 0.3556 0 0.2032-0.1524 0.6096-0.5588 1.1684-1.3208 2.6416t-1.7272 2.8956q-0.9144 1.4224-2.032 2.4892-1.0668 1.016-2.3368 1.3208-0.1524 0.0508-0.5588 0.0508z"/>
        <path d="m199.02 121.24q-1.1684 0-2.3876-0.1524-3.2004-0.4064-4.7244-1.8796-1.4732-1.524-1.4732-3.2512 0-1.8796 1.6256-3.4036 1.6764-1.524 4.7244-1.524 2.032 0 4.4196 0.8128 1.016 0.3048 2.4892 1.0668 1.524 0.7112 2.9972 1.4732t2.286 1.2192q2.2352-2.1844 4.1148-5.0292 1.9304-2.8956 3.6576-6.1468 1.7272-3.302 3.5052-6.6548 1.778-3.3528 3.7084-6.5024 1.9812-3.2004 4.3688-5.842-2.6416-1.6256-5.842-2.4892-3.1496-0.9144-6.5024-0.9144-1.27 0-2.5908 0.1524-1.27 0.1524-2.5908 0.4064-4.7244 1.016-7.9756 3.2512-3.2512 2.1844-4.9276 4.826-1.6256 2.5908-1.6256 4.9276 0 1.7272 0.9144 3.048t2.794 1.8796q1.3716 0.4064 2.3876 0.4064 1.6764 0 2.8956-0.6604 1.27-0.7112 2.1336-1.7272t1.27-1.9812q0.4572-0.9652 0.508-1.5748 0-0.3556 0.4572-0.3556 0.7112 0 0.5588 0.8636-0.254 2.032-1.524 3.556-1.27 1.4732-3.048 2.3368-1.778 0.8128-3.6576 0.8128-1.2192 0-2.54-0.4064-2.3368-0.8128-3.9624-2.794-1.5748-2.032-1.5748-4.7752 0-2.6924 1.778-5.3848 1.8288-2.7432 5.7912-4.9276t10.363-3.0988q2.1336-0.3048 4.318-0.3048 3.6068 0 7.0612 0.8636 3.5052 0.8636 6.604 2.4892l1.27-1.4732q0.4572-0.4064 1.27-1.016 0.8636-0.6096 1.7272-1.1684t1.27-0.7112q0.6604-0.254 1.0668-0.254 0.3048 0 0.3048 0.1524 0 0.3556-0.8128 0.8636-0.508 0.3556-0.9144 0.8128-0.4064 0.4064-0.6096 0.6604-0.762 1.0668-1.2192 1.7272-0.4064 0.6604-1.1176 1.7272 4.6736 3.0988 7.62 8.0264 2.9464 4.8768 2.9464 11.176 0 1.3208-0.1524 2.6924-0.3048 3.2512-1.778 5.8928t-3.8608 4.4704q-2.3368 1.8288-5.2324 2.794-2.8448 1.016-5.9944 1.016-1.1684 0-2.3368-0.1524-4.9784-0.6096-8.2296-1.6256-3.2004-0.9652-5.6388-2.032-4.6228 3.81-10.363 3.81zm25.705-1.524q4.064 0 7.1628-1.7272 3.1496-1.778 5.08-4.6228t2.286-6.1468q0.1524-1.2192 0.1524-2.4384 0-5.5372-2.3876-10.058-2.3368-4.572-6.1976-7.6708-2.2352 3.5052-4.6228 7.4168-2.3368 3.9116-4.7244 7.7724-2.3876 3.81-4.6736 7.0612-2.2352 3.2512-4.2164 5.3848-0.3556 0.3048-0.9144 0.9144-0.508 0.5588-1.0668 0.9144 2.3876 1.0668 5.4356 1.9304t7.1628 1.2192q0.4572 0.0508 0.762 0.0508 0.3556 0 0.762 0zm-26.822-0.0508q2.794 0.1524 5.2324-0.6604 2.4384-0.8636 4.5212-2.3876-1.8288-0.8636-3.7084-1.778-1.8796-0.9652-3.9624-1.7272-1.3716-0.4572-2.4384-0.4572-1.8796 0-2.8448 1.0668-0.9652 1.016-0.9652 2.286 0 1.3716 1.0668 2.4892 1.0668 1.0668 3.0988 1.1684z"/>
        <path d="m255.86 119.41q-0.5588 0.0508-1.27-0.254t-1.27-1.1176q-0.508-0.8128-0.508-2.286 0-1.2192 0.4572-2.9464-0.6096 0.9652-1.5748 2.3876-0.9652 1.3716-2.0828 2.4384-0.9652 0.9144-1.8288 1.3208t-1.5748 0.4064q-1.3208 0-2.1336-1.1684-0.8128-1.2192-0.8128-3.1496 0-2.032 1.016-4.6228t3.302-5.3848q1.4732-1.778 3.556-2.8448 2.1336-1.1176 4.1656-1.1176 1.1684 0 2.2352 0.4064 1.0668 0.3556 1.8796 1.2192 0.3556 0.3556 0.3556 0.8128 0 0.3048-0.254 0.508t-0.6604 0.1016q-0.5588-1.778-2.3876-1.778-0.8636 0-1.9812 0.5588-1.7272 0.9144-3.6068 2.9972-1.8288 2.0828-3.2004 4.318-0.2032 0.3048-0.6604 1.1684-0.4064 0.8636-0.8128 1.9304t-0.5588 2.0828q-0.0508 0.3048-0.0508 0.4572 0 0.1016 0 0.3556 0 1.6764 1.27 1.6764 1.524 0 3.4544-2.2352 1.3208-1.6256 2.3876-3.4036t2.1844-3.81q0.762-1.3716 1.4224-2.286t1.8796-0.9144q0.5588 0 1.1176 0.1524t1.1684 0.0508q-0.4064 0.4064-1.1176 1.524-0.6604 1.1176-1.4224 2.54t-1.3716 2.8956-0.8636 2.54q-0.0508 0.3048-0.1524 0.8636-0.0508 0.5588-0.0508 0.8128 0 1.4224 0.8128 1.4224t1.7272-0.9652q0.9652-0.9652 1.8796-2.3876t1.6764-2.8448q0.762-1.4732 1.2192-2.3876 0.2032-0.508 0.6096-0.508 0.254 0 0.254 0.3556 0 0.1524-0.1524 0.5588-0.6096 1.27-1.4732 2.8956-0.8636 1.5748-1.8796 3.0988-1.016 1.4732-2.1336 2.4892-1.0668 0.9652-2.1844 1.0668z"/>
        <path d="m265.26 119.26q-1.4224 0-2.54-0.9652-1.1176-1.016-1.1176-3.1496 0-1.6764 0.6096-4.1148 0.6604-2.4892 1.5748-5.1308 0.9652-2.6924 1.8796-4.8768h-2.6924q-0.3556 0-0.3556-0.508 0-0.254 0.1016-0.4572 0.1524-0.2032 0.4064-0.2032h3.048q0.8636-1.9304 1.8288-3.7592t1.8796-3.4544q1.1684-2.032 2.4892-3.048t2.286-1.016q0.762 0 1.27 0.6096 0.508 0.5588 0.508 1.7272 0 0.7112-0.3048 1.9812-0.3048 1.2192-0.9652 2.5908-0.3556 0.7112-1.016 2.032-0.6096 1.3208-1.2192 2.3368h2.4384q0.3556 0 0.3556 0.508 0 0.2032-0.1016 0.4572-0.1016 0.2032-0.3048 0.2032h-2.9972q-1.27 2.1844-2.8956 4.2672t-3.8608 4.1656q-0.1524 0.4572-0.4064 1.3208-0.2032 0.8636-0.4064 1.778-0.1524 0.8636-0.3048 1.4732-0.1016 0.6096-0.1016 0.6096-0.1524 0.6604-0.1524 1.2192 0 1.0668 0.508 1.5748 0.508 0.4572 1.1684 0.4572 0.4064 0 0.8128-0.1016 0.4064-0.1524 0.9144-0.508 1.778-1.27 3.0988-3.4544 1.3716-2.1844 2.3876-4.2164 0.3048-0.6096 0.6096-0.6096 0.2032 0 0.2032 0.3048 0 0.1524-0.1524 0.5588-1.1176 2.3368-1.8796 3.7592t-1.4732 2.3876q-0.7112 0.9144-1.6764 1.8288-0.7112 0.7112-1.6256 1.0668t-1.8288 0.3556zm4.0132-19.406h2.5908q0.7112-1.3208 1.3208-2.5908 0.6604-1.27 1.1684-2.54 0.3556-0.8128 0.6096-1.8288t0.254-1.5748q0-0.762-0.3556-0.762-0.254 0-0.762 0.4572-0.4572 0.4064-1.1684 1.4224-0.9144 1.27-1.8288 3.302-0.8636 1.9812-1.8288 4.1148zm-3.302 7.9756q1.4732-1.524 2.7432-3.2512 1.3208-1.7272 2.4384-3.556h-2.3876q-0.8128 1.8796-1.524 3.6576t-1.27 3.1496z"/>
        <path d="m276.59 119.46q-1.8796 0-3.4036-1.2192-1.4732-1.2192-1.4732-3.7084 0-2.286 1.1176-4.8768 1.1176-2.6416 2.8448-4.6228 1.4732-1.7272 3.302-2.8448t3.4544-1.1176q1.1176 0 1.9304 0.6096 0.8636 0.6604 0.8636 1.8796 0 1.27-0.9652 2.794t-2.7432 2.8448q-0.762 0.5588-1.9304 1.0668t-2.3368 0.8636q-1.1684 0.3048-1.9304 0.3048-0.254 0.6096-0.508 1.6256-0.2032 1.016-0.2032 2.0828 0 1.27 0.508 2.286t1.8796 1.016q1.6764 0 3.048-0.9652t2.4384-2.3876q1.0668-1.4732 1.778-2.9464 0.762-1.4732 1.2192-2.4892 0.3048-0.7112 0.8128-0.7112 0.254 0 0.254 0.254 0 0.2032-0.1524 0.508-0.7112 1.524-1.524 3.2512-0.8128 1.6764-1.9304 3.2004-1.1176 1.4732-2.6924 2.3876-1.524 0.9144-3.6576 0.9144zm-0.9144-8.9408q0.7112 0 2.3876-0.508 1.6764-0.5588 3.048-1.7272 1.3208-1.1684 2.032-2.54 0.7112-1.4224 0.7112-2.3876 0-1.1176-0.8128-1.1176-0.6096 0-1.6764 0.8128t-2.6416 2.7432q-0.9652 1.2192-1.8288 2.6416t-1.2192 2.0828z"/>
      </g>
    </clipPath>
    <clipPath id="clipPath10723">
      <g stroke-width="3.065" aria-label="Save Our Date">
        <path d="m23.758 123.93q-4.9784 0-9.144-1.4732-4.1148-1.4732-6.6548-4.318-2.54-2.8956-2.794-7.112-0.1016-1.7272 0.5588-3.81 0.6604-2.0828 1.8288-4.1148 1.2192-2.0828 2.8448-3.7084 1.6764-1.6764 3.556-2.54 0.1524-0.1016 0.4572-0.1524 0.3556-0.0508 0.508-0.0508 0.3048 0 0.3048 0.1524 0 0.254-0.762 0.8128-2.1336 1.6764-3.5052 3.8608-1.4224 2.1844-2.1336 4.6736t-0.7112 5.0292q0 2.9972 1.27 5.1816 1.3208 2.1336 3.5052 3.5052 2.1844 1.4224 4.9784 2.0828t5.842 0.6604q3.4036 0 6.7056-0.762 3.3528-0.762 6.096-2.1844 4.2164-2.2352 6.6548-5.5372 2.4892-3.302 2.4892-6.5532 0-1.7272-0.762-3.302-0.7112-1.5748-2.3368-2.8448-1.2192-0.9652-2.9972-1.8288-1.7272-0.8636-3.7084-1.6764-1.9304-0.8128-3.81-1.6256-1.8796-0.8636-3.302-1.8288-2.032-1.3716-2.9972-2.9464-0.9144-1.5748-0.9144-3.1496 0-1.8796 1.0668-3.6576 1.1176-1.778 2.9972-3.2004 1.9304-1.4732 4.318-2.286 2.0828-0.7112 4.5212-1.1176 2.4892-0.4064 4.8768-0.4064 1.9812 0 3.7592 0.3048 1.8288 0.254 3.2004 0.9652 1.7272 0.8128 2.6416 2.1844 0.9144 1.3208 0.9144 2.794 0 2.032-1.8288 3.556-0.6604 0.508-1.4732 0.9652-0.8128 0.4064-1.9304 0.7112-0.2032 0.0508-0.4572 0.0508-0.6096 0-0.6096-0.3556 0-0.2032 0.3048-0.4064 0.3556-0.254 1.016-0.3048 1.524-0.2032 2.286-1.1684 0.8128-0.9652 0.8128-2.2352 0-1.3208-0.9144-2.5908-0.8636-1.3208-2.6924-2.1844-1.8288-0.9144-4.6736-0.9144-1.6256 0-3.6068 0.3556-1.9304 0.3556-4.2164 1.1684-2.794 0.9652-4.6736 2.8448-1.8288 1.8796-1.8288 4.0132 0 1.3208 0.8636 2.6924 0.9144 1.3208 2.8956 2.54 1.6764 1.016 3.81 2.032 2.1336 0.9652 4.318 1.9812 2.1844 0.9652 3.9624 2.0828 2.794 1.7272 4.0132 3.7084t1.2192 4.064q0 2.4384-1.4732 4.9276-1.4224 2.4384-3.7592 4.6228-2.3368 2.1336-5.1308 3.81-3.2512 1.9304-7.366 2.9464-4.064 1.0668-8.2296 1.0668z"/>
        <path d="m65.16 119.41q-0.5588 0.0508-1.27-0.254t-1.27-1.1176q-0.508-0.8128-0.508-2.286 0-1.2192 0.4572-2.9464-0.6096 0.9652-1.5748 2.3876-0.9652 1.3716-2.0828 2.4384-0.9652 0.9144-1.8288 1.3208t-1.5748 0.4064q-1.3208 0-2.1336-1.1684-0.8128-1.2192-0.8128-3.1496 0-2.032 1.016-4.6228t3.302-5.3848q1.4732-1.778 3.556-2.8448 2.1336-1.1176 4.1656-1.1176 1.1684 0 2.2352 0.4064 1.0668 0.3556 1.8796 1.2192 0.3556 0.3556 0.3556 0.8128 0 0.3048-0.254 0.508t-0.6604 0.1016q-0.5588-1.778-2.3876-1.778-0.8636 0-1.9812 0.5588-1.7272 0.9144-3.6068 2.9972-1.8288 2.0828-3.2004 4.318-0.2032 0.3048-0.6604 1.1684-0.4064 0.8636-0.8128 1.9304t-0.5588 2.0828q-0.0508 0.3048-0.0508 0.4572 0 0.1016 0 0.3556 0 1.6764 1.27 1.6764 1.524 0 3.4544-2.2352 1.3208-1.6256 2.3876-3.4036t2.1844-3.81q0.762-1.3716 1.4224-2.286t1.8796-0.9144q0.5588 0 1.1176 0.1524t1.1684 0.0508q-0.4064 0.4064-1.1176 1.524-0.6604 1.1176-1.4224 2.54t-1.3716 2.8956-0.8636 2.54q-0.0508 0.3048-0.1524 0.8636-0.0508 0.5588-0.0508 0.8128 0 1.4224 0.8128 1.4224t1.7272-0.9652q0.9652-0.9652 1.8796-2.3876t1.6764-2.8448q0.762-1.4732 1.2192-2.3876 0.2032-0.508 0.6096-0.508 0.254 0 0.254 0.3556 0 0.1524-0.1524 0.5588-0.6096 1.27-1.4732 2.8956-0.8636 1.5748-1.8796 3.0988-1.016 1.4732-2.1336 2.4892-1.0668 0.9652-2.1844 1.0668z"/>
        <path d="m73.897 119.61q-1.5748 0-2.1844-0.8128t-0.6096-2.0828q0-1.3208 0.4572-2.9972 0.508-1.6764 1.0668-3.302-0.3556 0.508-0.7112 0.508-0.2032 0-0.3048-0.2032t0.0508-0.4572q0.254-0.4572 0.508-0.8636 0.254-0.4572 0.4572-0.9144 0.4064-0.8636 0.6604-2.032 0.3048-1.2192 0.3048-2.2352 0-0.8128-0.2032-1.3716t-0.6096-0.6604q0 0 0.508-0.1016 0.5588-0.1016 1.1684-0.2032t0.8128-0.1016q0.3048-0.0508 0.5588-0.0508 0.254-0.0508 0.4572-0.0508 0.508 0 0.6604 0.4064 0.2032 0.4064 0.1524 1.778-0.0508 1.27-0.508 3.0988-0.4572 1.778-0.9652 3.0988-0.6604 1.7272-1.2192 3.5052t-0.5588 2.9464q0 1.016 0.5588 1.3208 0.4064 0.1524 0.7112 0.1524 1.1684 0 2.286-1.1684 1.1684-1.1684 2.2352-3.0988 1.0668-1.9812 1.9812-4.2164-0.3556-0.7112-0.508-1.5748t-0.1524-1.6764q0-0.9652 0.254-1.8288 0.6096-2.032 1.6764-2.8956 1.1176-0.9144 1.8796-0.9144 0.9652 0 0.9652 0.8636 0 0.2032-0.1524 0.6096-0.1016 0.1016-0.1016 0.3048-0.3556 1.0668-1.0668 3.0988-0.6604 2.032-1.6764 4.4704-0.9652 2.3876-2.3368 4.6228-1.3208 2.1844-2.9464 3.6068t-3.556 1.4224z"/>
        <path d="m89.086 119.46q-1.8796 0-3.4036-1.2192-1.4732-1.2192-1.4732-3.7084 0-2.286 1.1176-4.8768 1.1176-2.6416 2.8448-4.6228 1.4732-1.7272 3.302-2.8448t3.4544-1.1176q1.1176 0 1.9304 0.6096 0.8636 0.6604 0.8636 1.8796 0 1.27-0.9652 2.794t-2.7432 2.8448q-0.762 0.5588-1.9304 1.0668t-2.3368 0.8636q-1.1684 0.3048-1.9304 0.3048-0.254 0.6096-0.508 1.6256-0.2032 1.016-0.2032 2.0828 0 1.27 0.508 2.286t1.8796 1.016q1.6764 0 3.048-0.9652t2.4384-2.3876q1.0668-1.4732 1.778-2.9464 0.762-1.4732 1.2192-2.4892 0.3048-0.7112 0.8128-0.7112 0.254 0 0.254 0.254 0 0.2032-0.1524 0.508-0.7112 1.524-1.524 3.2512-0.8128 1.6764-1.9304 3.2004-1.1176 1.4732-2.6924 2.3876-1.524 0.9144-3.6576 0.9144zm-0.9144-8.9408q0.7112 0 2.3876-0.508 1.6764-0.5588 3.048-1.7272 1.3208-1.1684 2.032-2.54 0.7112-1.4224 0.7112-2.3876 0-1.1176-0.8128-1.1176-0.6096 0-1.6764 0.8128t-2.6416 2.7432q-0.9652 1.2192-1.8288 2.6416t-1.2192 2.0828z"/>
        <path d="m124.49 122.35q-2.2352 0-4.2672-0.6604-3.048-0.9652-4.9276-4.1656-1.8288-3.2004-1.8288-7.4676 0-3.7084 1.524-7.6708-1.6256-1.1684-2.6924-2.7432-1.0668-1.5748-1.27-3.6576-0.0508-0.4064-0.0508-0.7112 0-0.3556 0-0.7112 0-3.5052 1.5748-6.2484 1.6256-2.7432 4.318-4.6228 2.6924-1.9304 6.0452-2.8956 3.3528-1.016 6.8072-1.016 3.4036 0 6.604 1.016t5.6896 3.1496q2.54 2.1336 3.9116 5.4356 1.4224 3.2512 1.2192 7.8232 2.0828-1.3716 3.9116-2.9464t2.794-3.4544q0.254-0.508 0.6604-0.508 0.3048 0 0.3048 0.3556 0 0.0508-0.0508 0.3048-0.0508 0.2032-0.1524 0.3556-1.4224 2.2352-3.302 4.2164t-4.3688 3.5052q-0.0508 1.1176-0.3556 2.54-0.254 1.3716-0.762 2.8956-0.9652 3.0988-3.0988 6.2484-2.0828 3.1496-4.9784 5.7912t-6.2992 4.2164q-3.4036 1.6256-6.9596 1.6256zm1.6764-18.847q4.2672 0 8.9916-1.2192 4.7752-1.27 8.9408-3.4544 0.1016-0.6604 0.1016-1.27 0-0.6604 0-1.27 0-4.1656-1.2192-7.112-1.1684-2.9972-3.2004-4.8768t-4.572-2.7432q-2.54-0.9144-5.2832-0.9144-2.9464 0-5.842 0.9652t-5.2324 2.794q-2.3368 1.778-3.7592 4.318-1.3716 2.54-1.3716 5.6896 0 0.9652 0.1524 1.9812 0.3048 2.3368 2.032 3.8608 0.7112-1.524 1.9304-3.4036 1.2192-1.9304 2.794-3.8608 1.6256-1.9812 3.4544-3.6068 1.8796-1.6256 3.8608-2.5908 2.032-1.016 4.064-1.016 0.8636 0 1.7272 0.2032 0.9144 0.2032 1.7272 0.7112 0.4064 0.254 0.4064 0.4572 0 0.1524-0.254 0.254-0.2032 0.1016-0.5588 0-0.6604-0.2032-1.4732-0.2032-1.8288 0-3.7084 1.1176-1.8796 1.0668-3.6576 2.8448-1.778 1.7272-3.302 3.7592-1.524 1.9812-2.6924 3.9116-1.1176 1.8796-1.7272 3.2004 3.0988 1.4732 7.6708 1.4732zm-1.27 17.628q2.8448 0 5.5372-1.4224 2.7432-1.4224 5.1308-3.8608 2.4384-2.4384 4.318-5.4356t2.9972-6.1468q0.3048-0.8636 0.5588-1.778 0.254-0.9652 0.3048-1.8288-4.1148 2.1844-8.7884 3.3528t-8.9408 1.1684q-4.7244 0-8.2296-1.3716-1.5748 4.0132-1.5748 7.874 0 2.794 1.016 5.0292t3.2004 3.3528q2.2352 1.0668 4.4704 1.0668z"/>
        <path d="m150 119.26q-0.5588 0-1.3716-0.254-0.762-0.254-1.3716-0.9144-0.5588-0.7112-0.5588-2.0828 0-1.3208 0.6096-2.54 0.6604-1.27 1.2192-2.4384-0.1524 0-0.3556-0.1016-0.1524-0.1016-0.1524-0.3048t0.1016-0.4064q0.2032-0.4064 0.4572-0.8636t0.4572-0.9652q0.762-1.5748 1.524-2.9972 0.762-1.4732 1.3208-2.5908t1.9304-1.1176h3.1496q-0.8636 0.6604-1.5748 1.4732-0.6604 0.762-1.6764 2.8448 0 0-0.3556 0.7112t-0.9144 1.8288q-0.508 1.0668-1.0668 2.1844-0.508 1.1176-0.8636 1.8796-0.6604 1.4224-0.8636 2.286-0.2032 0.8128-0.2032 1.524 0 1.6764 1.1176 1.6764 1.2192 0 2.9464-1.9812 1.4224-1.6764 2.794-4.0132t2.5908-4.826q1.27-2.4892 2.2352-4.4704 0.5588-1.1176 1.9812-1.1176h2.794q-0.762 0.6096-1.27 1.1684-0.508 0.508-1.016 1.4224-0.4572 0.8636-1.27 2.4892-0.6604 1.3716-1.4224 2.9464-0.7112 1.524-1.27 2.8956t-0.7112 2.2352q-0.0508 0.508-0.1016 0.762t-0.0508 0.5588q0 0.9652 0.3048 1.3716 0.3556 0.4064 0.8128 0.4064 1.2192 0 2.4384-1.3716 1.27-1.3716 2.3876-3.3528 1.1684-1.9812 1.9812-3.7592 0.3048-0.5588 0.5588-0.5588 0.3048 0 0.3048 0.3556 0 0.254-0.2032 0.6096-0.5588 1.2192-1.3716 2.794t-1.8288 3.0988-2.2352 2.54q-1.2192 0.9652-2.6416 0.9652-1.27 0-2.0828-0.9144-0.8128-0.9652-0.8128-2.6924 0-1.3716 0.508-2.9464-0.8636 1.524-1.9812 3.048t-2.3876 2.54q-1.27 0.9652-2.54 0.9652z"/>
        <path d="m172.65 119.31q-0.9652 0-1.9304-0.762-0.9652-0.8128-0.9652-2.5908 0-1.3716 0.6604-3.1496 0.6096-1.7272 1.6256-3.3528 1.0668-1.6256 1.524-2.6416 0.1524-0.4064 0.1524-0.7112 0-0.9144-1.1684-1.3208-1.1176-0.4064-2.9464-0.4572l-0.6096 1.6764q-0.5588 1.6256-1.5748 3.81-0.9652 2.1844-2.1844 4.2164-1.1684 2.032-2.4384 3.2512-0.1016 0.1016-0.254 0.1016-0.2032 0-0.254-0.254-0.1016-0.254 0.2032-0.6096 1.9812-2.6416 3.556-5.842 1.5748-3.2512 2.6416-6.604 1.1176-3.3528 1.6256-6.1976 0.1524-0.8128 0.5588-1.1684 0.4064-0.4064 0.8636-0.4064 0.6604 0 1.2192 0.6604 0.5588 0.6096 0.5588 1.778 0 0.2032-0.0508 0.4572 0 0.254-0.0508 0.508-0.2032 1.0668-1.2192 2.032-0.9652 0.9144-1.5748 1.3716 0.508 0.0508 1.0668 0.1016 0.5588 0 1.2192 0 2.3876 0 4.7244-0.3048 0.1016 0.3048 0.1016 0.4572 0 0.6604-0.4064 1.6764-0.3556 1.016-0.762 1.8288-0.2032 0.4572-0.8128 1.6764-0.6096 1.1684-1.3208 2.6924-0.7112 1.4732-1.2192 2.9464-0.4572 1.4224-0.4572 2.4384 0 1.3208 1.016 1.3208 0.762 0 1.6764-0.9652 0.9144-1.016 1.778-2.4384 0.9144-1.4732 1.6256-2.8448 0.762-1.4224 1.1684-2.2352 0.2032-0.508 0.5588-0.508 0.2032 0 0.2032 0.3556 0 0.2032-0.1524 0.6096-0.5588 1.1684-1.3208 2.6416t-1.7272 2.8956q-0.9144 1.4224-2.032 2.4892-1.0668 1.016-2.3368 1.3208-0.1524 0.0508-0.5588 0.0508z"/>
        <path d="m199.02 121.24q-1.1684 0-2.3876-0.1524-3.2004-0.4064-4.7244-1.8796-1.4732-1.524-1.4732-3.2512 0-1.8796 1.6256-3.4036 1.6764-1.524 4.7244-1.524 2.032 0 4.4196 0.8128 1.016 0.3048 2.4892 1.0668 1.524 0.7112 2.9972 1.4732t2.286 1.2192q2.2352-2.1844 4.1148-5.0292 1.9304-2.8956 3.6576-6.1468 1.7272-3.302 3.5052-6.6548 1.778-3.3528 3.7084-6.5024 1.9812-3.2004 4.3688-5.842-2.6416-1.6256-5.842-2.4892-3.1496-0.9144-6.5024-0.9144-1.27 0-2.5908 0.1524-1.27 0.1524-2.5908 0.4064-4.7244 1.016-7.9756 3.2512-3.2512 2.1844-4.9276 4.826-1.6256 2.5908-1.6256 4.9276 0 1.7272 0.9144 3.048t2.794 1.8796q1.3716 0.4064 2.3876 0.4064 1.6764 0 2.8956-0.6604 1.27-0.7112 2.1336-1.7272t1.27-1.9812q0.4572-0.9652 0.508-1.5748 0-0.3556 0.4572-0.3556 0.7112 0 0.5588 0.8636-0.254 2.032-1.524 3.556-1.27 1.4732-3.048 2.3368-1.778 0.8128-3.6576 0.8128-1.2192 0-2.54-0.4064-2.3368-0.8128-3.9624-2.794-1.5748-2.032-1.5748-4.7752 0-2.6924 1.778-5.3848 1.8288-2.7432 5.7912-4.9276t10.363-3.0988q2.1336-0.3048 4.318-0.3048 3.6068 0 7.0612 0.8636 3.5052 0.8636 6.604 2.4892l1.27-1.4732q0.4572-0.4064 1.27-1.016 0.8636-0.6096 1.7272-1.1684t1.27-0.7112q0.6604-0.254 1.0668-0.254 0.3048 0 0.3048 0.1524 0 0.3556-0.8128 0.8636-0.508 0.3556-0.9144 0.8128-0.4064 0.4064-0.6096 0.6604-0.762 1.0668-1.2192 1.7272-0.4064 0.6604-1.1176 1.7272 4.6736 3.0988 7.62 8.0264 2.9464 4.8768 2.9464 11.176 0 1.3208-0.1524 2.6924-0.3048 3.2512-1.778 5.8928t-3.8608 4.4704q-2.3368 1.8288-5.2324 2.794-2.8448 1.016-5.9944 1.016-1.1684 0-2.3368-0.1524-4.9784-0.6096-8.2296-1.6256-3.2004-0.9652-5.6388-2.032-4.6228 3.81-10.363 3.81zm25.705-1.524q4.064 0 7.1628-1.7272 3.1496-1.778 5.08-4.6228t2.286-6.1468q0.1524-1.2192 0.1524-2.4384 0-5.5372-2.3876-10.058-2.3368-4.572-6.1976-7.6708-2.2352 3.5052-4.6228 7.4168-2.3368 3.9116-4.7244 7.7724-2.3876 3.81-4.6736 7.0612-2.2352 3.2512-4.2164 5.3848-0.3556 0.3048-0.9144 0.9144-0.508 0.5588-1.0668 0.9144 2.3876 1.0668 5.4356 1.9304t7.1628 1.2192q0.4572 0.0508 0.762 0.0508 0.3556 0 0.762 0zm-26.822-0.0508q2.794 0.1524 5.2324-0.6604 2.4384-0.8636 4.5212-2.3876-1.8288-0.8636-3.7084-1.778-1.8796-0.9652-3.9624-1.7272-1.3716-0.4572-2.4384-0.4572-1.8796 0-2.8448 1.0668-0.9652 1.016-0.9652 2.286 0 1.3716 1.0668 2.4892 1.0668 1.0668 3.0988 1.1684z"/>
        <path d="m255.86 119.41q-0.5588 0.0508-1.27-0.254t-1.27-1.1176q-0.508-0.8128-0.508-2.286 0-1.2192 0.4572-2.9464-0.6096 0.9652-1.5748 2.3876-0.9652 1.3716-2.0828 2.4384-0.9652 0.9144-1.8288 1.3208t-1.5748 0.4064q-1.3208 0-2.1336-1.1684-0.8128-1.2192-0.8128-3.1496 0-2.032 1.016-4.6228t3.302-5.3848q1.4732-1.778 3.556-2.8448 2.1336-1.1176 4.1656-1.1176 1.1684 0 2.2352 0.4064 1.0668 0.3556 1.8796 1.2192 0.3556 0.3556 0.3556 0.8128 0 0.3048-0.254 0.508t-0.6604 0.1016q-0.5588-1.778-2.3876-1.778-0.8636 0-1.9812 0.5588-1.7272 0.9144-3.6068 2.9972-1.8288 2.0828-3.2004 4.318-0.2032 0.3048-0.6604 1.1684-0.4064 0.8636-0.8128 1.9304t-0.5588 2.0828q-0.0508 0.3048-0.0508 0.4572 0 0.1016 0 0.3556 0 1.6764 1.27 1.6764 1.524 0 3.4544-2.2352 1.3208-1.6256 2.3876-3.4036t2.1844-3.81q0.762-1.3716 1.4224-2.286t1.8796-0.9144q0.5588 0 1.1176 0.1524t1.1684 0.0508q-0.4064 0.4064-1.1176 1.524-0.6604 1.1176-1.4224 2.54t-1.3716 2.8956-0.8636 2.54q-0.0508 0.3048-0.1524 0.8636-0.0508 0.5588-0.0508 0.8128 0 1.4224 0.8128 1.4224t1.7272-0.9652q0.9652-0.9652 1.8796-2.3876t1.6764-2.8448q0.762-1.4732 1.2192-2.3876 0.2032-0.508 0.6096-0.508 0.254 0 0.254 0.3556 0 0.1524-0.1524 0.5588-0.6096 1.27-1.4732 2.8956-0.8636 1.5748-1.8796 3.0988-1.016 1.4732-2.1336 2.4892-1.0668 0.9652-2.1844 1.0668z"/>
        <path d="m265.26 119.26q-1.4224 0-2.54-0.9652-1.1176-1.016-1.1176-3.1496 0-1.6764 0.6096-4.1148 0.6604-2.4892 1.5748-5.1308 0.9652-2.6924 1.8796-4.8768h-2.6924q-0.3556 0-0.3556-0.508 0-0.254 0.1016-0.4572 0.1524-0.2032 0.4064-0.2032h3.048q0.8636-1.9304 1.8288-3.7592t1.8796-3.4544q1.1684-2.032 2.4892-3.048t2.286-1.016q0.762 0 1.27 0.6096 0.508 0.5588 0.508 1.7272 0 0.7112-0.3048 1.9812-0.3048 1.2192-0.9652 2.5908-0.3556 0.7112-1.016 2.032-0.6096 1.3208-1.2192 2.3368h2.4384q0.3556 0 0.3556 0.508 0 0.2032-0.1016 0.4572-0.1016 0.2032-0.3048 0.2032h-2.9972q-1.27 2.1844-2.8956 4.2672t-3.8608 4.1656q-0.1524 0.4572-0.4064 1.3208-0.2032 0.8636-0.4064 1.778-0.1524 0.8636-0.3048 1.4732-0.1016 0.6096-0.1016 0.6096-0.1524 0.6604-0.1524 1.2192 0 1.0668 0.508 1.5748 0.508 0.4572 1.1684 0.4572 0.4064 0 0.8128-0.1016 0.4064-0.1524 0.9144-0.508 1.778-1.27 3.0988-3.4544 1.3716-2.1844 2.3876-4.2164 0.3048-0.6096 0.6096-0.6096 0.2032 0 0.2032 0.3048 0 0.1524-0.1524 0.5588-1.1176 2.3368-1.8796 3.7592t-1.4732 2.3876q-0.7112 0.9144-1.6764 1.8288-0.7112 0.7112-1.6256 1.0668t-1.8288 0.3556zm4.0132-19.406h2.5908q0.7112-1.3208 1.3208-2.5908 0.6604-1.27 1.1684-2.54 0.3556-0.8128 0.6096-1.8288t0.254-1.5748q0-0.762-0.3556-0.762-0.254 0-0.762 0.4572-0.4572 0.4064-1.1684 1.4224-0.9144 1.27-1.8288 3.302-0.8636 1.9812-1.8288 4.1148zm-3.302 7.9756q1.4732-1.524 2.7432-3.2512 1.3208-1.7272 2.4384-3.556h-2.3876q-0.8128 1.8796-1.524 3.6576t-1.27 3.1496z"/>
        <path d="m276.59 119.46q-1.8796 0-3.4036-1.2192-1.4732-1.2192-1.4732-3.7084 0-2.286 1.1176-4.8768 1.1176-2.6416 2.8448-4.6228 1.4732-1.7272 3.302-2.8448t3.4544-1.1176q1.1176 0 1.9304 0.6096 0.8636 0.6604 0.8636 1.8796 0 1.27-0.9652 2.794t-2.7432 2.8448q-0.762 0.5588-1.9304 1.0668t-2.3368 0.8636q-1.1684 0.3048-1.9304 0.3048-0.254 0.6096-0.508 1.6256-0.2032 1.016-0.2032 2.0828 0 1.27 0.508 2.286t1.8796 1.016q1.6764 0 3.048-0.9652t2.4384-2.3876q1.0668-1.4732 1.778-2.9464 0.762-1.4732 1.2192-2.4892 0.3048-0.7112 0.8128-0.7112 0.254 0 0.254 0.254 0 0.2032-0.1524 0.508-0.7112 1.524-1.524 3.2512-0.8128 1.6764-1.9304 3.2004-1.1176 1.4732-2.6924 2.3876-1.524 0.9144-3.6576 0.9144zm-0.9144-8.9408q0.7112 0 2.3876-0.508 1.6764-0.5588 3.048-1.7272 1.3208-1.1684 2.032-2.54 0.7112-1.4224 0.7112-2.3876 0-1.1176-0.8128-1.1176-0.6096 0-1.6764 0.8128t-2.6416 2.7432q-0.9652 1.2192-1.8288 2.6416t-1.2192 2.0828z"/>
      </g>
    </clipPath>
  </defs>
  <g fill="none" stroke="#f6fa00" stroke-width="3">
    <path d="m248.77 105.87-1.709 2.1838-0.94948 1.6141-1.7091 5.1272 0.1899 1.899 0.18989 0.94948 1.1394 0.75959 1.899-0.18989 1.0444-0.3798 1.6141-1.5192 1.804-2.4687 1.9939-2.9434 5.1272-7.406-3.5131 6.2666s-0.66464 1.5192-0.85454 2.0889c-0.1899 0.56969-0.3798 1.1394-0.47475 1.5192-0.095 0.3798-0.47474 1.804-0.47474 1.804s-0.095 0.28485 0 0.66465c0.0949 0.37979 0.47474 1.3293 0.47474 1.3293v0.66464l0.7596 0.56969h0.75958l1.0444-0.0949 1.5192-1.0444 1.804-2.3737 1.3293-2.3737 2.4687-3.0384 1.5192-1.3293 1.0444-0.3798 3.1333-3.8929 2.6586-4.1777 2.3737-5.1272 1.0444-3.1333-0.47474-1.3293-1.3293-0.75959-1.4242 1.804-2.0889 3.0384s-0.37981 0.66464-0.75959 1.4242c-0.37981 0.75959-1.2343 2.3737-1.2343 2.3737s-1.0444 1.2343-1.2343 1.7091c-0.18989 0.47474-1.0444 3.0384-1.0444 3.0384l-0.5697 1.4242-0.94948 2.2788s-0.56969 0.85454-0.75959 1.7091-0.75959 3.2283-0.75959 3.4182c0 0.18989-0.0949 2.0889-0.0949 2.0889l-0.0949 2.3737v1.1394l0.0949 1.1394 0.66464-0.28485 1.3293 0.47474s1.1394 0.0949 1.7091 0c0.56968-0.0949 2.4687-1.9939 2.4687-1.9939s0.75959-1.1394 1.0444-1.5192c0.28483-0.37979 2.0889-2.6586 2.0889-2.6586l1.804-1.2343 1.5192-0.18989 1.9939-0.28485 1.804-0.85454 2.9434-1.9939 1.0444-1.6141 0.28485-0.94949 0.28485-0.56969 0.095-0.47474v-0.75959s0.0949 0.18989 0-0.3798c-0.095-0.56969-0.5697-0.94949-0.5697-0.94949l-0.85453-0.56969-1.5192 0.3798-1.2343 0.75959-0.94951 0.85454-0.75959 0.56969" clip-path="url(#clipPath10723)"/>
    <path d="m278.49 104.06-1.8041 2.0888-0.94948 1.5192-1.0444 0.94948-1.1394 5.507-0.37978 1.899 0.18989 0.85454 0.5697 0.94949 0.66464 0.47475 1.4242 0.56969 1.899 0.0949 2.2788-0.75959 1.7091-1.5192 1.1394-1.3293 0.85455-1.6141 0.85452-1.3293 1.0444-2.2788 0.47475-1.0444 6.1717-11.489-15.667-17.755-11.204 11.394s-3.608 7.7858-3.7979 8.2605c-0.1899 0.47474 1.3293 1.0444 1.3293 1.0444h3.1333l4.5575-0.095 4.3677 0.095h1.9939" clip-path="url(#clipPath10697)"/>
    <path d="m7.501 107.39 1.4242-4.1778 1.5192-2.2788 1.4242-1.899 1.0444-0.85454 1.5192-0.94949 0.56969-0.1899-7.2161-4.1777-5.6969 17.66 11.774 19.085 28.39-6.9313 9.8747-12.628 8.4504-16.331 8.4504 10.16-2.1838-1.899-2.6586-0.37979-1.7091 0.66464-1.0444 0.75959-2.7535 1.9939-1.2343 1.1394-0.94949 0.94949-0.47474 1.0444-0.75959 1.899-1.4242 3.0384v2.1838l0.3798 1.804 0.1899 1.1394 0.94949 0.47474h0.85454l0.75959-0.28485 1.2343-0.66464 2.1838-1.9939 1.7091-2.6586 2.5636-2.6586 4.3676-6.5515-5.4121 10.634-0.56969 2.9434 1.4242 0.85454 1.7091 0.47474 0.66464-0.75959 1.804-1.5192 1.9939-2.8485 1.0444-2.2788 1.9939-3.0384 1.4242-1.804-0.1899-5.4391-0.85454 8.6673-1.4242 4.5575s-0.1899 1.5192-0.1899 1.899c0 0.3798 0.47474 2.2788 0.47474 2.2788l2.0889 0.0949 1.7091-0.66464 1.804-1.1394 0.66464-1.3293 0.85454-1.5192 1.0444-1.1394 0.66464-1.7091 0.56969-1.3293 0.56969-1.899 0.56969-1.3293s0.1899-0.47474 0.1899-1.0444c0-0.56969 0.1899-1.7091 0.1899-1.7091l0.28484-0.94949 0.1899-1.2343-1.4242 1.0444-0.56969 1.7091c-0.28485 0.85454-0.47474 2.3737-0.47474 2.3737v1.6141l0.75959 7.5959 1.6141-5.7919 3.6081 0.85454 3.4182-0.75959 2.4687-1.3293 1.804-1.6141 1.0444-1.5192 0.28484-2.1838-0.1899-1.4242-1.6141-0.47474h-1.2343l-0.94949 0.85454-1.0444 1.1394s-0.66464 0.28485-1.3293 1.0444c-0.66464 0.75959-0.1899 0.3798-0.94949 1.2343-0.75959 0.85454-1.3293 1.3293-1.3293 1.3293l-1.6141 3.703-0.94949 2.3737 0.28484 2.1838 0.09495 1.804 1.3293 1.2343 1.7091 0.3798 1.9939-0.3798 1.804-0.56969 1.6141-1.3293 1.2343-1.5192 0.66464-0.94948 0.3798-1.1394 1.4242-2.7535 0.37979-1.1394 9.21-8.1656-2.7535-12.723 34.466 0.94949-4.0828-2.2788-1.9939-0.1899h-2.7535l-1.9939 1.1394-4.8424 4.2727-4.0828 5.4121-3.1333 5.7919-1.3293 6.9313 0.28485 4.4626 1.2343 3.608 3.3232 2.5636 3.1333 0.66465h2.8485l3.6081-0.5697 4.6525-2.7535 4.1778-4.1778 4.4626-6.7414 2.1838-7.406 0.56969-7.3111-1.9939-5.602-1.7091-1.5192-1.9939-1.9939-2.7535-1.7091-3.703-1.4242-4.9373-0.28484-5.4121 1.2343s-3.6081 1.6141-3.9878 1.804c-0.3798 0.1899-3.8929 2.9434-3.8929 2.9434l-2.2788 3.5131-0.94949 3.5131 0.1899 3.0384 1.1394 3.1333s1.4242 1.6141 1.9939 2.0889c0.56969 0.47475 4.0828 2.1838 4.0828 2.1838l5.8868 1.2343 6.0767-0.47475s4.5575-1.1394 5.1272-1.2343c0.5697-0.095 5.8868-2.5636 5.8868-2.5636l5.6969-2.9434 2.9434-2.4687 1.5192-1.6141 1.899-2.4687 1.3293-1.4242-2.0889 13.103-2.2788 4.5576-2.3737 5.4121-0.75959 4.0828 1.4242 2.531 2.8485-1.4866 1.5192-1.804 3.3232-4.6525 2.2788-3.3232 4.4991-7.6948-5.7335 11.873-0.66464 3.9878 0.095 1.4242 1.0444 1.0444 2.2788-0.47474 1.7091-1.5192 2.3737-3.4182 1.899-3.8929 2.3737-6.3616 2.0889-1.7091 1.2343-1.804 0.0949-1.5192-0.94949-0.85454-0.94948 0.47474-0.5697 3.5131-0.28485 2.5636 2.3737 0.1899h2.4687l1.0444-0.0949-0.66464 2.0889s-0.94949 1.5192-1.0444 1.9939c-0.0949 0.47475-1.7091 3.1333-1.7091 3.1333l-0.85455 2.1838s-0.56969 1.2343-0.66464 1.6141c-0.0949 0.37979 0.0949 2.9434 0.0949 2.9434l0.85454 0.5697 1.1394 0.18989 1.0444-0.18989 1.3293-0.94949 1.3293-1.6141 1.0444-1.804 1.1394-2.1838 1.4242-2.4687 9.7797-24.687 15.002-9.21 41.113-7.1212-9.8747 11.109-3.703 2.4687-2.7535 3.703-4.4626 6.3616-6.0767 11.014-3.4182 5.0323-4.3676 6.1717-3.703 3.4182-3.4182 1.899-3.9878 0.94949-4.6525-0.1899-2.9434-1.2343s-1.1394-1.0444-1.2343-1.804c-0.095-0.75959-0.47474-2.4687-0.18989-2.6586 0.28484-0.1899 1.899-1.7091 1.899-1.7091l2.2788-0.66464 1.804-0.47474s-0.0949 0.47474 1.2343 0.56969c1.3293 0.0949 2.9434 0.75959 2.9434 0.75959l1.9939 1.0444 2.7535 1.3293 2.5636 1.2343 2.0889 0.94948 5.7919 2.0889 5.7919 0.85454 5.3171-0.0949 5.4121-1.6141 3.8929-3.6081 3.1333-5.602 0.3798-2.7535-0.28485-5.6969-0.85454-3.9878-2.0889-4.4626-4.9373-5.6969-3.8929-2.3737-4.7474-2.4687-6.9313-0.94949-5.0323 0.1899-6.1717 1.4242-6.1717 3.5131-3.2283 3.3232-1.7091 3.9879 0.75959 3.8929 0.66464 1.5192 3.0384 2.2788 1.899 0.28485 1.899 0.18989 2.8485-1.1394 2.6586-2.3737 0.75959-1.6141 0.1899-1.7091 52.127-11.109-2.4687 19.654-1.2343-1.1394-2.7535-0.66464s-1.0444 0.28484-1.804 0.66464c-0.7596 0.37979-2.9434 1.6141-2.9434 1.6141l-1.2343 0.85454s-0.47475 0.75959-0.66465 1.0444" clip-path="url(#clipPath10671)"/>
    <path d="m43.487 87.163 3.9879 1.899 3.2283-1.4242 1.1394-1.6141 0.09495-1.6141-0.66464-2.6586-2.5636-2.0889-1.6141-0.75959-3.4182-0.66464-4.7474 0.47474-4.5575 1.2343-3.5131 1.3293-3.0384 3.0384-1.3293 3.4182 0.28485 2.2788 3.5131 3.2283 1.7091 1.3293 4.7474 1.9939 5.602 2.7535 4.0828 3.5131 1.1394 2.3737-0.09495 4.3676-2.7535 4.5576-3.3232 3.2283-4.5575 3.0384-3.5131 1.2343-3.9879 1.2343-3.9878 0.3798-4.6525-0.1899-4.2727-0.85454-3.798-1.6141-2.9434-2.0889-2.3737-3.2283 0.1899-7.8808" clip-path="url(#clipPath10645)"/>
  </g>
</svg>
