<?xml version="1.0" encoding="UTF-8" standalone="no"?>
<!-- Created with Inkscape (http://www.inkscape.org/) -->

<svg
   width="210mm"
   height="297mm"
   viewBox="0 0 210 297"
   version="1.1"
   id="svg5"
   inkscape:version="1.1.2 (b8e25be833, 2022-02-05)"
   sodipodi:docname="green-octagon-frame.svg"
   xmlns:inkscape="http://www.inkscape.org/namespaces/inkscape"
   xmlns:sodipodi="http://sodipodi.sourceforge.net/DTD/sodipodi-0.dtd"
   xmlns="http://www.w3.org/2000/svg"
   xmlns:svg="http://www.w3.org/2000/svg">
  <sodipodi:namedview
     id="namedview7"
     pagecolor="#505050"
     bordercolor="#ffffff"
     borderopacity="1"
     inkscape:pageshadow="0"
     inkscape:pageopacity="0"
     inkscape:pagecheckerboard="1"
     inkscape:document-units="mm"
     showgrid="false"
     inkscape:zoom="0.70710678"
     inkscape:cx="463.86205"
     inkscape:cy="356.38182"
     inkscape:window-width="1920"
     inkscape:window-height="986"
     inkscape:window-x="-11"
     inkscape:window-y="-11"
     inkscape:window-maximized="1"
     inkscape:current-layer="layer2" />
  <defs
     id="defs2" />
  <g
     inkscape:groupmode="layer"
     id="layer2"
     inkscape:label="Layer 2">
    <path
       style="opacity:1;vector-effect:none;fill:#ffffff;fill-opacity:1;stroke:none;stroke-width:4.14292;stroke-linecap:butt;stroke-linejoin:miter;stroke-miterlimit:4;stroke-dasharray:none;stroke-dashoffset:0;stroke-opacity:1"
       d="m 344.50732,714.18224 c -4.73698,-0.97004 -20.88576,-6.11652 -35.88618,-11.43661 l -27.2735,-9.67292 -29.89569,-29.66139 C 235.00932,647.09754 218.68776,629.77636 215.18182,624.9198 211.67588,620.06322 202.35916,602.72901 194.478,586.3993 l -14.32938,-29.69036 0.01,-35.40503 c 0.0124,-46.18419 1.6839,-56.14359 16.54207,-98.56472 l 11.06097,-31.57984 21.00331,-21.23862 c 28.77883,-29.10125 44.45479,-40.03341 86.23644,-60.1399 l 32.23872,-15.51416 h 25.40922 c 21.80275,0 28.84164,0.60579 49.59221,4.2681 20.45997,3.61101 29.15526,6.04984 56.48055,15.84153 l 32.29756,11.57343 16.9605,16.81489 c 25.33599,25.11848 41.92047,49.35873 60.80467,88.87346 l 14.82117,31.01299 v 28.18931 c 0,38.79581 -3.53239,58.74095 -17.55618,99.12841 l -10.21787,29.42666 -25.94662,26.32806 c -32.47595,32.95331 -44.13831,41.48776 -79.48832,58.16899 l -26.26818,12.39564 -45.50418,-0.17111 c -29.69017,-0.11168 -48.49733,-0.78404 -54.11686,-1.93479 z"
       id="path5410"
       transform="scale(0.26458333)"
       inkscape:export-filename="E:\Ziya Invites\assets\frames\path2384.png"
       inkscape:export-xdpi="96"
       inkscape:export-ydpi="96" />
    <path
       style="opacity:1;vector-effect:none;fill:#ffffff;fill-opacity:1;stroke:none;stroke-width:1.46474;stroke-linecap:butt;stroke-linejoin:miter;stroke-miterlimit:4;stroke-dasharray:none;stroke-dashoffset:0;stroke-opacity:1"
       d="m 274.65295,702.71926 -5.99854,-1.09054 -3.00971,-4.1943 c -1.65535,-2.30687 -3.00972,-4.27541 -3.00972,-4.37455 0,-0.0991 3.1402,0.93712 6.97823,2.30277 6.61134,2.35246 7.13805,2.64249 10.01819,5.51644 3.50087,3.49334 3.70327,3.41853 -4.97845,1.84018 z"
       id="path6273"
       transform="scale(0.26458333)"
       inkscape:export-filename="E:\Ziya Invites\assets\frames\path2384.png"
       inkscape:export-xdpi="96"
       inkscape:export-ydpi="96" />
    <path
       style="opacity:1;vector-effect:none;fill:#ffffff;fill-opacity:1;stroke:none;stroke-width:1.46474;stroke-linecap:butt;stroke-linejoin:miter;stroke-miterlimit:4;stroke-dasharray:none;stroke-dashoffset:0;stroke-opacity:1"
       d="m 400.16944,741.73114 c -2.26578,-0.8679 -22.08206,-7.95106 -28.42041,-10.15863 -2.65172,-0.92357 -9.37788,-3.29989 -14.94702,-5.28072 l -10.12571,-3.60152 h -22.60088 -22.60089 l -5.91224,-5.89684 -5.91224,-5.89683 -11.09687,-1.93074 c -6.10329,-1.0619 -11.59984,-2.00529 -12.21458,-2.0964 -0.79198,-0.11739 -2.86852,-2.66637 -7.12566,-8.74686 l -6.00796,-8.58119 -9.94123,-3.53584 -9.94123,-3.53583 -12.80019,-26.96103 -12.80019,-26.96103 -16.69671,-16.75054 -16.6967,-16.75053 v -8.55213 -8.55212 l -6.15127,-8.62573 c -3.3832,-4.74415 -6.26376,-9.05587 -6.40124,-9.58159 -0.13748,-0.52572 0.4965,-5.46942 1.40884,-10.98599 l 1.65881,-10.03014 -2.67077,-5.58258 c -4.77429,-9.97952 -6.11463,-12.9363 -6.11463,-13.48884 0,-0.29872 4.09693,-12.11633 9.10429,-26.26136 l 9.10428,-25.71823 0.15772,-26.49451 0.15772,-26.49451 7.13605,-7.25472 7.13605,-7.25472 1.43786,-9.03497 1.43785,-9.03497 8.68134,-6.19025 8.68134,-6.19024 3.54486,-10.02327 c 1.94967,-5.5128 3.69095,-10.02327 3.86952,-10.02327 0.17856,0 4.17864,-1.85066 8.88907,-4.11256 4.71042,-2.26191 10.16305,-4.86441 12.11696,-5.78333 1.9539,-0.91892 6.74984,-3.20232 10.65765,-5.07421 3.9078,-1.87189 8.47537,-4.047 10.15014,-4.83358 2.64776,-1.24356 5.69327,-4.084 23.34295,-21.77118 l 20.29791,-20.34102 h 11.61748 11.61747 l 6.82484,-4.8736 6.82483,-4.87361 10.39159,1.79027 10.39159,1.79026 9.51193,-4.53661 9.51191,-4.53661 14.43731,5.12218 c 7.94052,2.81719 17.63461,6.24612 21.54241,7.61984 l 7.1051,2.49767 30.19154,1.1e-4 30.19153,1e-4 8.99971,8.98929 8.99971,8.98929 8.19457,1.39079 c 4.50701,0.76494 8.24642,1.4586 8.3098,1.54149 0.0634,0.0829 2.77405,3.91893 6.02373,8.52456 l 5.9085,8.37387 10.00926,3.62232 10.00927,3.62232 9.66223,20.41451 9.66223,20.41451 20.66179,20.87756 20.66179,20.87755 0.0191,12.18503 0.0191,12.18502 5.58258,7.83365 c 3.07042,4.30851 5.57678,8.07457 5.56969,8.36902 -0.007,0.29445 -0.79891,4.98874 -1.7596,10.43176 l -1.74669,9.89639 4.54239,9.54777 4.5424,9.54778 -8.36538,23.61248 -8.36539,23.61247 v 26.46608 26.46607 l -7.7904,7.87214 -7.7904,7.87213 -1.64621,9.89639 c -0.90542,5.44301 -1.76302,10.40759 -1.90578,11.03238 -0.16957,0.74216 -2.46466,2.67759 -6.61998,5.58258 -11.79347,8.24485 -10.55794,6.72267 -14.3403,17.66728 -2.70253,7.82002 -3.52813,9.6743 -4.56756,10.2587 -0.69783,0.39234 -11.9407,5.78599 -24.98416,11.9859 l -23.71539,11.27256 -17.05528,16.85102 -17.05527,16.85102 h -9.14805 -9.14805 l -3.11579,2.18757 c -1.71369,1.20315 -6.2518,4.40045 -10.08471,7.1051 -3.83291,2.70464 -7.37278,4.92269 -7.86636,4.92899 -0.4936,0.006 -5.26459,-0.72894 -10.60222,-1.63389 l -9.70477,-1.64534 -9.23528,4.42517 c -5.0794,2.43385 -9.619,4.40909 -10.088,4.38942 -0.46901,-0.0197 -1.65206,-0.34193 -2.62901,-0.71615 z m 7.73363,-7.45656 c 2.43915,-1.1674 4.37226,-2.18512 4.29579,-2.26159 -0.23146,-0.23146 -42.08505,-7.34915 -42.24922,-7.18498 -0.24942,0.24942 31.39868,11.46595 32.50358,11.51973 0.55826,0.0272 3.01069,-0.90576 5.44985,-2.07316 z m 37.39932,-5.59084 c 2.11282,-1.44879 4.8692,-3.41188 6.12528,-4.36242 l 2.28378,-1.72825 -4.82132,0.20898 c -4.72994,0.20502 -4.9463,0.27055 -11.41554,3.45753 l -6.59423,3.24855 4.5642,0.83758 c 2.51031,0.46067 4.89093,0.86786 5.29027,0.90488 0.39934,0.037 2.45475,-1.11806 4.56756,-2.56685 z m -18.48882,-3.44474 5.07507,-2.46726 -19.79278,0.007 -19.79278,0.007 13.44894,2.42422 c 7.39691,1.33332 14.01988,2.4406 14.71771,2.46064 0.69782,0.02 3.55255,-1.07385 6.34384,-2.43085 z m 38.48358,-10.69433 c 2.42043,-1.68878 4.40078,-3.16576 4.40078,-3.28217 0,-0.23198 -8.17689,3.51484 -11.41892,5.23238 l -2.03003,1.07546 2.3237,0.0224 c 2.03612,0.0196 2.86831,-0.35756 6.72447,-3.04809 z m 23.69093,-6.90508 c 6.39137,-6.4457 8.99359,-9.34384 7.35397,-8.19022 -1.39564,0.98197 -5.73483,4.05217 -9.64263,6.82267 -3.90781,2.7705 -8.98922,6.35763 -11.29204,7.97141 -2.30281,1.61379 -4.18693,3.03261 -4.18693,3.15295 0,0.12034 1.77213,0.2188 3.93806,0.2188 h 3.93806 z m -164.69097,9.20525 c -0.27913,-0.10049 -5.41764,-1.00908 -11.41891,-2.0191 -6.00128,-1.01001 -11.48235,-1.96649 -12.18018,-2.12549 -1.12808,-0.25706 -1.01788,-0.0287 0.99381,2.05917 l 2.26257,2.34827 10.42511,-0.04 c 5.73381,-0.022 10.19673,-0.12229 9.9176,-0.22278 z M 470.98832,704.1913 c 24.28065,-11.55623 27.8287,-13.39809 33.69299,-17.49073 17.77183,-12.40281 16.4288,-11.22293 44.32106,-38.93685 l 26.38026,-26.21157 3.43498,-9.69742 c 1.88923,-5.33358 6.677,-18.83255 10.63948,-29.99771 5.36492,-15.11682 7.44329,-21.66095 8.13963,-25.62911 0.51432,-2.93086 2.08997,-12.07695 3.50146,-20.32464 l 2.56634,-14.99581 0.0232,-29.69314 0.0232,-29.69314 -14.62626,-30.68769 -14.62624,-30.68771 -6.80733,-9.6308 c -3.74404,-5.29695 -8.99574,-12.71392 -11.67046,-16.48216 -2.67472,-3.76824 -6.15238,-8.67838 -7.72815,-10.91141 -1.90062,-2.69338 -8.55722,-9.71538 -19.77516,-20.86064 l -16.91014,-16.80057 -8.12011,-2.82517 c -4.46607,-1.55384 -13.03025,-4.57772 -19.03152,-6.71973 -6.00128,-2.14201 -13.081,-4.65025 -15.73273,-5.57387 -2.65172,-0.92361 -9.04631,-3.19415 -14.2102,-5.04563 -8.75231,-3.1381 -10.36955,-3.53685 -23.85284,-5.88116 -7.95517,-1.38315 -19.05998,-3.31596 -24.67734,-4.29514 l -10.21338,-1.78033 h -23.877 -23.87699 l -32.13931,15.29309 c -30.23685,14.38783 -32.54488,15.57995 -38.99067,20.13903 -8.83199,6.24684 -13.44966,9.50624 -21.56905,15.22462 -5.90036,4.15555 -8.75137,6.80612 -26.97782,25.08124 l -20.38022,20.43464 -11.27184,31.7192 -11.27183,31.7192 -2.59197,13.95645 -2.59197,13.95644 -0.15494,38.19224 -0.15494,38.19222 6.93908,14.58853 c 3.8165,8.02368 7.90704,16.64392 9.0901,19.15608 11.31307,24.02276 11.06627,23.56173 17.73233,33.12534 5.49505,7.88361 5.94168,8.36174 35.96469,38.50137 l 30.40053,30.51863 11.74099,4.16811 c 6.45755,2.29247 19.16329,6.81244 28.23498,10.04439 15.58935,5.55397 17.0646,5.97914 26.89788,7.75183 l 10.4039,1.87555 43.28238,0.0652 43.28238,0.0652 z m -168.26027,2.90917 c -0.41869,-0.15646 -3.61599,-1.28864 -7.1051,-2.51597 l -6.34384,-2.23152 1.64903,1.6679 c 1.40395,1.42001 2.30907,1.79187 6.09009,2.50202 4.53778,0.85229 7.15298,1.11682 5.70982,0.57757 z m -20.76331,-4.11987 c -0.7068,-1.32067 -4.25271,-4.43878 -6.18274,-5.43684 -2.18679,-1.13084 -12.81166,-4.79343 -13.09202,-4.51307 -0.18668,0.18668 2.92475,4.93536 5.19515,7.92887 0.64285,0.84759 9.29198,2.79171 12.91109,2.90209 1.46654,0.0447 1.60721,-0.0613 1.16852,-0.88105 z M 265.6642,686.78414 c -3.95885,-4.33639 -20.2158,-20.65246 -22.53588,-22.61783 -3.03116,-2.56775 -3.17189,-2.81291 5.48128,9.54952 7.71344,11.01989 7.7009,11.00448 9.61778,11.82033 1.63518,0.69596 8.53043,3.11423 8.94785,3.13815 0.12454,0.007 -0.55543,-0.84344 -1.51103,-1.89017 z m -18.5646,-5.83634 c -1.35206,-2.31772 -21.78543,-31.11821 -24.03442,-33.8761 -0.7955,-0.97551 -0.67747,-0.46893 0.51064,2.19169 3.65092,8.17577 13.25068,28.04224 13.82168,28.60364 0.46876,0.46088 8.98465,3.64271 9.91534,3.70471 0.0863,0.006 -0.01,-0.27503 -0.21324,-0.62394 z m 297.32834,-11.71208 c 4.39604,-2.11128 9.99131,-4.7751 12.43392,-5.91959 l 4.44112,-2.08091 1.6494,-4.71157 c 0.90717,-2.59135 1.6494,-4.85908 1.6494,-5.03938 0,-0.1803 -2.45507,1.42267 -5.45571,3.56216 -5.51939,3.93539 -7.38636,5.25471 -21.3153,15.06279 -4.25672,2.99737 -7.73949,5.53936 -7.73949,5.64885 0,0.25446 4.28923,-1.69689 14.33666,-6.52235 z m -303.61577,-7.63793 c 0,-0.10538 -0.39966,-0.50504 -0.88813,-0.88814 -0.80494,-0.63127 -0.82289,-0.61332 -0.19162,0.19162 0.66299,0.84538 1.07975,1.11422 1.07975,0.69652 z m 320.56087,-14.9553 6.66765,-4.65658 1.34061,-3.61675 c 0.73733,-1.98922 1.26611,-3.69126 1.17507,-3.7823 -0.091,-0.091 -4.49409,4.20572 -9.78454,9.54837 -5.29045,5.34265 -8.81967,9.14014 -7.84272,8.43887 0.97695,-0.70127 4.77672,-3.3705 8.44393,-5.93161 z m 19.72272,-13.97274 c 1.9539,-1.39326 3.61006,-2.56756 3.68035,-2.60958 0.23131,-0.13826 2.19634,-11.53769 2.01937,-11.71466 -0.0951,-0.0951 -1.66952,1.36214 -3.49868,3.23835 -3.03558,3.11364 -3.48701,3.86846 -5.17405,8.65126 -1.01657,2.88199 -1.84831,5.35054 -1.84831,5.48566 0,0.33266 0.67558,-0.0949 4.82132,-3.05103 z m 8.56168,-30.00493 c 0.49194,-3.07042 0.99629,-6.15353 1.12078,-6.85135 0.26557,-1.4887 -0.82383,1.3111 -4.04815,10.4039 l -2.3395,6.59759 2.18621,-2.28378 c 2.11813,-2.21266 2.21407,-2.45764 3.08066,-7.86636 z m -395.6309,3.17192 c -1.44644,-2.02369 -5.12901,-7.21929 -8.18348,-11.54579 -3.05448,-4.3265 -5.63869,-7.96152 -5.74268,-8.07783 -0.10399,-0.1163 -0.18907,1.27018 -0.18907,3.08107 v 3.29253 l 8.24699,8.44008 c 4.53585,4.64203 8.3035,8.45116 8.37256,8.46471 0.0691,0.0136 -1.05788,-1.63109 -2.50432,-3.65477 z m 409.63343,-29.55039 c -0.0178,-15.49105 -0.0951,-17.09385 -0.75167,-15.58231 -0.57686,1.32812 -7.34858,38.61408 -7.34858,40.46222 0,0.25285 1.82702,-1.35658 4.06005,-3.57652 l 4.06006,-4.03624 -0.0198,-17.26715 z m -419.51677,2.90626 c -2.0997,-4.39628 -3.91085,-8.0884 -4.02477,-8.2047 -0.11392,-0.1163 -0.2047,1.02559 -0.20175,2.53753 0.005,2.60257 0.21046,3.03961 3.85548,8.2047 2.11756,3.00064 3.92629,5.45571 4.0194,5.45571 0.0931,0 -1.54865,-3.59696 -3.64836,-7.99324 z m -12.45068,-26.12202 -2.67512,-5.6335 -0.89672,5.37995 -0.89672,5.37995 3.42551,4.93733 3.4255,4.93732 0.14633,-4.68377 0.14633,-4.68378 z m 2.52385,-28.46535 -0.1414,-6.69413 -1.69514,10.01042 -1.69515,10.01042 1.69515,3.68123 1.69514,3.68122 0.1414,-6.99752 c 0.0778,-3.84863 0.0778,-10.00987 0,-13.69164 z m -3.96164,-16.83225 c 1.96157,-11.43768 3.55753,-21.02957 3.54659,-21.3153 -0.0154,-0.40065 -4.81899,12.90595 -11.8148,32.72832 -0.0505,0.14293 0.93598,2.46839 2.19206,5.16769 1.25608,2.69929 2.33461,4.75194 2.39672,4.56144 0.0621,-0.19051 1.71786,-9.70448 3.67943,-21.14215 z m 445.08505,1.02432 4.68561,-13.17386 -2.18614,-4.46007 c -1.20237,-2.45304 -2.34133,-4.28966 -2.53101,-4.08139 -0.54643,0.60001 -6.04977,33.77577 -6.01007,36.23051 l 0.0358,2.21122 0.66012,-1.77628 c 0.36306,-0.97695 2.76864,-7.70451 5.34573,-14.95013 z m -4.88666,-27.13628 c 0.66724,-3.95769 0.65238,-4.43147 -0.19896,-6.34384 l -0.92005,-2.06671 0.004,6.85134 c 0.003,3.76825 0.0919,6.62297 0.19896,6.34384 0.10711,-0.27912 0.51924,-2.43221 0.91584,-4.78463 z m 3.39042,-19.99247 0.77482,-4.65831 -2.5511,-3.64608 -2.5511,-3.64608 -0.15387,5.1686 c -0.147,4.93799 -0.0806,5.32104 1.4893,8.5852 0.90375,1.87913 1.77231,3.29024 1.93015,3.13579 0.15783,-0.15444 0.63564,-2.37705 1.0618,-4.93912 z M 186.7475,411.84338 c 0.27181,-1.40754 0.0273,-1.25682 -3.27121,2.01642 l -3.56498,3.53766 0.0426,16.5076 0.0426,16.50759 3.22864,-18.52401 c 1.77574,-10.18821 3.36083,-19.20858 3.52241,-20.04526 z m 417.43984,33.30368 c 0,-2.94156 -0.0624,-3.06999 -4.62683,-9.51576 -4.16656,-5.88395 -6.17257,-8.49755 -5.40453,-7.04146 1.19271,2.2612 8.51293,17.7374 8.76414,18.52891 0.62486,1.96875 1.26722,0.9693 1.26722,-1.97169 z m -14.22407,-41.40934 -14.2533,-14.22593 1.72145,3.8063 c 1.00816,2.22915 5.37009,8.95834 10.5271,16.24023 4.8431,6.83866 10.41876,14.74832 12.39035,17.57702 l 3.58471,5.14309 0.14149,-7.15738 0.14149,-7.15739 z m -394.36131,4.06783 c 1.67724,-4.73227 2.98713,-8.66653 2.91085,-8.7428 -0.0763,-0.0763 -1.19274,0.94084 -2.48103,2.26027 l -2.34235,2.39897 -1.30648,7.68018 c -0.71857,4.22411 -1.29472,7.87816 -1.28033,8.12012 0.0383,0.64353 1.0801,-2.06956 4.49934,-11.71674 z m 9.03419,-25.41867 c 0.63089,-1.94046 0.82647,-3.13621 0.4783,-2.92425 -0.32398,0.19722 -2.30188,1.58445 -4.39535,3.08272 -3.79033,2.7127 -3.80883,2.73729 -4.40939,5.8603 -1.0532,5.47679 -1.0158,5.49045 3.29672,1.20322 3.41746,-3.39742 4.10918,-4.39063 5.02972,-7.22199 z m 17.39144,-14.81606 c 0.004,-0.065 -1.89403,1.2415 -4.21729,2.90331 -3.34013,2.38917 -4.34102,3.40242 -4.78279,4.84186 -0.52263,1.70289 -0.25043,1.5155 4.21728,-2.90331 2.62679,-2.59804 4.77904,-4.77688 4.7828,-4.84186 z m 9.50902,-13.62612 c 7.75328,-5.46588 14.89621,-10.73133 15.87316,-11.701 l 1.77627,-1.76303 -5.83633,2.74829 c -16.30132,7.67617 -22.59252,10.6464 -22.67542,10.7056 -0.22859,0.16327 -3.60141,9.94811 -3.42909,9.94811 0.10699,0 6.53812,-4.47209 14.29141,-9.93797 z m 323.99909,6.5123 c -0.26079,-0.48848 -1.15862,-2.3726 -1.99519,-4.18694 -0.83656,-1.81433 -3.2269,-6.8573 -5.31186,-11.20659 l -3.79083,-7.90779 -5.05247,-1.74591 -5.05247,-1.74591 7.31583,10.41496 c 4.02371,5.72824 8.82977,11.95652 10.68015,13.84064 1.85038,1.88412 3.43557,3.42568 3.52266,3.42568 0.0871,0 -0.055,-0.39967 -0.31582,-0.88814 z m -39.18352,-42.4735 c -2.99734,-4.19036 -3.12503,-4.29624 -5.86786,-4.86565 -1.54211,-0.32015 -2.89291,-0.49302 -3.00177,-0.38416 -0.10886,0.10886 1.67919,2.0439 3.97343,4.3001 3.53897,3.48028 5.75301,4.99551 7.5883,5.19322 0.20455,0.022 -1.0069,-1.88754 -2.6921,-4.24351 z M 284.9653,316.19925 c 1.81434,-1.31649 8.43731,-6.01054 14.71771,-10.43121 6.2804,-4.42068 12.77496,-9.02564 14.43236,-10.23324 l 3.01344,-2.19563 -6.31224,0.008 -6.31224,0.008 -13.95645,13.89402 c -12.10803,12.05386 -13.62037,13.72514 -11.41891,12.61894 1.39564,-0.7013 4.02199,-2.35221 5.83633,-3.6687 z m 214.67004,-2.7601 -2.78578,-2.73785 -9.12901,-1.53979 c -5.02095,-0.84688 -9.18396,-1.48484 -9.25113,-1.41767 -0.15386,0.15386 22.76822,8.37185 23.4497,8.40715 0.27609,0.0143 -0.75161,-1.20603 -2.28378,-2.71184 z M 323.8257,298.668 l 11.09484,-5.32883 -4.04294,0.0129 -4.04295,0.0129 -6.97213,4.97145 c -7.03875,5.01897 -7.87683,5.66033 -7.39633,5.66033 0.14557,0 5.25735,-2.39797 11.35951,-5.32882 z m 161.55166,0.19595 c -2.60288,-2.82308 -4.96909,-5.22366 -5.25827,-5.33462 -0.28916,-0.11097 -9.87466,-0.14205 -21.3011,-0.0691 l -20.77535,0.13267 3.98463,1.40437 c 2.60395,0.91776 10.68206,2.55181 23.31338,4.71589 10.63081,1.82133 20.24225,3.50578 21.35877,3.74322 1.11651,0.23745 2.34062,0.45618 2.72023,0.48607 0.37962,0.0299 -1.43942,-2.25544 -4.04229,-5.07852 z M 348.91121,286.76041 c 2.09827,-1.12649 1.96049,-1.19866 -4.17598,-2.18752 l -4.42973,-0.71383 -2.36765,1.68333 c -1.3022,0.92583 -2.48708,1.80278 -2.63307,1.94877 -0.14599,0.14599 2.45607,0.25586 5.78236,0.24416 4.92136,-0.0173 6.37864,-0.19889 7.82407,-0.97491 z m 12.55023,0.68956 c -0.16864,-0.16864 -0.60637,-0.18667 -0.97272,-0.0401 -0.40486,0.16201 -0.2846,0.28227 0.30662,0.30662 0.53499,0.022 0.83474,-0.0979 0.6661,-0.26655 z m 41.24553,-0.44529 c -0.97695,-0.37422 -6.67893,-2.41973 -12.67106,-4.54557 l -10.89478,-3.86518 -4.68869,2.15075 c -2.57878,1.18292 -4.56558,2.27391 -4.41511,2.42443 0.15047,0.15052 5.67857,1.21898 12.28468,2.37437 8.52077,1.49025 13.48587,2.10664 17.08617,2.12114 4.77728,0.0192 4.97084,-0.0195 3.29879,-0.65994 z"
       id="path6349"
       transform="scale(0.26458333)"
       inkscape:export-filename="E:\Ziya Invites\assets\frames\path2384.png"
       inkscape:export-xdpi="96"
       inkscape:export-ydpi="96" />
    <path
       style="opacity:1;vector-effect:none;fill:#ffffff;fill-opacity:1;stroke:none;stroke-width:1.46474;stroke-linecap:butt;stroke-linejoin:miter;stroke-miterlimit:4;stroke-dasharray:none;stroke-dashoffset:0;stroke-opacity:1"
       d="m 294.54623,705.65708 c -1.29002,-0.39725 -2.6585,-1.09942 -3.04107,-1.56038 -0.62394,-0.7518 -0.56532,-0.79779 0.56922,-0.44657 0.69563,0.21534 2.63506,0.91751 4.30983,1.56037 3.43706,1.3193 2.07266,1.65081 -1.83798,0.44658 z"
       id="path6425"
       transform="scale(0.26458333)"
       inkscape:export-filename="E:\Ziya Invites\assets\frames\path2384.png"
       inkscape:export-xdpi="96"
       inkscape:export-ydpi="96" />
    <path
       style="opacity:1;vector-effect:none;fill:#ffffff;fill-opacity:1;stroke:none;stroke-width:1.46474;stroke-linecap:butt;stroke-linejoin:miter;stroke-miterlimit:4;stroke-dasharray:none;stroke-dashoffset:0;stroke-opacity:1"
       d="m 302.41071,714.97339 -1.96644,-2.05297 1.52252,0.28125 c 0.83739,0.15469 5.22739,0.91279 9.75556,1.68467 4.52816,0.77189 8.18222,1.44235 8.12011,1.48993 -0.0621,0.0476 -3.5672,0.21332 -7.78911,0.3683 l -7.6762,0.28179 z"
       id="path6579"
       transform="scale(0.26458333)"
       inkscape:export-filename="E:\Ziya Invites\assets\frames\path2384.png"
       inkscape:export-xdpi="96"
       inkscape:export-ydpi="96" />
    <path
       style="opacity:1;vector-effect:none;fill:#ffffff;fill-opacity:1;stroke:none;stroke-width:0.258932;stroke-linecap:butt;stroke-linejoin:miter;stroke-miterlimit:4;stroke-dasharray:none;stroke-dashoffset:0;stroke-opacity:1"
       d="m 402.12493,736.23243 c -2.53648,-0.66051 -29.08044,-10.06171 -31.46594,-11.14445 -0.40035,-0.1817 -0.40101,-0.18275 -0.0893,-0.14061 3.50664,0.47408 30.81856,5.09556 38.75306,6.55745 1.21112,0.22314 2.3382,0.42931 2.50461,0.45814 l 0.30257,0.0524 -0.34743,0.21575 c -0.6822,0.42366 -4.58861,2.33522 -5.95464,2.91384 -2.15454,0.91261 -3.19778,1.21898 -3.7029,1.08745 z"
       id="path6655"
       transform="scale(0.26458333)"
       inkscape:export-filename="E:\Ziya Invites\assets\frames\path2384.png"
       inkscape:export-xdpi="96"
       inkscape:export-ydpi="96" />
    <path
       style="opacity:1;vector-effect:none;fill:#ffffff;fill-opacity:1;stroke:none;stroke-width:0.258932;stroke-linecap:butt;stroke-linejoin:miter;stroke-miterlimit:4;stroke-dasharray:none;stroke-dashoffset:0;stroke-opacity:1"
       d="m 419.64401,727.53636 c -0.12336,-0.023 -1.7988,-0.30136 -3.72319,-0.61851 -1.9244,-0.31715 -4.77062,-0.80158 -6.32494,-1.0765 -3.94527,-0.69784 -16.25474,-2.90954 -16.41793,-2.94989 -0.074,-0.0183 8.54409,-0.038 19.15134,-0.0437 l 19.28592,-0.0104 -2.86799,1.39981 c -3.05098,1.48914 -5.37942,2.52052 -6.77061,2.99905 -0.82809,0.28484 -1.76718,0.40567 -2.3326,0.30013 z"
       id="path6731"
       transform="scale(0.26458333)"
       inkscape:export-filename="E:\Ziya Invites\assets\frames\path2384.png"
       inkscape:export-xdpi="96"
       inkscape:export-ydpi="96" />
    <path
       style="opacity:1;vector-effect:none;fill:#ffffff;fill-opacity:1;stroke:none;stroke-width:0.258932;stroke-linecap:butt;stroke-linejoin:miter;stroke-miterlimit:4;stroke-dasharray:none;stroke-dashoffset:0;stroke-opacity:1"
       d="m 439.6057,731.03475 c -3.29224,-0.58074 -8.27748,-1.4848 -8.37784,-1.51929 -0.20941,-0.072 9.5596,-4.86648 11.47302,-5.63081 1.18362,-0.47281 2.19226,-0.72743 3.40919,-0.86061 0.94056,-0.10294 7.26215,-0.40081 7.31813,-0.34483 0.0442,0.0442 -2.82317,2.19461 -4.90034,3.67492 -3.38283,2.41082 -5.82706,3.99903 -7.0309,4.56855 -0.60394,0.28571 -0.83069,0.29915 -1.89126,0.11207 z"
       id="path6807"
       transform="scale(0.26458333)"
       inkscape:export-filename="E:\Ziya Invites\assets\frames\path2384.png"
       inkscape:export-xdpi="96"
       inkscape:export-ydpi="96" />
    <path
       style="opacity:1;vector-effect:none;fill:#ffffff;fill-opacity:1;stroke:none;stroke-width:0.258932;stroke-linecap:butt;stroke-linejoin:miter;stroke-miterlimit:4;stroke-dasharray:none;stroke-dashoffset:0;stroke-opacity:1"
       d="m 395.51055,716.99778 -38.26364,-0.0664 -4.75491,-0.86212 c -10.87541,-1.97184 -11.90538,-2.175 -14.80305,-2.9199 -0.93753,-0.24101 -1.77525,-0.46533 -1.8616,-0.49849 -0.11733,-0.0451 -0.157,-0.1623 -0.157,-0.46401 0,-0.29055 0.0321,-0.3914 0.1145,-0.35978 0.74129,0.28446 6.94701,2.00771 8.31875,2.31001 2.29655,0.50611 6.32201,0.8817 12.91903,1.20538 12.27238,0.60215 26.10336,0.79226 66.22338,0.91029 l 20.96193,0.0617 3.6201,-1.70893 c 1.99105,-0.93991 8.32343,-3.92894 14.07194,-6.64228 12.03909,-5.68255 13.59467,-6.42452 17.97971,-8.57594 1.77182,-0.8693 3.23531,-1.58055 3.25218,-1.58055 0.0169,0 0.0307,0.11331 0.0307,0.25181 0,0.29838 2.46966,-0.90775 -22.10512,10.79561 l -17.30534,8.2414 -4.98895,-0.0157 c -2.74392,-0.009 -22.20759,-0.0456 -43.25259,-0.0821 z"
       id="path6883"
       transform="scale(0.26458333)"
       inkscape:export-filename="E:\Ziya Invites\assets\frames\path2384.png"
       inkscape:export-xdpi="96"
       inkscape:export-ydpi="96" />
    <path
       style="opacity:1;vector-effect:none;fill:#ffffff;fill-opacity:1;stroke:none;stroke-width:0.517865;stroke-linecap:butt;stroke-linejoin:miter;stroke-miterlimit:4;stroke-dasharray:none;stroke-dashoffset:0;stroke-opacity:1"
       d="m 483.2999,697.93092 c 0.002,-0.11763 1.35057,-0.9002 2.99786,-1.73904 15.43068,-7.8577 27.35858,-16.0889 40.70695,-28.09105 6.35989,-5.71847 19.35216,-18.57438 40.46137,-40.03668 4.58022,-4.65683 8.35087,-8.40236 8.37924,-8.3234 0.0284,0.0789 -0.0946,0.51555 -0.27315,0.97021 -0.27513,0.70043 -3.48869,3.96865 -21.04498,21.40294 -32.98139,32.7522 -32.45532,32.27724 -47.09662,42.52058 -6.1029,4.26971 -8.94733,5.97563 -15.44348,9.26211 -6.54636,3.31187 -8.69075,4.30772 -8.68719,4.03433 z"
       id="path6959"
       transform="scale(0.26458333)"
       inkscape:export-filename="E:\Ziya Invites\assets\frames\path2384.png"
       inkscape:export-xdpi="96"
       inkscape:export-ydpi="96" />
    <path
       style="opacity:1;vector-effect:none;fill:#ffffff;fill-opacity:1;stroke:none;stroke-width:0.517865;stroke-linecap:butt;stroke-linejoin:miter;stroke-miterlimit:4;stroke-dasharray:none;stroke-dashoffset:0;stroke-opacity:1"
       d="m 457.27964,717.16965 c 1.41747,-0.91042 11.23167,-5.49957 11.40038,-5.33086 0.0997,0.0997 -3.22628,2.50456 -5.47916,3.96175 -2.18455,1.41299 -2.68891,1.59211 -4.75492,1.68864 l -1.79431,0.0838 z"
       id="path7035"
       transform="scale(0.26458333)"
       inkscape:export-filename="E:\Ziya Invites\assets\frames\path2384.png"
       inkscape:export-xdpi="96"
       inkscape:export-ydpi="96" />
    <path
       style="opacity:1;vector-effect:none;fill:#ffffff;fill-opacity:1;stroke:none;stroke-width:0.517865;stroke-linecap:butt;stroke-linejoin:miter;stroke-miterlimit:4;stroke-dasharray:none;stroke-dashoffset:0;stroke-opacity:1"
       d="m 471.92873,717.38835 c -0.48945,-0.10818 -0.41585,-0.18373 1.61488,-1.65774 5.50022,-3.99235 22.34559,-15.79857 22.42642,-15.71775 0.1422,0.1422 -2.29137,2.68782 -9.94118,10.39892 l -7.07569,7.13237 -3.25581,-0.0212 c -1.79069,-0.0117 -3.48657,-0.0722 -3.76862,-0.13457 z"
       id="path7111"
       transform="scale(0.26458333)"
       inkscape:export-filename="E:\Ziya Invites\assets\frames\path2384.png"
       inkscape:export-xdpi="96"
       inkscape:export-ydpi="96" />
    <path
       style="opacity:1;vector-effect:none;fill:#ffffff;fill-opacity:1;stroke:none;stroke-width:0.517865;stroke-linecap:butt;stroke-linejoin:miter;stroke-miterlimit:4;stroke-dasharray:none;stroke-dashoffset:0;stroke-opacity:1"
       d="m 531.11545,675.08542 c 1.85385,-1.45193 31.52051,-22.37745 32.73912,-23.09268 l 0.55932,-0.32829 -0.12463,0.50772 c -0.36376,1.48187 -3.08108,8.93254 -3.30528,9.06281 -0.23678,0.13758 -7.39852,3.54437 -21.70442,10.32464 -5.35394,2.5375 -8.18321,3.82218 -8.39644,3.81257 -0.0696,-0.003 0.035,-0.13219 0.23233,-0.28677 z"
       id="path7187"
       transform="scale(0.26458333)"
       inkscape:export-filename="E:\Ziya Invites\assets\frames\path2384.png"
       inkscape:export-xdpi="96"
       inkscape:export-ydpi="96" />
    <path
       style="opacity:1;vector-effect:none;fill:#ffffff;fill-opacity:1;stroke:none;stroke-width:0.517865;stroke-linecap:butt;stroke-linejoin:miter;stroke-miterlimit:4;stroke-dasharray:none;stroke-dashoffset:0;stroke-opacity:1"
       d="m 554.14778,651.18919 c 0.50951,-0.71554 12.75292,-13.11291 14.65311,-14.83737 1.85738,-1.68562 1.84258,-1.84159 0.24505,2.58252 l -1.07596,2.97969 -2.71575,1.88403 c -1.49367,1.03621 -4.63778,3.23648 -6.98692,4.88949 -2.34915,1.653 -4.31777,3.00547 -4.37473,3.00547 -0.0569,0 0.0579,-0.22673 0.2552,-0.50383 z"
       id="path7263"
       transform="scale(0.26458333)"
       inkscape:export-filename="E:\Ziya Invites\assets\frames\path2384.png"
       inkscape:export-xdpi="96"
       inkscape:export-ydpi="96" />
    <path
       style="opacity:1;vector-effect:none;fill:#ffffff;fill-opacity:1;stroke:none;stroke-width:0.517865;stroke-linecap:butt;stroke-linejoin:miter;stroke-miterlimit:4;stroke-dasharray:none;stroke-dashoffset:0;stroke-opacity:1"
       d="m 576.42175,635.58779 c 0,-0.253 2.43557,-7.07636 3.05068,-8.54664 0.32573,-0.77856 1.0574,-2.03009 1.62594,-2.78118 1.37206,-1.81259 5.41687,-5.77246 5.50264,-5.38708 0.13474,0.60545 -1.66048,10.67557 -1.97306,11.06767 -0.0999,0.1253 -0.67506,0.57354 -1.27816,0.99608 -0.60309,0.42255 -2.18657,1.5327 -3.51885,2.46702 -2.99458,2.10008 -3.40919,2.3657 -3.40919,2.18413 z"
       id="path7339"
       transform="scale(0.26458333)"
       inkscape:export-filename="E:\Ziya Invites\assets\frames\path2384.png"
       inkscape:export-xdpi="96"
       inkscape:export-ydpi="96" />
    <path
       style="opacity:1;vector-effect:none;fill:#ffffff;fill-opacity:1;stroke:none;stroke-width:0.517865;stroke-linecap:butt;stroke-linejoin:miter;stroke-miterlimit:4;stroke-dasharray:none;stroke-dashoffset:0;stroke-opacity:1"
       d="m 584.85501,611.96392 c 0,-0.39588 5.57458,-15.76263 5.67997,-15.65725 0.12743,0.12744 -1.54888,9.76548 -1.88798,10.855 -0.19669,0.63199 -0.66575,1.53074 -1.07386,2.05761 -0.82149,1.06055 -2.71813,2.97569 -2.71813,2.74464 z"
       id="path7415"
       transform="scale(0.26458333)"
       inkscape:export-filename="E:\Ziya Invites\assets\frames\path2384.png"
       inkscape:export-xdpi="96"
       inkscape:export-ydpi="96" />
    <path
       style="opacity:1;vector-effect:none;fill:#ffffff;fill-opacity:1;stroke:none;stroke-width:0.517865;stroke-linecap:butt;stroke-linejoin:miter;stroke-miterlimit:4;stroke-dasharray:none;stroke-dashoffset:0;stroke-opacity:1"
       d="m 595.7147,600.42064 c 0.0467,-0.27139 0.52598,-3.11762 1.06512,-6.32494 1.67705,-9.97672 5.04158,-28.23029 5.87872,-31.89384 0.2086,-0.91286 0.43494,-1.65974 0.503,-1.65974 0.29255,0 0.35428,3.06348 0.35428,17.58155 v 15.37573 l -3.75587,3.70734 c -2.06573,2.03903 -3.84008,3.70733 -3.94299,3.70733 -0.10509,0 -0.14992,-0.21632 -0.10226,-0.49343 z"
       id="path7491"
       transform="scale(0.26458333)"
       inkscape:export-filename="E:\Ziya Invites\assets\frames\path2384.png"
       inkscape:export-xdpi="96"
       inkscape:export-ydpi="96" />
    <path
       style="opacity:1;vector-effect:none;fill:#ffffff;fill-opacity:1;stroke:none;stroke-width:0.183093;stroke-linecap:butt;stroke-linejoin:miter;stroke-miterlimit:4;stroke-dasharray:none;stroke-dashoffset:0;stroke-opacity:1"
       d="m 572.37298,622.98957 c 0,-0.0304 0.78401,-0.84059 1.74225,-1.80032 l 1.74224,-1.74498 4.95662,-14.27364 c 6.14675,-17.70088 6.69425,-19.29098 8.21302,-23.85284 1.65173,-4.96124 3.39658,-10.47515 4.51682,-14.27364 l 0.24322,-0.82469 0.51925,-0.0184 0.51925,-0.0184 -0.84856,2.5242 c -1.78323,5.30454 -2.43057,7.14788 -10.52177,29.96132 -3.0875,8.70533 -6.05191,17.06679 -6.58757,18.58101 -0.53567,1.51422 -0.98306,2.69179 -0.99421,2.61683 -0.0112,-0.075 -0.0462,-0.13629 -0.078,-0.13629 -0.0317,0 -0.8148,0.74591 -1.74015,1.65759 -0.92535,0.91167 -1.68245,1.63268 -1.68245,1.60223 z"
       id="path7758"
       transform="scale(0.26458333)"
       inkscape:export-filename="E:\Ziya Invites\assets\frames\path2384.png"
       inkscape:export-xdpi="96"
       inkscape:export-ydpi="96" />
    <path
       style="opacity:1;vector-effect:none;fill:#ffffff;fill-opacity:1;stroke:none;stroke-width:0.360769;stroke-linecap:butt;stroke-linejoin:miter;stroke-miterlimit:4;stroke-dasharray:none;stroke-dashoffset:0;stroke-opacity:1"
       d="m 594.07781,565.35678 c 0.54373,-1.74702 2.06731,-7.42536 2.9801,-11.10678 3.9779,-16.04347 5.7761,-29.81842 6.42098,-49.1875 0.0183,-0.55 0.0446,2.83579 0.0584,7.52397 l 0.0252,8.52397 -1.44172,8.41353 c -5.30971,30.98627 -4.88817,28.82282 -6.82095,35.00728 l -0.49808,1.59375 h -0.48152 -0.48152 z"
       id="path8537"
       transform="scale(0.26458333)"
       inkscape:export-filename="E:\Ziya Invites\assets\frames\path2384.png"
       inkscape:export-xdpi="96"
       inkscape:export-ydpi="96" />
    <path
       style="opacity:1;vector-effect:none;fill:#ffffff;fill-opacity:1;stroke:none;stroke-width:0.360769;stroke-linecap:butt;stroke-linejoin:miter;stroke-miterlimit:4;stroke-dasharray:none;stroke-dashoffset:0;stroke-opacity:1"
       d="m 609.38048,524.25 c -0.0563,-0.44651 0.005,-1.43237 0.17522,-2.8125 0.89226,-7.24147 5.14024,-32.4619 5.74141,-34.08704 0.0871,-0.23545 0.17598,-0.1501 0.75228,0.72252 0.35944,0.54424 1.38243,2.46873 2.27331,4.27665 l 1.6198,3.28712 -2.74397,7.71288 c -3.02535,8.50375 -7.41816,20.78581 -7.60937,21.27537 -0.10925,0.27971 -0.13115,0.24036 -0.20868,-0.375 z"
       id="path8613"
       transform="scale(0.26458333)"
       inkscape:export-filename="E:\Ziya Invites\assets\frames\path2384.png"
       inkscape:export-xdpi="96"
       inkscape:export-ydpi="96" />
    <path
       style="opacity:1;vector-effect:none;fill:#ffffff;fill-opacity:1;stroke:none;stroke-width:0.360769;stroke-linecap:butt;stroke-linejoin:miter;stroke-miterlimit:4;stroke-dasharray:none;stroke-dashoffset:0;stroke-opacity:1"
       d="m 609.53125,485.67782 c -0.0516,-0.052 -0.0924,-2.77105 -0.0908,-6.0424 l 0.003,-5.94792 0.47663,1.06254 c 0.85156,1.89835 0.93411,2.25847 0.85707,3.73888 -0.0915,1.75936 -1.06424,7.37196 -1.24586,7.1889 z"
       id="path8726"
       transform="scale(0.26458333)"
       inkscape:export-filename="E:\Ziya Invites\assets\frames\path2384.png"
       inkscape:export-xdpi="96"
       inkscape:export-ydpi="96" />
    <path
       style="opacity:1;vector-effect:none;fill:#ffffff;fill-opacity:1;stroke:none;stroke-width:0.360769;stroke-linecap:butt;stroke-linejoin:miter;stroke-miterlimit:4;stroke-dasharray:none;stroke-dashoffset:0;stroke-opacity:1"
       d="m 612.3966,466.09375 c -0.80603,-1.07851 -2.42778,-4.53134 -2.76353,-5.88379 -0.1751,-0.70533 -0.20798,-1.41757 -0.19041,-4.125 0.0117,-1.79985 0.0575,-3.90292 0.10179,-4.67348 l 0.0806,-1.40102 1.9375,2.77018 c 1.06562,1.5236 2.17194,3.11031 2.45847,3.52602 l 0.52098,0.75584 -0.60479,3.56719 c -0.55877,3.29579 -1.0812,5.87031 -1.19121,5.87031 -0.0251,0 -0.18236,-0.18281 -0.34935,-0.40625 z"
       id="path8802"
       transform="scale(0.26458333)"
       inkscape:export-filename="E:\Ziya Invites\assets\frames\path2384.png"
       inkscape:export-xdpi="96"
       inkscape:export-ydpi="96" />
    <path
       style="opacity:1;vector-effect:none;fill:#ffffff;fill-opacity:1;stroke:none;stroke-width:0.360769;stroke-linecap:butt;stroke-linejoin:miter;stroke-miterlimit:4;stroke-dasharray:none;stroke-dashoffset:0;stroke-opacity:1"
       d="M 595.69787,445.91129 C 584.60404,422.6817 580.777,415.04902 575.21617,405.0625 c -5.59546,-10.04872 -11.81363,-19.90863 -17.7765,-28.1875 -1.94534,-2.70092 -1.84094,-2.53093 -1.52262,-2.47926 0.17473,0.0284 1.09392,1.22505 2.86448,3.72926 1.43396,2.02812 5.5346,7.82423 9.11254,12.88024 l 6.50535,9.19273 14.64996,30.7408 c 11.80073,24.76211 14.64273,30.82156 14.61279,31.15606 -0.0304,0.33989 -1.47588,-2.5973 -7.9643,-16.18354 z"
       id="path8878"
       transform="scale(0.26458333)"
       inkscape:export-filename="E:\Ziya Invites\assets\frames\path2384.png"
       inkscape:export-xdpi="96"
       inkscape:export-ydpi="96" />
    <path
       style="opacity:1;vector-effect:none;fill:#ffffff;fill-opacity:1;stroke:none;stroke-width:0.360769;stroke-linecap:butt;stroke-linejoin:miter;stroke-miterlimit:4;stroke-dasharray:none;stroke-dashoffset:0;stroke-opacity:1"
       d="m 603.34152,447.84375 c -0.0696,-0.0859 -0.32449,-0.63438 -0.56638,-1.21875 -0.65695,-1.58709 -6.24504,-13.4528 -7.70318,-16.35686 -0.35744,-0.7119 -0.62624,-1.31803 -0.59732,-1.34695 0.068,-0.0681 1.29849,1.5723 3.89473,5.19222 3.103,4.32648 4.64029,6.62499 5.16274,7.71917 L 604,442.8125 v 2.3125 c 0,1.65454 -0.0457,2.39252 -0.16065,2.59375 -0.18181,0.3183 -0.31428,0.35156 -0.49783,0.125 z"
       id="path8954"
       transform="scale(0.26458333)"
       inkscape:export-filename="E:\Ziya Invites\assets\frames\path2384.png"
       inkscape:export-xdpi="96"
       inkscape:export-ydpi="96" />
    <path
       style="opacity:1;vector-effect:none;fill:#ffffff;fill-opacity:1;stroke:none;stroke-width:0.360769;stroke-linecap:butt;stroke-linejoin:miter;stroke-miterlimit:4;stroke-dasharray:none;stroke-dashoffset:0;stroke-opacity:1"
       d="m 601.13162,428.12153 c -1.50885,-2.16372 -5.23604,-7.46412 -8.28264,-11.77866 -6.03266,-8.54337 -8.18634,-11.63574 -10.14595,-14.56813 -1.68311,-2.51861 -3.89825,-6.06005 -4.58176,-7.32503 -0.61788,-1.14351 -2.0888,-4.33635 -2.02646,-4.39869 0.0224,-0.0224 6.34594,6.27095 14.05221,13.98533 l 14.01139,14.02615 -0.1417,6.99653 -0.14171,6.99653 z"
       id="path9030"
       transform="scale(0.26458333)"
       inkscape:export-filename="E:\Ziya Invites\assets\frames\path2384.png"
       inkscape:export-xdpi="96"
       inkscape:export-ydpi="96" />
    <path
       style="opacity:1;vector-effect:none;fill:#ffffff;fill-opacity:1;stroke:none;stroke-width:0.360769;stroke-linecap:butt;stroke-linejoin:miter;stroke-miterlimit:4;stroke-dasharray:none;stroke-dashoffset:0;stroke-opacity:1"
       d="m 553.42195,358.90625 c -2.84214,-2.90568 -6.90079,-8.07826 -11.94135,-15.21875 -4.89866,-6.93949 -6.81798,-9.70429 -6.76998,-9.75228 0.028,-0.028 2.21346,0.69769 4.85653,1.61271 l 4.80558,1.66367 1.04631,2.17545 c 2.56555,5.33424 5.32503,11.12573 7.15372,15.01395 1.08992,2.31742 2.20848,4.66461 2.4857,5.21597 0.51305,1.02041 0.58797,1.25803 0.39662,1.25803 -0.0591,0 -0.97399,-0.88594 -2.03313,-1.96875 z"
       id="path9143"
       transform="scale(0.26458333)"
       inkscape:export-filename="E:\Ziya Invites\assets\frames\path2384.png"
       inkscape:export-xdpi="96"
       inkscape:export-ydpi="96" />
    <path
       style="opacity:1;vector-effect:none;fill:#ffffff;fill-opacity:1;stroke:none;stroke-width:0.360769;stroke-linecap:butt;stroke-linejoin:miter;stroke-miterlimit:4;stroke-dasharray:none;stroke-dashoffset:0;stroke-opacity:1"
       d="m 553.84822,372.0138 c -6.16374,-8.18833 -13.20381,-16.36335 -21.28572,-24.71723 -3.55271,-3.67226 -21.25289,-21.22464 -21.57713,-21.39695 -0.25946,-0.13788 -33.39937,-12.02903 -40.5006,-14.53229 -4.72596,-1.66595 -15.66939,-5.28853 -18.32764,-6.06696 l -2.09286,-0.61287 -8.9e-4,-0.41467 c -7.9e-4,-0.37204 0.028,-0.40594 0.28037,-0.32967 0.45096,0.13631 17.84548,6.28756 35.15625,12.43235 8.74974,3.10589 17.30781,6.11753 23.07133,8.11895 l 2.94634,1.02313 13.44049,13.39746 c 14.50701,14.46055 19.75232,19.89077 22.41961,23.20995 0.54287,0.67555 7.80022,10.85619 8.49715,11.91983 0.20718,0.3162 0.20647,0.33015 -0.0168,0.32977 -0.15632,-2.5e-4 -0.81845,-0.77799 -2.0099,-2.3608 z"
       id="path9219"
       transform="scale(0.26458333)"
       inkscape:export-filename="E:\Ziya Invites\assets\frames\path2384.png"
       inkscape:export-xdpi="96"
       inkscape:export-ydpi="96" />
    <path
       style="opacity:1;vector-effect:none;fill:#ffffff;fill-opacity:1;stroke:none;stroke-width:0.360769;stroke-linecap:butt;stroke-linejoin:miter;stroke-miterlimit:4;stroke-dasharray:none;stroke-dashoffset:0;stroke-opacity:1"
       d="m 517.95539,321.8751 c -0.94271,-0.33912 -2.24806,-1.18293 -3.70539,-2.39524 -1.31829,-1.09664 -5.57394,-5.29461 -6.30557,-6.22009 l -0.43057,-0.54465 0.74307,0.0899 c 1.39213,0.1685 3.72463,0.71306 4.29735,1.00327 0.69567,0.35253 1.54825,1.23859 2.72123,2.8281 1.15388,1.56363 3.19787,4.5647 3.4615,5.08232 0.24732,0.48559 0.17424,0.5002 -0.78162,0.15635 z"
       id="path9295"
       transform="scale(0.26458333)"
       inkscape:export-filename="E:\Ziya Invites\assets\frames\path2384.png"
       inkscape:export-xdpi="96"
       inkscape:export-ydpi="96" />
    <path
       style="opacity:1;vector-effect:none;fill:#ffffff;fill-opacity:1;stroke:none;stroke-width:0.360769;stroke-linecap:butt;stroke-linejoin:miter;stroke-miterlimit:4;stroke-dasharray:none;stroke-dashoffset:0;stroke-opacity:1"
       d="m 498.3125,314.88438 c -7.13657,-2.46839 -19.2884,-6.88764 -19.1953,-6.98075 0.0641,-0.0641 3.79554,0.52411 11.29232,1.78003 l 6.28452,1.05283 1.53389,1.44263 c 1.31607,1.23776 2.84391,2.8358 3.44391,3.60213 0.14506,0.18527 0.14501,0.21774 -2.5e-4,0.21218 -0.0944,-0.004 -1.60597,-0.50268 -3.35909,-1.10905 z"
       id="path9371"
       transform="scale(0.26458333)"
       inkscape:export-filename="E:\Ziya Invites\assets\frames\path2384.png"
       inkscape:export-xdpi="96"
       inkscape:export-ydpi="96" />
    <path
       style="opacity:1;vector-effect:none;fill:#ffffff;fill-opacity:1;stroke:none;stroke-width:0.360769;stroke-linecap:butt;stroke-linejoin:miter;stroke-miterlimit:4;stroke-dasharray:none;stroke-dashoffset:0;stroke-opacity:1"
       d="m 486.8125,303.42305 c -1.20313,-0.23738 -7.53125,-1.35924 -14.0625,-2.49302 -23.13801,-4.01659 -27.67214,-4.93585 -32.15083,-6.51832 l -2.04966,-0.72421 9.53774,-0.0925 c 5.24576,-0.0508 14.57212,-0.079 20.72525,-0.0625 l 11.1875,0.03 0.46427,0.35517 c 0.52774,0.40373 5.04351,5.16469 6.59901,6.95733 1.173,1.35181 2.24922,2.73638 2.24922,2.89364 0,0.14593 -0.0293,0.14188 -2.5,-0.34559 z"
       id="path9447"
       transform="scale(0.26458333)"
       inkscape:export-filename="E:\Ziya Invites\assets\frames\path2384.png"
       inkscape:export-xdpi="96"
       inkscape:export-ydpi="96" />
    <path
       style="opacity:1;vector-effect:none;fill:#ffffff;fill-opacity:1;stroke:none;stroke-width:0.360769;stroke-linecap:butt;stroke-linejoin:miter;stroke-miterlimit:4;stroke-dasharray:none;stroke-dashoffset:0;stroke-opacity:1"
       d="m 448.0625,304.11905 c -7.73813,-2.22828 -17.49023,-4.28149 -31.4375,-6.61886 -14.61208,-2.44878 -23.77722,-3.24767 -37.28125,-3.24964 L 375.5625,294.25 v -0.4375 -0.4375 h 9.99007 9.99007 l 19.41618,3.37877 c 10.6789,1.85833 20.65368,3.606 22.16618,3.88372 5.09635,0.93577 9.16976,1.91715 12.0625,2.90612 0.7548,0.25806 0.81528,0.30631 0.85167,0.67959 0.0265,0.27184 -0.0139,0.39856 -0.125,0.39179 -0.0903,-0.006 -0.92355,-0.22868 -1.85167,-0.49594 z"
       id="path9523"
       transform="scale(0.26458333)"
       inkscape:export-filename="E:\Ziya Invites\assets\frames\path2384.png"
       inkscape:export-xdpi="96"
       inkscape:export-ydpi="96" />
    <path
       style="opacity:1;vector-effect:none;fill:#ffffff;fill-opacity:1;stroke:none;stroke-width:0.721538;stroke-linecap:butt;stroke-linejoin:miter;stroke-miterlimit:4;stroke-dasharray:none;stroke-dashoffset:0;stroke-opacity:1"
       d="m 393.375,287.10161 c -4.58702,-0.55006 -22.6512,-3.66948 -22.94377,-3.96205 -0.15338,-0.15338 1.88088,-1.2295 5.28548,-2.79601 l 3.4667,-1.59509 11.6583,4.15638 c 6.41206,2.28601 11.82704,4.25168 12.03329,4.36817 0.59547,0.3363 -6.30435,0.21182 -9.5,-0.1714 z"
       id="path9829"
       transform="scale(0.26458333)"
       inkscape:export-filename="E:\Ziya Invites\assets\frames\path2384.png"
       inkscape:export-xdpi="96"
       inkscape:export-ydpi="96" />
    <path
       style="opacity:1;vector-effect:none;fill:#ffffff;fill-opacity:1;stroke:none;stroke-width:0.127551;stroke-linecap:butt;stroke-linejoin:miter;stroke-miterlimit:4;stroke-dasharray:none;stroke-dashoffset:0;stroke-opacity:1"
       d="m 398.14531,287.61581 c -2.34503,-0.0976 -5.28564,-0.41863 -9.1261,-0.99627 -5.87346,-0.88344 -18.67481,-3.22871 -18.93112,-3.46829 -0.0887,-0.0829 0.70523,-0.56315 2.15944,-1.30611 0.93311,-0.47675 1.81404,-0.88969 5.92056,-2.77538 0.50965,-0.23402 0.95114,-0.42549 0.9811,-0.42549 0.03,0 2.51654,0.87336 5.52572,1.94081 15.96797,5.66431 18.75116,6.67144 18.88629,6.83426 0.0731,0.0881 0.0374,0.115 -0.2116,0.15906 -0.30145,0.0533 -4.15596,0.0811 -5.20429,0.0374 z m 4.61499,-0.20681 c 0.3634,-0.0928 0.33694,-0.10508 -2.31689,-1.07562 -2.82629,-1.03361 -6.80147,-2.45831 -18.55336,-6.64951 l -2.68765,-0.95853 -0.16287,0.066 c -0.2907,0.11778 -4.24231,1.94714 -5.35569,2.47936 -1.23883,0.59218 -2.53626,1.27333 -2.97206,1.56032 -0.43232,0.28471 -0.41319,0.33007 0.19887,0.47145 3.07387,0.71005 17.61879,3.19528 21.99765,3.75865 1.35214,0.17396 2.87194,0.28799 5.01604,0.37637 1.0928,0.045 4.62958,0.0242 4.83596,-0.0285 z"
       id="path9905"
       transform="scale(0.26458333)"
       inkscape:export-filename="E:\Ziya Invites\assets\frames\path2384.png"
       inkscape:export-xdpi="96"
       inkscape:export-ydpi="96" />
    <path
       style="opacity:1;vector-effect:none;fill:#ffffff;fill-opacity:1;stroke:none;stroke-width:0.127551;stroke-linecap:butt;stroke-linejoin:miter;stroke-miterlimit:4;stroke-dasharray:none;stroke-dashoffset:0;stroke-opacity:1"
       d="m 349.11188,293.80287 v -0.44194 h 13.21405 13.21406 v 0.44194 0.44194 h -13.21406 -13.21405 z"
       id="path9981"
       transform="scale(0.26458333)"
       inkscape:export-filename="E:\Ziya Invites\assets\frames\path2384.png"
       inkscape:export-xdpi="96"
       inkscape:export-ydpi="96" />
    <path
       style="opacity:1;vector-effect:none;fill:#ffffff;fill-opacity:1;stroke:none;stroke-width:0.127551;stroke-linecap:butt;stroke-linejoin:miter;stroke-miterlimit:4;stroke-dasharray:none;stroke-dashoffset:0;stroke-opacity:1"
       d="m 360.47858,287.66048 c -0.0802,-0.019 -0.1568,-0.0455 -0.17015,-0.0588 -0.0922,-0.0922 0.33778,-0.25113 0.67965,-0.25113 0.25229,0 0.51519,0.10287 0.48661,0.19042 -0.0437,0.13383 -0.63573,0.20488 -0.99611,0.11954 z"
       id="path10057"
       transform="scale(0.26458333)"
       inkscape:export-filename="E:\Ziya Invites\assets\frames\path2384.png"
       inkscape:export-xdpi="96"
       inkscape:export-ydpi="96" />
    <path
       style="opacity:1;vector-effect:none;fill:#ffffff;fill-opacity:1;stroke:none;stroke-width:0.127551;stroke-linecap:butt;stroke-linejoin:miter;stroke-miterlimit:4;stroke-dasharray:none;stroke-dashoffset:0;stroke-opacity:1"
       d="m 330.91291,301.77484 0.0131,-0.29234 8.52948,-4.05972 8.52947,-4.05972 0.56348,-0.001 0.56348,-10e-4 v 0.44194 0.44194 h -0.94463 -0.94462 l -4.96635,2.38998 c -2.73149,1.31449 -6.38829,3.07463 -8.12623,3.91141 -1.73794,0.83679 -3.17571,1.52133 -3.19505,1.5212 -0.0193,-1.3e-4 -0.0293,-0.13177 -0.0221,-0.29256 z"
       id="path10133"
       transform="scale(0.26458333)"
       inkscape:export-filename="E:\Ziya Invites\assets\frames\path2384.png"
       inkscape:export-xdpi="96"
       inkscape:export-ydpi="96" />
    <path
       style="opacity:1;vector-effect:none;fill:#ffffff;fill-opacity:1;stroke:none;stroke-width:0.127551;stroke-linecap:butt;stroke-linejoin:miter;stroke-miterlimit:4;stroke-dasharray:none;stroke-dashoffset:0;stroke-opacity:1"
       d="m 337.00267,287.65475 c -0.85715,-0.0357 -1.58113,-0.10286 -1.62942,-0.15116 -0.0139,-0.0139 -0.006,-0.0391 0.0183,-0.056 0.024,-0.0169 0.33167,-0.24751 0.68373,-0.51246 0.93436,-0.70317 4.15926,-2.99729 4.24479,-3.01966 0.0722,-0.0189 0.67252,0.074 4.65962,0.72075 3.92503,0.63669 4.94472,0.86912 5.10198,1.16296 0.0972,0.1816 -0.26217,0.45842 -1.2417,0.9565 -1.18762,0.6039 -2.18898,0.79921 -4.63368,0.9038 -1.19918,0.0513 -5.9333,0.0482 -7.20365,-0.005 z"
       id="path10209"
       transform="scale(0.26458333)"
       inkscape:export-filename="E:\Ziya Invites\assets\frames\path2384.png"
       inkscape:export-xdpi="96"
       inkscape:export-ydpi="96" />
    <path
       style="opacity:1;vector-effect:none;fill:#ffffff;fill-opacity:1;stroke:none;stroke-width:0.127551;stroke-linecap:butt;stroke-linejoin:miter;stroke-miterlimit:4;stroke-dasharray:none;stroke-dashoffset:0;stroke-opacity:1"
       d="m 312.38652,303.93256 c 0,-0.19505 1.44552,-1.25981 9.76596,-7.19361 l 4.70574,-3.35593 3.95632,-0.0111 3.95633,-0.0111 -0.20992,0.11142 c -0.22299,0.11838 -8.7527,4.21828 -12.93785,6.21873 -4.90903,2.34647 -8.8666,4.19337 -9.12406,4.25799 -0.0648,0.0163 -0.11252,0.009 -0.11252,-0.0163 z"
       id="path10285"
       transform="scale(0.26458333)"
       inkscape:export-filename="E:\Ziya Invites\assets\frames\path2384.png"
       inkscape:export-xdpi="96"
       inkscape:export-ydpi="96" />
    <path
       style="opacity:1;vector-effect:none;fill:#ffffff;fill-opacity:1;stroke:none;stroke-width:0.127551;stroke-linecap:butt;stroke-linejoin:miter;stroke-miterlimit:4;stroke-dasharray:none;stroke-dashoffset:0;stroke-opacity:1"
       d="m 290.15685,321.66419 v -0.64392 l 2.02188,-0.99586 c 3.88778,-1.91487 8.75653,-4.25938 17.48985,-8.42209 6.19829,-2.9544 20.20388,-9.62135 20.78231,-9.8928 l 0.45299,-0.21258 v 0.30053 0.30054 l -6.55179,3.15245 c -13.63748,6.56182 -15.85094,7.63884 -20.8486,10.14451 -4.79463,2.40388 -8.44596,4.29214 -12.01593,6.21394 -0.71437,0.38456 -1.30602,0.6992 -1.31478,0.6992 -0.009,0 -0.0159,-0.28977 -0.0159,-0.64392 z"
       id="path10361"
       transform="scale(0.26458333)"
       inkscape:export-filename="E:\Ziya Invites\assets\frames\path2384.png"
       inkscape:export-xdpi="96"
       inkscape:export-ydpi="96" />
    <path
       style="opacity:1;vector-effect:none;fill:#ffffff;fill-opacity:1;stroke:none;stroke-width:0.127551;stroke-linecap:butt;stroke-linejoin:miter;stroke-miterlimit:4;stroke-dasharray:none;stroke-dashoffset:0;stroke-opacity:1"
       d="m 290.15685,310.07391 v -2.38665 l 7.19159,-7.16317 7.19158,-7.16316 h 6.2494 c 6.08265,0 6.24659,0.002 6.14401,0.0815 -0.18589,0.14378 -2.20983,1.61598 -3.43039,2.49524 -2.25442,1.62401 -6.77793,4.83034 -13.66767,9.68785 -3.64275,2.56827 -8.02769,5.66458 -9.40231,6.63919 l -0.27621,0.19584 z"
       id="path10437"
       transform="scale(0.26458333)"
       inkscape:export-filename="E:\Ziya Invites\assets\frames\path2384.png"
       inkscape:export-xdpi="96"
       inkscape:export-ydpi="96" />
    <path
       style="opacity:1;vector-effect:none;fill:#ffffff;fill-opacity:1;stroke:none;stroke-width:0.127551;stroke-linecap:butt;stroke-linejoin:miter;stroke-miterlimit:4;stroke-dasharray:none;stroke-dashoffset:0;stroke-opacity:1"
       d="m 278.32769,320.07342 c -0.0889,-0.23172 1.38486,-1.87649 4.68875,-5.23272 2.63946,-2.68128 6.51443,-6.56575 6.8421,-6.8589 l 0.29831,-0.26687 -0.002,2.37999 -0.002,2.37999 -0.4734,0.32995 c -0.26038,0.18147 -1.57716,1.1179 -2.92618,2.08095 -1.34903,0.96306 -2.7312,1.94093 -3.0715,2.17306 -1.82681,1.24614 -4.18798,2.65297 -4.97938,2.96682 -0.34643,0.13738 -0.34119,0.13671 -0.37533,0.0477 z"
       id="path10513"
       transform="scale(0.26458333)"
       inkscape:export-filename="E:\Ziya Invites\assets\frames\path2384.png"
       inkscape:export-xdpi="96"
       inkscape:export-ydpi="96" />
    <path
       style="opacity:1;vector-effect:none;fill:#ffffff;fill-opacity:1;stroke:none;stroke-width:0.127551;stroke-linecap:butt;stroke-linejoin:miter;stroke-miterlimit:4;stroke-dasharray:none;stroke-dashoffset:0;stroke-opacity:1"
       d="m 263.90551,338.28406 v -0.3317 l 0.27621,-0.19719 c 0.73024,-0.52133 12.25729,-8.66196 13.22014,-9.33632 3.73901,-2.61873 5.98784,-3.94235 11.35182,-6.6815 l 1.40317,-0.71653 -6.2e-4,0.65469 -6.2e-4,0.6547 -0.36398,0.19496 c -0.81244,0.43516 -4.10595,2.26998 -5.41688,3.01775 -7.22958,4.12381 -13.55767,8.14926 -19.41851,12.35257 -0.55236,0.39615 -1.01474,0.72027 -1.02751,0.72027 -0.0128,0 -0.0232,-0.14926 -0.0232,-0.3317 z"
       id="path10589"
       transform="scale(0.26458333)"
       inkscape:export-filename="E:\Ziya Invites\assets\frames\path2384.png"
       inkscape:export-xdpi="96"
       inkscape:export-ydpi="96" />
    <path
       style="opacity:1;vector-effect:none;fill:#ffffff;fill-opacity:1;stroke:none;stroke-width:0.127551;stroke-linecap:butt;stroke-linejoin:miter;stroke-miterlimit:4;stroke-dasharray:none;stroke-dashoffset:0;stroke-opacity:1"
       d="m 217.28066,363.76467 c 0,-0.33414 2.77151,-8.38827 3.28967,-9.55992 0.10167,-0.22988 0.1205,-0.24612 0.49618,-0.42797 0.86151,-0.41702 5.09128,-2.41446 15.32813,-7.23846 5.90655,-2.7834 11.15531,-5.25703 11.66391,-5.49694 0.5086,-0.23992 0.9319,-0.42905 0.94066,-0.42028 0.0411,0.0411 -2.07106,2.01378 -2.63879,2.46453 -1.74453,1.38508 -6.04312,4.55849 -10.38563,7.66714 -5.94443,4.25541 -18.52863,13.05367 -18.67074,13.05367 -0.0129,0 -0.0234,-0.0188 -0.0234,-0.0418 z"
       id="path10924"
       transform="scale(0.26458333)"
       inkscape:export-filename="E:\Ziya Invites\assets\frames\path2384.png"
       inkscape:export-xdpi="96"
       inkscape:export-ydpi="96" />
    <path
       style="opacity:1;vector-effect:none;fill:#a0a0a0;fill-opacity:1;stroke:none;stroke-width:0.127551;stroke-linecap:butt;stroke-linejoin:miter;stroke-miterlimit:4;stroke-dasharray:none;stroke-dashoffset:0;stroke-opacity:1"
       d="m 207.77891,380.12365 v -9.01955 l 0.73446,-0.51823 c 0.54655,-0.38564 0.74944,-0.55408 0.79301,-0.65835 0.0322,-0.0771 1.61936,-4.54041 3.52701,-9.91852 1.90766,-5.37811 3.47491,-9.7835 3.48278,-9.78976 0.008,-0.006 6.70253,-3.19638 14.87703,-7.08916 l 14.86271,-7.07778 9.94248,0.0111 9.94249,0.0111 -8.45336,5.97525 -8.45335,5.97524 -14.91553,14.85698 c -8.20355,8.17133 -17.48598,17.42291 -20.62764,20.55906 l -5.71209,5.70208 z m 14.84924,-12.80476 2.09922,-2.1059 -0.7292,0.51205 c -0.40106,0.28163 -2.94425,2.07819 -5.65152,3.99236 l -4.92232,3.4803 -0.76682,2.16551 c -0.42175,1.19104 -0.82712,2.33229 -0.90082,2.53613 l -0.13399,0.37061 4.45311,-4.42257 c 2.44921,-2.43242 5.39777,-5.37024 6.55234,-6.52849 z m 8.4255,-12.65901 14.66596,-10.3619 2.47487,-2.46706 2.47487,-2.46707 -0.46404,0.21624 c -0.55158,0.25704 -29.29845,13.95128 -29.66137,14.12988 l -0.25016,0.12311 -1.86565,5.26289 c -1.02611,2.89459 -1.92193,5.41838 -1.99071,5.60842 -0.0688,0.19004 -0.10811,0.3392 -0.0874,0.33146 0.0207,-0.008 6.63735,-4.67693 14.70362,-10.37597 z"
       id="path11037"
       transform="scale(0.26458333)"
       inkscape:export-filename="E:\Ziya Invites\assets\frames\path2384.png"
       inkscape:export-xdpi="96"
       inkscape:export-ydpi="96" />
    <path
       style="opacity:1;vector-effect:none;fill:#ffffff;fill-opacity:1;stroke:none;stroke-width:0.360769;stroke-linecap:butt;stroke-linejoin:miter;stroke-miterlimit:4;stroke-dasharray:none;stroke-dashoffset:0;stroke-opacity:1"
       d="m 212.9375,376.00909 c 0,-0.13734 0.11854,-0.56655 0.26343,-0.9538 0.3324,-0.88841 1.42879,-2.07363 3.08938,-3.33968 1.75927,-1.34128 4.65523,-3.37423 4.71768,-3.31179 0.0772,0.0772 -7.45256,7.52562 -7.78924,7.70507 -0.24784,0.13209 -0.28125,0.12024 -0.28125,-0.0998 z"
       id="path11668"
       transform="scale(0.26458333)"
       inkscape:export-filename="E:\Ziya Invites\assets\frames\path2384.png"
       inkscape:export-xdpi="96"
       inkscape:export-ydpi="96" />
    <path
       style="opacity:1;vector-effect:none;fill:#ffffff;fill-opacity:1;stroke:none;stroke-width:0.127551;stroke-linecap:butt;stroke-linejoin:miter;stroke-miterlimit:4;stroke-dasharray:none;stroke-dashoffset:0;stroke-opacity:1"
       d="m 195.86163,392.55003 c -0.19721,-0.30175 -0.0611,-1.44935 0.51567,-4.34841 0.58639,-2.9473 0.58021,-2.93977 4.99345,-6.08233 2.19005,-1.55948 2.44375,-1.73794 3.17985,-2.2367 0.54883,-0.37188 0.64445,-0.42244 0.67972,-0.35944 0.11066,0.19775 -0.16724,1.4668 -0.62781,2.86694 -0.74801,2.27399 -1.3552,3.30939 -2.99979,5.11529 -0.74694,0.82021 -4.10269,4.14506 -4.59425,4.55193 -0.45603,0.37748 -0.72713,0.54968 -0.9289,0.59003 -0.11608,0.0232 -0.14868,0.009 -0.21794,-0.0973 z"
       id="path11781"
       transform="scale(0.26458333)"
       inkscape:export-filename="E:\Ziya Invites\assets\frames\path2384.png"
       inkscape:export-xdpi="96"
       inkscape:export-ydpi="96" />
    <path
       style="opacity:1;vector-effect:none;fill:#ffffff;fill-opacity:1;stroke:none;stroke-width:0.510204;stroke-linecap:butt;stroke-linejoin:miter;stroke-miterlimit:4;stroke-dasharray:none;stroke-dashoffset:0;stroke-opacity:1"
       d="m 191.37247,418.43044 c 5.1e-4,-0.24307 0.54189,-3.64942 1.20305,-7.56967 l 1.20212,-7.12772 2.10337,-2.10886 c 1.15685,-1.15987 2.16578,-2.10886 2.24208,-2.10886 0.0763,0 0.0857,0.21876 0.0208,0.48614 -0.30158,1.24365 -6.25167,17.96791 -6.61948,18.60574 -0.11589,0.20097 -0.15268,0.15817 -0.15196,-0.17677 z"
       id="path12042"
       transform="scale(0.26458333)"
       inkscape:export-filename="E:\Ziya Invites\assets\frames\path2384.png"
       inkscape:export-xdpi="96"
       inkscape:export-ydpi="96" />
    <path
       style="opacity:1;vector-effect:none;fill:#ffffff;fill-opacity:1;stroke:none;stroke-width:0.510204;stroke-linecap:butt;stroke-linejoin:miter;stroke-miterlimit:4;stroke-dasharray:none;stroke-dashoffset:0;stroke-opacity:1"
       d="m 180.06757,433.26533 -0.0205,-15.83586 3.16656,-3.12344 c 1.7416,-1.71789 3.25936,-3.12344 3.3728,-3.12344 0.13182,0 0.16953,0.17544 0.1045,0.48614 -0.12411,0.59293 -2.09766,11.82914 -4.60308,26.20714 -1.025,5.88225 -1.89427,10.81432 -1.9317,10.96016 -0.0374,0.14584 -0.0773,-6.86097 -0.0886,-15.5707 z"
       id="path12118"
       transform="scale(0.26458333)"
       inkscape:export-filename="E:\Ziya Invites\assets\frames\path2384.png"
       inkscape:export-xdpi="96"
       inkscape:export-ydpi="96" />
    <path
       style="opacity:1;vector-effect:none;fill:#ffffff;fill-opacity:1;stroke:none;stroke-width:0.180384;stroke-linecap:butt;stroke-linejoin:miter;stroke-miterlimit:4;stroke-dasharray:none;stroke-dashoffset:0;stroke-opacity:1"
       d="m 191.70621,604.58012 c -2.45679,-2.50188 -6.10357,-6.22231 -8.10396,-8.26762 l -3.63708,-3.71875 0.0174,-3.07505 c 0.0116,-2.04097 0.0395,-3.09709 0.083,-3.1406 0.076,-0.076 -0.0788,-0.29036 6.1841,8.5594 2.46919,3.48906 5.47848,7.73594 6.6873,9.4375 2.57156,3.61979 3.30677,4.68331 3.26588,4.7242 -0.0164,0.0164 -2.03989,-2.0172 -4.49667,-4.51908 z"
       id="path12490"
       transform="scale(0.26458333)"
       inkscape:export-filename="E:\Ziya Invites\assets\frames\path2384.png"
       inkscape:export-xdpi="96"
       inkscape:export-ydpi="96" />
    <path
       style="opacity:1;vector-effect:none;fill:#ffffff;fill-opacity:1;stroke:none;stroke-width:0.180384;stroke-linecap:butt;stroke-linejoin:miter;stroke-miterlimit:4;stroke-dasharray:none;stroke-dashoffset:0;stroke-opacity:1"
       d="m 186.73657,585.76858 c -2.40707,-3.24262 -5.16134,-7.21298 -5.88764,-8.48722 -0.77323,-1.35656 -0.90294,-2.00009 -0.86925,-4.31261 0.0144,-0.99028 0.0511,-1.73359 0.0887,-1.79904 0.0524,-0.0912 0.2937,0.35401 1.32138,2.4375 2.73234,5.53946 6.33592,13.21924 6.24536,13.30981 -0.0145,0.0145 -0.41884,-0.50229 -0.8985,-1.14844 z"
       id="path12566"
       transform="scale(0.26458333)"
       inkscape:export-filename="E:\Ziya Invites\assets\frames\path2384.png"
       inkscape:export-xdpi="96"
       inkscape:export-ydpi="96" />
    <path
       style="opacity:1;vector-effect:none;fill:#ffffff;fill-opacity:1;stroke:none;stroke-width:0.180384;stroke-linecap:butt;stroke-linejoin:miter;stroke-miterlimit:4;stroke-dasharray:none;stroke-dashoffset:0;stroke-opacity:1"
       d="m 170.70619,563.14075 c -1.80573,-2.60398 -3.31835,-4.79223 -3.36138,-4.8628 -0.0658,-0.10791 0.0575,-0.94718 0.77591,-5.28125 0.46978,-2.83412 0.874,-5.20315 0.89828,-5.26451 0.0312,-0.0787 0.82007,1.52319 2.68079,5.44343 l 2.63665,5.55498 -0.14333,4.54211 c -0.0788,2.49815 -0.15694,4.5557 -0.17356,4.57232 -0.0166,0.0166 -1.50763,-2.1003 -3.31336,-4.70428 z"
       id="path12642"
       transform="scale(0.26458333)"
       inkscape:export-filename="E:\Ziya Invites\assets\frames\path2384.png"
       inkscape:export-xdpi="96"
       inkscape:export-ydpi="96" />
    <path
       style="opacity:1;vector-effect:none;fill:#ffffff;fill-opacity:1;stroke:none;stroke-width:0.180384;stroke-linecap:butt;stroke-linejoin:miter;stroke-miterlimit:4;stroke-dasharray:none;stroke-dashoffset:0;stroke-opacity:1"
       d="m 172.3607,541.484 -1.63931,-3.56433 1.63931,-9.68219 c 1.1656,-6.88438 1.65148,-9.62246 1.68145,-9.47546 0.0811,0.39765 0.1792,7.75323 0.17493,13.11298 -0.004,4.75401 -0.12607,13.08939 -0.19292,13.15105 -0.0133,0.0122 -0.76185,-1.58167 -1.66346,-3.54205 z"
       id="path12792"
       transform="scale(0.26458333)"
       inkscape:export-filename="E:\Ziya Invites\assets\frames\path2384.png"
       inkscape:export-xdpi="96"
       inkscape:export-ydpi="96" />
    <path
       style="opacity:1;vector-effect:none;fill:#ffffff;fill-opacity:1;stroke:none;stroke-width:0.180384;stroke-linecap:butt;stroke-linejoin:miter;stroke-miterlimit:4;stroke-dasharray:none;stroke-dashoffset:0;stroke-opacity:1"
       d="m 166.21807,528.35937 c -0.90927,-1.61627 -3.14632,-6.40801 -3.96949,-8.50265 -0.21324,-0.5426 -0.23249,-0.63476 -0.16965,-0.8125 4.38159,-12.39325 7.07491,-19.95008 8.89257,-24.95047 0.62478,-1.71875 1.18043,-3.25859 1.23478,-3.42188 l 0.0988,-0.29687 h 0.43054 0.43053 l -0.0355,0.17187 c -0.0195,0.0945 -0.30423,1.78907 -0.63268,3.76563 -0.78733,4.73786 -2.15765,12.77229 -3.77358,22.125 -1.81184,10.48666 -2.14807,12.375 -2.20342,12.375 -0.0264,0 -0.16273,-0.20391 -0.30294,-0.45313 z"
       id="path12868"
       transform="scale(0.26458333)"
       inkscape:export-filename="E:\Ziya Invites\assets\frames\path2384.png"
       inkscape:export-xdpi="96"
       inkscape:export-ydpi="96" />
    <path
       style="opacity:1;vector-effect:none;fill:#ffffff;fill-opacity:1;stroke:none;stroke-width:0.0637755;stroke-linecap:butt;stroke-linejoin:miter;stroke-miterlimit:4;stroke-dasharray:none;stroke-dashoffset:0;stroke-opacity:1"
       d="m 172.34495,490.24045 c 0.0615,-0.17596 0.52055,-1.41018 0.77467,-2.08266 0.28458,-0.75309 0.59158,-1.53005 0.63303,-1.60203 0.03,-0.0521 0.0311,-0.0489 0.0186,0.0552 -0.025,0.20955 -0.21257,1.41745 -0.39871,2.56703 -0.10266,0.63405 -0.18666,1.15858 -0.18666,1.16562 0,0.007 -0.19834,0.0128 -0.44075,0.0128 h -0.44075 z"
       id="path12944"
       transform="scale(0.26458333)"
       inkscape:export-filename="E:\Ziya Invites\assets\frames\path2384.png"
       inkscape:export-xdpi="96"
       inkscape:export-ydpi="96" />
    <path
       style="opacity:1;vector-effect:none;fill:#ffffff;fill-opacity:1;stroke:none;stroke-width:0.180384;stroke-linecap:butt;stroke-linejoin:miter;stroke-miterlimit:4;stroke-dasharray:none;stroke-dashoffset:0;stroke-opacity:1"
       d="m 302.46875,707.33281 c -0.88441,-0.0897 -2.01323,-0.25134 -3.40803,-0.48809 -4.60423,-0.78152 -5.94689,-1.16022 -7.14698,-2.01585 -0.35683,-0.2544 -2.40499,-2.2647 -2.35663,-2.31306 0.0221,-0.0221 11.97776,4.17823 13.11551,4.60777 0.19806,0.0748 0.34406,0.16193 0.32443,0.19369 -0.0353,0.057 -0.10023,0.0589 -0.5283,0.0155 z m -4.12718,-0.98643 c 0.20486,-0.24684 -0.66532,-0.69551 -3.15407,-1.62624 -0.89375,-0.33425 -2.07979,-0.75958 -2.63565,-0.94518 -1.50331,-0.50196 -1.75756,-0.4484 -1.14326,0.24083 0.60257,0.67607 1.89585,1.32016 3.68021,1.83286 1.79266,0.51509 3.07545,0.71138 3.25277,0.49773 z"
       id="path13020"
       transform="scale(0.26458333)"
       inkscape:export-filename="E:\Ziya Invites\assets\frames\path2384.png"
       inkscape:export-xdpi="96"
       inkscape:export-ydpi="96" />
    <path
       style="opacity:1;vector-effect:none;fill:#ffffff;fill-opacity:1;stroke:none;stroke-width:0.180384;stroke-linecap:butt;stroke-linejoin:miter;stroke-miterlimit:4;stroke-dasharray:none;stroke-dashoffset:0;stroke-opacity:1"
       d="m 301.0625,714.75 c -1.63497,-1.63534 -2.51955,-2.5625 -2.4448,-2.5625 0.10298,0 29.48651,5.02893 29.72605,5.08755 0.0516,0.0126 -5.48919,0.0262 -12.31279,0.0302 l -12.40653,0.007 z m 2.71393,1.70312 c -1.44685,-1.47875 -3.38586,-3.52067 -3.36345,-3.54193 0.0135,-0.0128 0.79796,0.11494 1.74327,0.28385 0.94531,0.16891 4.09531,0.71557 7,1.2148 6.55147,1.12599 9.85028,1.71475 10.54687,1.88237 0.29336,0.0706 0.11861,0.12963 -0.5,0.16892 -0.90883,0.0577 -4.25002,0.20411 -7.35937,0.32243 -1.46094,0.0556 -3.58438,0.1372 -4.71875,0.18135 l -2.0625,0.0803 4.3125,0.007 c 4.66364,0.008 12.68663,-0.0815 14,-0.15558 l 0.8125,-0.0458 -0.73842,-0.14411 c -1.16652,-0.22767 -4.60403,-0.83083 -9.01158,-1.58121 -9.05008,-1.54077 -13.29668,-2.28043 -14.00891,-2.44005 -0.35377,-0.0793 -0.46021,-0.0135 -0.3404,0.21035 0.12162,0.22726 0.81856,0.98879 2.42616,2.65102 1.30192,1.34617 1.48774,1.51563 1.66205,1.51563 0.19266,0 0.18532,-0.0112 -0.39997,-0.60938 z"
       id="path13287"
       transform="scale(0.26458333)"
       inkscape:export-filename="E:\Ziya Invites\assets\frames\path2384.png"
       inkscape:export-xdpi="96"
       inkscape:export-ydpi="96" />
    <path
       style="opacity:1;vector-effect:none;fill:#ffffff;fill-opacity:1;stroke:none;stroke-width:0.0901922;stroke-linecap:butt;stroke-linejoin:miter;stroke-miterlimit:4;stroke-dasharray:none;stroke-dashoffset:0;stroke-opacity:1"
       d="m 304.04241,716.991 c -0.14903,-0.0733 -0.75266,-0.66615 -1.97991,-1.94454 -1.01012,-1.0522 -1.61067,-1.70488 -1.81115,-1.96834 -0.32252,-0.42383 -0.27723,-0.45854 0.42345,-0.32452 0.70396,0.13464 3.13932,0.56494 5.62207,0.99334 3.04694,0.52576 3.82174,0.65849 9.70313,1.66228 2.78837,0.47589 5.9852,1.03926 7.28125,1.28314 0.87815,0.16525 0.88546,0.16311 -0.71875,0.21142 -2.27061,0.0684 -5.20677,0.0988 -10.75,0.11135 l -5.625,0.0127 2.20312,-0.0899 c 1.21172,-0.0494 3.13125,-0.12641 4.26563,-0.17103 4.10972,-0.16168 6.60234,-0.28011 6.95312,-0.33035 0.11172,-0.016 0.21368,-0.0294 0.22657,-0.0297 0.0477,-10e-4 0.0215,-0.0907 -0.0312,-0.10709 -0.33387,-0.10333 -3.48413,-0.67077 -9.21094,-1.6591 -1.75313,-0.30256 -4.68254,-0.80986 -6.50982,-1.12733 -1.82727,-0.31748 -3.4093,-0.58604 -3.51562,-0.59681 l -0.19331,-0.0196 0.0625,0.0749 c 0.2023,0.24273 1.17306,1.26749 2.67075,2.8193 0.61074,0.63282 1.1209,1.16925 1.13366,1.19207 0.041,0.0733 -0.0583,0.0771 -0.19947,0.008 z"
       id="path13363"
       transform="scale(0.26458333)"
       inkscape:export-filename="E:\Ziya Invites\assets\frames\path2384.png"
       inkscape:export-xdpi="96"
       inkscape:export-ydpi="96" />
    <path
       style="opacity:1;vector-effect:none;fill:#ffffff;fill-opacity:1;stroke:none;stroke-width:0.0901922;stroke-linecap:butt;stroke-linejoin:miter;stroke-miterlimit:4;stroke-dasharray:none;stroke-dashoffset:0;stroke-opacity:1"
       d="m 335.29687,712.5419 c -2.1755,-0.65813 -4.03676,-1.26279 -6.57812,-2.13699 -2.70226,-0.92955 -4.03811,-1.40211 -15.5,-5.48318 -3.26563,-1.16274 -9.26328,-3.29597 -13.32813,-4.74051 -4.06484,-1.44454 -7.4018,-2.63658 -7.41546,-2.64898 -0.0137,-0.0124 -0.0207,-0.12914 -0.0156,-0.25943 l 0.009,-0.23688 7.48437,2.65486 c 11.05349,3.92091 12.32959,4.36986 15.90625,5.59603 6.63511,2.27468 13.13748,4.40715 18.3125,6.00563 0.6961,0.21502 1.35704,0.4192 1.46875,0.45374 0.11172,0.0345 0.17232,0.0636 0.13466,0.0646 -0.0377,9.7e-4 -0.0779,0.0171 -0.0895,0.0357 -0.0115,0.0187 -0.0215,0.17268 -0.0221,0.34219 -8.4e-4,0.2367 0.011,0.32669 0.0511,0.38789 0.0492,0.0751 0.049,0.0795 -0.003,0.0769 -0.0305,-0.002 -0.21713,-0.0517 -0.41479,-0.11153 z"
       id="path13439"
       transform="scale(0.26458333)"
       inkscape:export-filename="E:\Ziya Invites\assets\frames\path2384.png"
       inkscape:export-xdpi="96"
       inkscape:export-ydpi="96" />
    <path
       style="opacity:1;vector-effect:none;fill:#ffffff;fill-opacity:1;stroke:none;stroke-width:0.127551;stroke-linecap:butt;stroke-linejoin:miter;stroke-miterlimit:4;stroke-dasharray:none;stroke-dashoffset:0;stroke-opacity:1"
       d="m 280.80978,703.76628 c -0.0729,-0.01 -0.32151,-0.0395 -0.55243,-0.0655 -0.61897,-0.0697 -2.58632,-0.40786 -6.14016,-1.05527 -1.73638,-0.31631 -3.1645,-0.56769 -3.17358,-0.5586 -0.009,0.009 0.46694,0.13669 1.05783,0.28356 0.5909,0.14688 1.04453,0.26869 1.00807,0.27069 -0.16328,0.009 -4.58039,-0.76946 -4.63237,-0.81637 -0.0604,-0.0545 -6.80767,-9.58291 -6.79631,-9.59766 0.004,-0.005 3.45645,1.21471 7.67314,2.70955 l 7.66672,2.71787 1.44736,1.44446 c 0.79605,0.79446 1.44736,1.46022 1.44736,1.47947 0,0.0193 -0.23368,-0.17053 -0.51928,-0.42173 -1.32129,-1.16214 -2.56367,-2.07149 -3.51559,-2.57319 -0.97934,-0.51616 -3.78509,-1.59628 -7.33983,-2.82559 -2.25335,-0.77925 -4.87353,-1.59104 -5.41908,-1.67894 -0.21107,-0.034 -0.11946,-0.002 0.88388,0.30748 1.94719,0.60089 7.86033,2.68626 9.77732,3.44815 1.94403,0.77263 3.04941,1.38689 4.14384,2.30274 0.52863,0.44237 3.07077,2.93962 3.56808,3.50507 0.5065,0.5759 0.62285,0.88902 0.38763,1.04314 -0.11055,0.0724 -0.68558,0.12015 -0.9726,0.0807 z m -12.64388,-2.76934 c -1.12493,-1.55993 -3.83457,-5.35927 -4.25503,-5.96622 -0.29888,-0.43144 -0.55325,-0.78444 -0.56526,-0.78444 -0.0879,0 2.11518,3.31489 3.31899,4.99394 1.06764,1.48911 1.26797,1.74571 1.46145,1.87197 0.0972,0.0634 0.18362,0.11568 0.19197,0.11606 0.008,4e-4 -0.0601,-0.1037 -0.15212,-0.23131 z"
       id="path13515"
       transform="scale(0.26458333)"
       inkscape:export-filename="E:\Ziya Invites\assets\frames\path2384.png"
       inkscape:export-xdpi="96"
       inkscape:export-ydpi="96" />
    <path
       style="opacity:1;vector-effect:none;fill:#ffffff;fill-opacity:1;stroke:none;stroke-width:0.127551;stroke-linecap:butt;stroke-linejoin:miter;stroke-miterlimit:4;stroke-dasharray:none;stroke-dashoffset:0;stroke-opacity:1"
       d="m 279.74912,703.77022 c -0.56422,-0.0583 -5.38584,-0.86849 -6.20928,-1.04332 -0.57119,-0.12127 -1.72155,-0.43013 -1.61677,-0.43409 0.0466,-0.002 1.24978,0.20701 2.67375,0.46393 3.08268,0.55619 5.24539,0.92191 5.87891,0.99415 0.50506,0.0576 1.17057,0.0374 1.31498,-0.0399 0.21816,-0.11675 0.14346,-0.44551 -0.19915,-0.87649 -0.56311,-0.70839 -3.45882,-3.51376 -4.21259,-4.08118 -1.11825,-0.8418 -2.3505,-1.44992 -4.778,-2.35796 -1.99178,-0.74506 -5.60095,-2.01733 -7.4266,-2.61796 -0.35947,-0.11826 -0.63319,-0.22182 -0.60826,-0.23012 0.16421,-0.0547 5.73224,1.85388 8.3992,2.87909 3.1467,1.20964 3.7032,1.54499 6.54749,3.9456 1.12073,0.94591 2.14035,2.07243 2.47029,2.72928 0.20789,0.41387 0.21781,0.52797 0.0552,0.63468 -0.10194,0.0669 -0.23631,0.0795 -0.91703,0.086 -0.43868,0.004 -1.05613,-0.0191 -1.37212,-0.0517 z"
       id="path13591"
       transform="scale(0.26458333)"
       inkscape:export-filename="E:\Ziya Invites\assets\frames\path2384.png"
       inkscape:export-xdpi="96"
       inkscape:export-ydpi="96" />
    <path
       style="opacity:1;vector-effect:none;fill:#ffffff;fill-opacity:1;stroke:none;stroke-width:0.127551;stroke-linecap:butt;stroke-linejoin:miter;stroke-miterlimit:4;stroke-dasharray:none;stroke-dashoffset:0;stroke-opacity:1"
       d="m 281.64947,704.14406 c -2.16608,-0.3773 -7.72456,-1.33213 -11.09274,-1.9055 -1.16672,-0.19862 -2.14754,-0.38481 -2.17959,-0.41376 -0.0604,-0.0545 -6.80767,-9.58295 -6.79633,-9.59767 0.004,-0.005 3.46163,1.21715 7.6847,2.71493 l 7.6783,2.72323 3.38452,3.41702 c 1.86148,1.87936 3.36772,3.41502 3.34719,3.41259 -0.0205,-0.002 -0.93224,-0.16032 -2.02605,-0.35084 z m -9.76691,-1.85445 c -0.015,-0.0243 -0.0709,-0.0422 -0.12415,-0.0398 -0.0901,0.004 -0.0892,0.007 0.0137,0.0398 0.0608,0.0195 0.11663,0.0374 0.12414,0.0398 0.008,0.002 10e-4,-0.0155 -0.0136,-0.0398 z m -4.87474,-2.86157 c -0.67562,-0.94189 -1.64285,-2.2992 -2.14941,-3.01625 -0.84353,-1.19406 -1.07574,-1.51038 -0.97325,-1.32583 0.0999,0.17997 1.70585,2.56777 2.28865,3.40296 1.19339,1.71018 1.91997,2.65165 2.04643,2.65165 0.009,0 -0.5368,-0.77064 -1.21242,-1.71253 z m -2.4394,-5.86787 c 0,-0.0296 -0.18949,-0.10194 -0.34445,-0.13147 -0.0859,-0.0164 0.17604,0.10245 0.3334,0.15124 0.006,0.002 0.0111,-0.007 0.0111,-0.0198 z"
       id="path13667"
       transform="scale(0.26458333)"
       inkscape:export-filename="E:\Ziya Invites\assets\frames\path2384.png"
       inkscape:export-xdpi="96"
       inkscape:export-ydpi="96" />
    <path
       style="opacity:1;vector-effect:none;fill:#ffffff;fill-opacity:1;stroke:none;stroke-width:0.0450961;stroke-linecap:butt;stroke-linejoin:miter;stroke-miterlimit:4;stroke-dasharray:none;stroke-dashoffset:0;stroke-opacity:1"
       d="m 280.97656,704.03783 c -0.9582,-0.16623 -1.80195,-0.3126 -1.875,-0.32527 -0.6051,-0.10501 -0.84802,-0.14699 -1.24219,-0.21466 -0.24921,-0.0428 -0.56914,-0.0978 -0.71093,-0.12222 -0.1418,-0.0244 -0.48985,-0.0842 -0.77344,-0.13284 -0.28359,-0.0486 -0.65625,-0.11253 -0.82813,-0.14201 -0.73058,-0.12528 -1.27069,-0.21725 -1.82812,-0.31129 -0.89585,-0.15114 -5.34275,-0.91603 -5.34523,-0.9194 -0.1172,-0.15966 -6.83387,-9.67249 -6.83099,-9.67475 0.002,-0.002 3.46497,1.22439 7.69462,2.72504 l 7.69027,2.72845 2.89957,2.90979 2.89957,2.90979 v 0.43765 c 0,0.2407 -0.002,0.43681 -0.004,0.43579 -0.002,-10e-4 -0.78789,-0.13785 -1.7461,-0.30407 z m -9.1034,-1.74123 c -0.0214,-0.0214 -0.11535,-0.0476 -0.11535,-0.0322 0,0.007 0.0229,0.0196 0.0508,0.0286 0.0682,0.0219 0.0837,0.0227 0.0646,0.004 z m -3.97128,-1.59576 c -0.15387,-0.21788 -0.67924,-0.95514 -1.16749,-1.63834 -0.48825,-0.6832 -1.21462,-1.70274 -1.61415,-2.26563 -0.84841,-1.19528 -1.14506,-1.60937 -1.15292,-1.60937 -0.0189,0 1.34599,2.03563 2.03251,3.03125 0.71033,1.03015 1.45057,2.04784 1.81842,2.5 0.14101,0.17333 0.34683,0.39481 0.35723,0.38441 0.003,-0.003 -0.11972,-0.18444 -0.2736,-0.40232 z m -3.38425,-7.1639 c -0.0545,-0.0295 -0.2159,-0.0861 -0.22362,-0.0784 -0.008,0.008 0.21744,0.10256 0.24505,0.10261 0.0129,3e-5 0.003,-0.0109 -0.0214,-0.0243 z"
       id="path13743"
       transform="scale(0.26458333)"
       inkscape:export-filename="E:\Ziya Invites\assets\frames\path2384.png"
       inkscape:export-xdpi="96"
       inkscape:export-ydpi="96" />
    <path
       style="opacity:1;vector-effect:none;fill:#ffffff;fill-opacity:1;stroke:none;stroke-width:0.0450961;stroke-linecap:butt;stroke-linejoin:miter;stroke-miterlimit:4;stroke-dasharray:none;stroke-dashoffset:0;stroke-opacity:1"
       d=""
       id="path13895"
       transform="scale(0.26458333)" />
    <path
       style="opacity:1;vector-effect:none;fill:#ffffff;fill-opacity:1;stroke:none;stroke-width:0.180384;stroke-linecap:butt;stroke-linejoin:miter;stroke-miterlimit:4;stroke-dasharray:none;stroke-dashoffset:0;stroke-opacity:1"
       d="m 289.3125,696.40022 c -1.68438,-0.59798 -4.46133,-1.58379 -6.17102,-2.19068 l -3.10852,-1.10343 -19.95716,-20.03743 c -27.77971,-27.89144 -31.74834,-31.90038 -35.89342,-36.25801 -2.8571,-3.0036 -4.30753,-4.60482 -5.85792,-6.46692 l -0.78057,-0.9375 0.62939,-0.0179 0.6294,-0.0179 0.28616,0.32952 c 2.42997,2.79816 8.00915,8.82506 13.03458,14.08059 8.05939,8.42843 12.03945,12.43765 33.49676,33.74221 l 15.68268,15.57104 5.53607,1.96205 c 3.04484,1.07912 5.54497,1.96927 5.55584,1.9781 0.0109,0.009 0.0109,0.1145 0,0.23481 l -0.0198,0.21876 z"
       id="path14425"
       transform="scale(0.26458333)"
       inkscape:export-filename="E:\Ziya Invites\assets\frames\path2384.png"
       inkscape:export-xdpi="96"
       inkscape:export-ydpi="96" />
    <path
       style="opacity:1;vector-effect:none;fill:#ffffff;fill-opacity:1;stroke:none;stroke-width:0.360769;stroke-linecap:butt;stroke-linejoin:miter;stroke-miterlimit:4;stroke-dasharray:none;stroke-dashoffset:0;stroke-opacity:1"
       d="m 216.64924,628.15625 c -1.32897,-1.75597 -4.90117,-6.86648 -6.53119,-9.34375 -3.1473,-4.78321 -4.63849,-7.69241 -12.55806,-24.5 -1.29577,-2.75 -4.69313,-9.92188 -7.54968,-15.9375 -4.48266,-9.44006 -5.38656,-11.48875 -4.81811,-10.92031 0.0593,0.0593 2.2243,4.49532 4.81112,9.85782 8.87974,18.40779 13.86464,28.23206 19.00924,37.46355 4.08836,7.33618 5.88295,10.12184 8.44393,13.10714 0.50518,0.58888 0.99571,1.16544 1.09006,1.28125 0.15623,0.19173 0.12033,0.21055 -0.40168,0.21055 h -0.57324 z"
       id="path16544"
       transform="scale(0.26458333)"
       inkscape:export-filename="E:\Ziya Invites\assets\frames\path2384.png"
       inkscape:export-xdpi="96"
       inkscape:export-ydpi="96" />
    <path
       style="opacity:1;vector-effect:none;fill:#ffffff;fill-opacity:1;stroke:none;stroke-width:0.180384;stroke-linecap:butt;stroke-linejoin:miter;stroke-miterlimit:4;stroke-dasharray:none;stroke-dashoffset:0;stroke-opacity:1"
       d="m 246.25,681.25445 c -2.17739,-0.68288 -6.71627,-2.39419 -8.16579,-3.07878 l -0.66579,-0.31444 -0.28926,-0.50874 c -1.15184,-2.0258 -6.85608,-13.75892 -10.98856,-22.60249 -2.53549,-5.42601 -3.6309,-7.93678 -3.51379,-8.05389 0.0215,-0.0215 0.12152,0.0592 0.2223,0.17929 2.09515,2.49651 23.50337,32.67138 24.33018,34.29337 0.2086,0.40921 0.12647,0.41678 -0.92929,0.0857 z"
       id="path16768"
       transform="scale(0.26458333)"
       inkscape:export-filename="E:\Ziya Invites\assets\frames\path2384.png"
       inkscape:export-xdpi="96"
       inkscape:export-ydpi="96" />
    <path
       style="opacity:1;vector-effect:none;fill:#ffffff;fill-opacity:1;stroke:none;stroke-width:0.180384;stroke-linecap:butt;stroke-linejoin:miter;stroke-miterlimit:4;stroke-dasharray:none;stroke-dashoffset:0;stroke-opacity:1"
       d="m 242.71875,680.1876 c -2.97344,-1.05747 -5.45494,-1.96119 -5.51445,-2.00826 -0.0887,-0.0702 -15.29805,-31.90835 -15.29805,-32.02388 0,-0.0196 0.20859,-0.0275 0.46354,-0.0175 l 0.46354,0.0183 12.69271,17.95623 c 6.98099,9.87593 12.69271,17.9689 12.69271,17.98438 0,0.0473 0.0619,0.0688 -5.5,-1.90926 z"
       id="path16918"
       transform="scale(0.26458333)"
       inkscape:export-filename="E:\Ziya Invites\assets\frames\path2384.png"
       inkscape:export-xdpi="96"
       inkscape:export-ydpi="96" />
    <path
       style="opacity:1;vector-effect:none;fill:#ffffff;fill-opacity:1;stroke:none;stroke-width:0.180384;stroke-linecap:butt;stroke-linejoin:miter;stroke-miterlimit:4;stroke-dasharray:none;stroke-dashoffset:0;stroke-opacity:1"
       d="m 265.53125,688.1297 c -3.15461,-1.05145 -6.99095,-2.46746 -7.8863,-2.91087 -1.31291,-0.6502 -1.95936,-1.47435 -8.66947,-11.0526 -6.71883,-9.59071 -7.9044,-11.35373 -7.63497,-11.35373 0.17725,0 1.86754,1.44782 3.47977,2.9806 3.05507,2.90453 14.2061,14.0941 18.33597,18.39937 2.34224,2.44171 3.9375,4.21656 3.9375,4.38077 0,0.0779 0.0124,0.0814 -1.5625,-0.44354 z"
       id="path16994"
       transform="scale(0.26458333)"
       inkscape:export-filename="E:\Ziya Invites\assets\frames\path2384.png"
       inkscape:export-xdpi="96"
       inkscape:export-ydpi="96" />
    <path
       style="opacity:1;vector-effect:none;fill:#ffffff;fill-opacity:1;stroke:none;stroke-width:0.180384;stroke-linecap:butt;stroke-linejoin:miter;stroke-miterlimit:4;stroke-dasharray:none;stroke-dashoffset:0;stroke-opacity:1"
       d="m 240.39436,661.56217 c -0.2616,-0.21563 -0.89393,-0.98969 -0.8469,-1.03672 0.0475,-0.0475 0.962,0.7059 1.11123,0.91548 0.1185,0.16642 0.12224,0.30907 0.008,0.30907 -0.0245,0 -0.14711,-0.0845 -0.27244,-0.18783 z"
       id="path17070"
       transform="scale(0.26458333)"
       inkscape:export-filename="E:\Ziya Invites\assets\frames\path2384.png"
       inkscape:export-xdpi="96"
       inkscape:export-ydpi="96" />
    <rect
       style="fill:#ffffff;fill-opacity:1;stroke:#ffffff;stroke-width:1.32292;stroke-miterlimit:4;stroke-dasharray:none;stroke-opacity:1"
       id="rect17244"
       width="0.046772167"
       height="0.038002387"
       x="47.634529"
       y="145.68945"
       inkscape:export-filename="E:\Ziya Invites\assets\frames\path2384.png"
       inkscape:export-xdpi="96"
       inkscape:export-ydpi="96" />
    <rect
       style="fill:#ffffff;fill-opacity:1;stroke:#ffffff;stroke-width:1.32292;stroke-miterlimit:4;stroke-dasharray:none;stroke-opacity:1"
       id="rect17510"
       width="0.090621077"
       height="0.2864795"
       x="47.622837"
       y="144.29213"
       inkscape:export-filename="E:\Ziya Invites\assets\frames\path2384.png"
       inkscape:export-xdpi="96"
       inkscape:export-ydpi="96" />
    <rect
       style="fill:#ffffff;fill-opacity:1;stroke:#ffffff;stroke-width:1.32292;stroke-miterlimit:4;stroke-dasharray:none;stroke-opacity:1"
       id="rect17512"
       width="0.24847713"
       height="0.33617494"
       x="47.596523"
       y="143.0439"
       inkscape:export-filename="E:\Ziya Invites\assets\frames\path2384.png"
       inkscape:export-xdpi="96"
       inkscape:export-ydpi="96" />
    <rect
       style="fill:#ffffff;fill-opacity:1;stroke:#ffffff;stroke-width:1.32292;stroke-miterlimit:4;stroke-dasharray:none;stroke-opacity:1"
       id="rect17514"
       width="0.067234993"
       height="0.10231411"
       x="47.595062"
       y="141.50188"
       inkscape:export-filename="E:\Ziya Invites\assets\frames\path2384.png"
       inkscape:export-xdpi="96"
       inkscape:export-ydpi="96" />
    <rect
       style="fill:#ffffff;fill-opacity:1;stroke:#ffffff;stroke-width:1.32292;stroke-miterlimit:4;stroke-dasharray:none;stroke-opacity:1"
       id="rect17516"
       width="0.26893997"
       height="0.7863571"
       x="47.657913"
       y="141.53842"
       inkscape:export-filename="E:\Ziya Invites\assets\frames\path2384.png"
       inkscape:export-xdpi="96"
       inkscape:export-ydpi="96" />
    <rect
       style="fill:#ffffff;fill-opacity:1;stroke:#ffffff;stroke-width:1.32292;stroke-miterlimit:4;stroke-dasharray:none;stroke-opacity:1"
       id="rect17518"
       width="0.14031649"
       height="0.087697811"
       x="47.616989"
       y="140.67021"
       inkscape:export-filename="E:\Ziya Invites\assets\frames\path2384.png"
       inkscape:export-xdpi="96"
       inkscape:export-ydpi="96" />
    <rect
       style="fill:#ffffff;fill-opacity:1;stroke:#ffffff;stroke-width:1.32292;stroke-miterlimit:4;stroke-dasharray:none;stroke-opacity:1"
       id="rect17534"
       width="3.8770952"
       height="2.95732"
       x="44.719185"
       y="144.84273"
       inkscape:export-filename="E:\Ziya Invites\assets\frames\path2384.png"
       inkscape:export-xdpi="96"
       inkscape:export-ydpi="96" />
    <rect
       style="fill:#ffffff;fill-opacity:1;stroke:#ffffff;stroke-width:1.32292;stroke-miterlimit:4;stroke-dasharray:none;stroke-opacity:1"
       id="rect17536"
       width="2.5724692"
       height="0.023386084"
       x="44.620647"
       y="148.64194"
       inkscape:export-filename="E:\Ziya Invites\assets\frames\path2384.png"
       inkscape:export-xdpi="96"
       inkscape:export-ydpi="96" />
    <rect
       style="fill:#ffffff;fill-opacity:1;stroke:#ffffff;stroke-width:1.32292;stroke-miterlimit:4;stroke-dasharray:none;stroke-opacity:1"
       id="rect17540"
       width="2.2216778"
       height="0.093544334"
       x="45.275459"
       y="149.76448"
       inkscape:export-filename="E:\Ziya Invites\assets\frames\path2384.png"
       inkscape:export-xdpi="96"
       inkscape:export-ydpi="96" />
    <rect
       style="fill:#ffffff;fill-opacity:1;stroke:#ffffff;stroke-width:1.32292;stroke-miterlimit:4;stroke-dasharray:none;stroke-opacity:1"
       id="rect17542"
       width="4.303041"
       height="3.2974479"
       x="47.193115"
       y="148.64194"
       inkscape:export-filename="E:\Ziya Invites\assets\frames\path2384.png"
       inkscape:export-xdpi="96"
       inkscape:export-ydpi="96" />
    <rect
       style="fill:#ffffff;fill-opacity:1;stroke:#ffffff;stroke-width:1.32292;stroke-miterlimit:4;stroke-dasharray:none;stroke-opacity:1"
       id="rect17544"
       width="7.0158248"
       height="3.2974377"
       x="47.310047"
       y="153.45947"
       inkscape:export-filename="E:\Ziya Invites\assets\frames\path2384.png"
       inkscape:export-xdpi="96"
       inkscape:export-ydpi="96" />
    <rect
       style="fill:#ffffff;fill-opacity:1;stroke:#ffffff;stroke-width:1.32292;stroke-miterlimit:4;stroke-dasharray:none;stroke-opacity:1"
       id="rect17546"
       width="4.5135155"
       height="0.93543631"
       x="47.193115"
       y="151.93938"
       inkscape:export-filename="E:\Ziya Invites\assets\frames\path2384.png"
       inkscape:export-xdpi="96"
       inkscape:export-ydpi="96" />
    <rect
       style="fill:#ffffff;fill-opacity:1;stroke:#ffffff;stroke-width:1.32292;stroke-miterlimit:4;stroke-dasharray:none;stroke-opacity:1"
       id="rect17550"
       width="2.0094852"
       height="0.69145918"
       x="47.615784"
       y="156.79042"
       inkscape:export-filename="E:\Ziya Invites\assets\frames\path2384.png"
       inkscape:export-xdpi="96"
       inkscape:export-ydpi="96" />
    <rect
       style="fill:#ffffff;fill-opacity:1;stroke:#ffffff;stroke-width:1.32292;stroke-miterlimit:4;stroke-dasharray:none;stroke-opacity:1"
       id="rect17552"
       width="2.7595577"
       height="0.023386084"
       x="48.783371"
       y="158.65118"
       inkscape:export-filename="E:\Ziya Invites\assets\frames\path2384.png"
       inkscape:export-xdpi="96"
       inkscape:export-ydpi="96" />
    <rect
       style="fill:#ffffff;fill-opacity:1;stroke:#ffffff;stroke-width:1.32292;stroke-miterlimit:4;stroke-dasharray:none;stroke-opacity:1"
       id="rect17554"
       width="3.1571212"
       height="0.25724691"
       x="49.859131"
       y="159.63341"
       inkscape:export-filename="E:\Ziya Invites\assets\frames\path2384.png"
       inkscape:export-xdpi="96"
       inkscape:export-ydpi="96" />
    <rect
       style="fill:#ffffff;fill-opacity:1;stroke:#ffffff;stroke-width:1.32292;stroke-miterlimit:4;stroke-dasharray:none;stroke-opacity:1"
       id="rect17556"
       width="1.7305702"
       height="0.14031649"
       x="51.238911"
       y="160.91963"
       inkscape:export-filename="E:\Ziya Invites\assets\frames\path2384.png"
       inkscape:export-xdpi="96"
       inkscape:export-ydpi="96" />
    <rect
       style="fill:#ffffff;fill-opacity:1;stroke:#ffffff;stroke-width:1.32292;stroke-miterlimit:4;stroke-dasharray:none;stroke-opacity:1"
       id="rect17558"
       width="5.3554134"
       height="4.4433556"
       x="51.425999"
       y="156.47629"
       inkscape:export-filename="E:\Ziya Invites\assets\frames\path2384.png"
       inkscape:export-xdpi="96"
       inkscape:export-ydpi="96" />
    <rect
       style="fill:#ffffff;fill-opacity:1;stroke:#ffffff;stroke-width:1.32292;stroke-miterlimit:4;stroke-dasharray:none;stroke-opacity:1"
       id="rect17560"
       width="5.6828184"
       height="0.84189904"
       x="53.413815"
       y="162.48651"
       inkscape:export-filename="E:\Ziya Invites\assets\frames\path2384.png"
       inkscape:export-xdpi="96"
       inkscape:export-ydpi="96" />
    <rect
       style="fill:#ffffff;fill-opacity:1;stroke:#ffffff;stroke-width:1.32292;stroke-miterlimit:4;stroke-dasharray:none;stroke-opacity:1"
       id="rect17562"
       width="2.6426275"
       height="1.099146"
       x="53.577518"
       y="161.05995"
       inkscape:export-filename="E:\Ziya Invites\assets\frames\path2384.png"
       inkscape:export-xdpi="96"
       inkscape:export-ydpi="96" />
    <rect
       style="fill:#ffffff;fill-opacity:1;stroke:#ffffff;stroke-width:1.32292;stroke-miterlimit:4;stroke-dasharray:none;stroke-opacity:1"
       id="rect17566"
       width="23.222387"
       height="12.090611"
       x="58.16119"
       y="157.78589"
       inkscape:export-filename="E:\Ziya Invites\assets\frames\path2384.png"
       inkscape:export-xdpi="96"
       inkscape:export-ydpi="96" />
    <rect
       style="fill:#ffffff;fill-opacity:1;stroke:#ffffff;stroke-width:1.32292;stroke-miterlimit:4;stroke-dasharray:none;stroke-opacity:1"
       id="rect17568"
       width="2.525697"
       height="3.0869629"
       x="66.977745"
       y="170.62488"
       inkscape:export-filename="E:\Ziya Invites\assets\frames\path2384.png"
       inkscape:export-xdpi="96"
       inkscape:export-ydpi="96" />
    <rect
       style="fill:#ffffff;fill-opacity:1;stroke:#ffffff;stroke-width:1.32292;stroke-miterlimit:4;stroke-dasharray:none;stroke-opacity:1"
       id="rect17598"
       width="6.9453125"
       height="9.7895832"
       x="47.75729"
       y="121.8737"
       inkscape:export-filename="E:\Ziya Invites\assets\frames\path2384.png"
       inkscape:export-xdpi="96"
       inkscape:export-ydpi="96" />
    <rect
       style="fill:#ffffff;fill-opacity:1;stroke:#ffffff;stroke-width:1.32292;stroke-miterlimit:4;stroke-dasharray:none;stroke-opacity:1"
       id="rect17600"
       width="7.1768227"
       height="9.2934895"
       x="46.302082"
       y="132.45703"
       inkscape:export-filename="E:\Ziya Invites\assets\frames\path2384.png"
       inkscape:export-xdpi="96"
       inkscape:export-ydpi="96" />
    <rect
       style="fill:#ffffff;fill-opacity:1;stroke:#ffffff;stroke-width:1.32292;stroke-miterlimit:4;stroke-dasharray:none;stroke-opacity:1"
       id="rect17602"
       width="6.4822917"
       height="11.310937"
       x="47.327343"
       y="112.41484"
       inkscape:export-filename="E:\Ziya Invites\assets\frames\path2384.png"
       inkscape:export-xdpi="96"
       inkscape:export-ydpi="96" />
    <rect
       style="fill:#ffffff;fill-opacity:1;stroke:#ffffff;stroke-width:1.32292;stroke-miterlimit:4;stroke-dasharray:none;stroke-opacity:1"
       id="rect17616"
       width="5.8214903"
       height="4.8700824"
       x="49.410275"
       y="108.9669"
       inkscape:export-filename="E:\Ziya Invites\assets\frames\path2384.png"
       inkscape:export-xdpi="96"
       inkscape:export-ydpi="96" />
    <rect
       style="fill:#ffffff;fill-opacity:1;stroke:#ffffff;stroke-width:1.32292;stroke-miterlimit:4;stroke-dasharray:none;stroke-opacity:1"
       id="rect17618"
       width="3.5482488"
       height="1.9646529"
       x="46.921021"
       y="110.05331"
       inkscape:export-filename="E:\Ziya Invites\assets\frames\path2384.png"
       inkscape:export-xdpi="96"
       inkscape:export-ydpi="96" />
    <rect
       style="fill:#ffffff;fill-opacity:1;stroke:#ffffff;stroke-width:1.32292;stroke-miterlimit:4;stroke-dasharray:none;stroke-opacity:1"
       id="rect17620"
       width="4.6963539"
       height="4.8617187"
       x="51.329166"
       y="105.5026"
       inkscape:export-filename="E:\Ziya Invites\assets\frames\path2384.png"
       inkscape:export-xdpi="96"
       inkscape:export-ydpi="96" />
    <rect
       style="fill:#ffffff;fill-opacity:1;stroke:#ffffff;stroke-width:1.32292;stroke-miterlimit:4;stroke-dasharray:none;stroke-opacity:1"
       id="rect17622"
       width="4.0372629"
       height="5.7540727"
       x="53.972633"
       y="100.41"
       inkscape:export-filename="E:\Ziya Invites\assets\frames\path2384.png"
       inkscape:export-xdpi="96"
       inkscape:export-ydpi="96" />
    <rect
       style="fill:#ffffff;fill-opacity:1;stroke:#ffffff;stroke-width:1.32292;stroke-miterlimit:4;stroke-dasharray:none;stroke-opacity:1"
       id="rect17624"
       width="2.9127843"
       height="3.2074676"
       x="51.426018"
       y="101.5014"
       inkscape:export-filename="E:\Ziya Invites\assets\frames\path2384.png"
       inkscape:export-xdpi="96"
       inkscape:export-ydpi="96" />
    <rect
       style="fill:#ffffff;fill-opacity:1;stroke:#ffffff;stroke-width:1.32292;stroke-miterlimit:4;stroke-dasharray:none;stroke-opacity:1"
       id="rect17626"
       width="6.6346049"
       height="7.5213904"
       x="56.468521"
       y="98.74189"
       inkscape:export-filename="E:\Ziya Invites\assets\frames\path2384.png"
       inkscape:export-xdpi="96"
       inkscape:export-ydpi="96" />
    <rect
       style="fill:#ffffff;fill-opacity:1;stroke:#ffffff;stroke-width:1.32292;stroke-miterlimit:4;stroke-dasharray:none;stroke-opacity:1"
       id="rect17628"
       width="1.1837451e-06"
       height="2.6072769e-07"
       x="56.766178"
       y="96.559074"
       inkscape:export-filename="E:\Ziya Invites\assets\frames\path2384.png"
       inkscape:export-xdpi="96"
       inkscape:export-ydpi="96" />
    <rect
       style="fill:#ffffff;fill-opacity:1;stroke:#ffffff;stroke-width:1.32292;stroke-miterlimit:4;stroke-dasharray:none;stroke-opacity:1"
       id="rect17630"
       width="6.3169284"
       height="1.5075152"
       x="56.786198"
       y="97.234375"
       inkscape:export-filename="E:\Ziya Invites\assets\frames\path2384.png"
       inkscape:export-xdpi="96"
       inkscape:export-ydpi="96" />
    <rect
       style="fill:#ffffff;fill-opacity:1;stroke:#ffffff;stroke-width:1.32292;stroke-miterlimit:4;stroke-dasharray:none;stroke-opacity:1"
       id="rect17632"
       width="5.2139411"
       height="2.0285354"
       x="57.889187"
       y="95.205833"
       inkscape:export-filename="E:\Ziya Invites\assets\frames\path2384.png"
       inkscape:export-xdpi="96"
       inkscape:export-ydpi="96" />
    <rect
       style="fill:#ffffff;fill-opacity:1;stroke:#ffffff;stroke-width:1.32292;stroke-miterlimit:4;stroke-dasharray:none;stroke-opacity:1"
       id="rect17634"
       width="9.2819071"
       height="0.70562351"
       x="58.28606"
       y="93.618332"
       inkscape:export-filename="E:\Ziya Invites\assets\frames\path2384.png"
       inkscape:export-xdpi="96"
       inkscape:export-ydpi="96" />
    <rect
       style="fill:#ffffff;fill-opacity:1;stroke:#ffffff;stroke-width:1.32292;stroke-miterlimit:4;stroke-dasharray:none;stroke-opacity:1"
       id="rect17636"
       width="1.5213544"
       height="2.5135453"
       x="60.291927"
       y="92.405731"
       inkscape:export-filename="E:\Ziya Invites\assets\frames\path2384.png"
       inkscape:export-xdpi="96"
       inkscape:export-ydpi="96" />
    <rect
       style="fill:#ffffff;fill-opacity:1;stroke:#ffffff;stroke-width:1.32292;stroke-miterlimit:4;stroke-dasharray:none;stroke-opacity:1"
       id="rect17638"
       width="6.4822941"
       height="2.778127"
       x="63.599216"
       y="90.785156"
       inkscape:export-filename="E:\Ziya Invites\assets\frames\path2384.png"
       inkscape:export-xdpi="96"
       inkscape:export-ydpi="96" />
    <rect
       style="fill:#ffffff;fill-opacity:1;stroke:#ffffff;stroke-width:1.32292;stroke-miterlimit:4;stroke-dasharray:none;stroke-opacity:1"
       id="rect17640"
       width="3.9356771"
       height="1.1244792"
       x="66.774216"
       y="89.263802"
       inkscape:export-filename="E:\Ziya Invites\assets\frames\path2384.png"
       inkscape:export-xdpi="96"
       inkscape:export-ydpi="96" />
  </g>
  <g
     inkscape:label="Layer 1"
     inkscape:groupmode="layer"
     id="layer1">
    <path
       sodipodi:type="star"
       style="fill:#ffffff;fill-opacity:0;stroke:#798a5d;stroke-width:5.0000001;stroke-opacity:1;stroke-miterlimit:4;stroke-dasharray:none"
       id="path2384"
       inkscape:flatsided="true"
       sodipodi:sides="8"
       sodipodi:cx="179.43089"
       sodipodi:cy="269.86407"
       sodipodi:r1="232.39175"
       sodipodi:r2="214.702"
       sodipodi:arg1="0.53830086"
       sodipodi:arg2="0.93099994"
       inkscape:rounded="0"
       inkscape:randomized="0"
       d="M 378.95805,389.00619 236.2717,495.19727 60.28878,469.39123 -45.902305,326.70488 -20.096259,150.72196 122.59009,44.530877 298.57301,70.336923 404.76409,213.02327 Z"
       transform="matrix(0.26185399,-0.03790548,0.03790548,0.26185399,46.470119,69.82441)"
       inkscape:export-filename="E:\Ziya Invites\assets\frames\path2384.png"
       inkscape:export-xdpi="96"
       inkscape:export-ydpi="96" />
    <path
       sodipodi:type="star"
       style="fill:#ffffff;fill-opacity:0;stroke:#798a5d;stroke-width:5;stroke-miterlimit:4;stroke-dasharray:none;stroke-opacity:1"
       id="path2384-1"
       inkscape:flatsided="true"
       sodipodi:sides="8"
       sodipodi:cx="179.43089"
       sodipodi:cy="269.86407"
       sodipodi:r1="232.39175"
       sodipodi:r2="214.702"
       sodipodi:arg1="0.53830086"
       sodipodi:arg2="0.93099994"
       inkscape:rounded="0"
       inkscape:randomized="0"
       transform="matrix(0.26450412,0.0064737,-0.0064737,0.26450412,57.71729,61.764912)"
       d="M 378.95805,389.00619 236.2717,495.19727 60.28878,469.39123 -45.902305,326.70488 -20.096259,150.72196 122.59009,44.530877 298.57301,70.336923 404.76409,213.02327 Z"
       inkscape:export-filename="E:\Ziya Invites\assets\frames\path2384.png"
       inkscape:export-xdpi="96"
       inkscape:export-ydpi="96" />
    <path
       sodipodi:type="star"
       style="fill:#ffffff;fill-opacity:0;stroke:#798a5d;stroke-width:5;stroke-miterlimit:4;stroke-dasharray:none;stroke-opacity:1"
       id="path2384-1-6"
       inkscape:flatsided="true"
       sodipodi:sides="8"
       sodipodi:cx="179.43089"
       sodipodi:cy="269.86407"
       sodipodi:r1="232.39175"
       sodipodi:r2="214.702"
       sodipodi:arg1="0.53830086"
       sodipodi:arg2="0.93099994"
       inkscape:rounded="0"
       inkscape:randomized="0"
       transform="matrix(0.25955481,0.05133848,-0.05133848,0.25955481,70.712742,55.050426)"
       d="M 378.95805,389.00619 236.2717,495.19727 60.28878,469.39123 -45.902305,326.70488 -20.096259,150.72196 122.59009,44.530877 298.57301,70.336923 404.76409,213.02327 Z"
       inkscape:export-filename="E:\Ziya Invites\assets\frames\path2384.png"
       inkscape:export-xdpi="96"
       inkscape:export-ydpi="96" />
    <rect
       style="fill:#ffffff;fill-opacity:1;stroke:#ffffff;stroke-width:1.32292;stroke-miterlimit:4;stroke-dasharray:none;stroke-opacity:1"
       id="rect17594"
       width="5.144937"
       height="0.2338609"
       x="56.220146"
       y="162.1591"
       inkscape:export-filename="E:\Ziya Invites\assets\frames\path2384.png"
       inkscape:export-xdpi="96"
       inkscape:export-ydpi="96" />
  </g>
</svg>
